<?xml version="1.0" encoding="utf-8"?>
<!-- Generator: Adobe Illustrator 23.0.2, SVG Export Plug-In . SVG Version: 6.00 Build 0)  -->
<svg version="1.1" id="Capa_1" xmlns="http://www.w3.org/2000/svg" xmlns:xlink="http://www.w3.org/1999/xlink" x="0px" y="0px"
	 viewBox="0 0 1080 1080" style="enable-background:new 0 0 1080 1080;" xml:space="preserve">
<style type="text/css">
	.st0{fill:#220E34;}
</style>
<g>
	<path class="st0" d="M803.01,285.28c-2.48,3.58-3.44,7.54-3.51,12.01c-0.06,3.53-0.89,7.1-1.71,10.56
		c-0.59,2.47-1.44,4.86-1.54,7.44c-0.02,0.53,0.07,1.38-0.2,1.55c-3.81,2.44-1.18,7.5-3.84,10.39c-0.2,0.22-0.24,0.81-0.12,1.13
		c1.29,3.34,1.37,3.37-0.21,6.48c-0.54,1.07-0.34,2.07-0.38,3.11c-0.06,1.46-0.74,2.39-2.17,2.06c-1.58-0.37-0.97-1.52-0.56-2.53
		c0.55-1.34,1.03-2.72,1.64-4.04c0.44-0.96,1.33-1.94,0.69-2.97c-2.28-3.6-0.32-7.39-0.34-11.02c-0.02-4.05,1.39-8.12,2.23-12.18
		c0.15-0.75,0.38-1.94,0.82-2.08c1.22-0.39,2.6-0.28,2.31-2.31c-0.33-2.27-2.12-1.92-3.53-2.3c-0.22-0.06-0.4-0.27-0.81-0.57
		c0.95-1.22,2.13-0.3,3.1-0.5c1.63-0.33,3.14-0.67,2.07-3.09c-0.67-1.52-0.03-2.65,0.99-3.93c2.6-3.27,1.91-5.21-2.03-6.49
		c-1.69-0.55-1.64-1.19,0.8-5.04c-0.73,4.01,2,2.88,3.44,3.65C801.08,284.86,802.05,285.07,803.01,285.28z"/>
	<path class="st0" d="M803.01,285.28c-0.96-0.21-1.92-0.42-2.89-0.63c-1.33-3.12-2.78-5.74,0.61-9.07c3.81-3.75,4.32-4.74,7.84-0.44
		c1.32,1.62,4.28,0.61,5.32,3.08l-0.02-0.05c-1.3,0.96-2.94-1.97-4.02,0.28c-0.78,1.63-0.17,3.1,0.5,4.84
		c0.95,2.45,3.14,4.8,1.76,7.95c-0.59,1.33-0.87,3.21-2.63,2.79c-1.96-0.47,0.2-1.56-0.01-2.36c-0.09-0.35-0.33-0.96-0.49-0.96
		C805.48,290.71,805.5,286.46,803.01,285.28z"/>
	<path class="st0" d="M734.22,479.52c0.93,3-0.33,5.83-1.18,8.45c-5.74,17.83-8.49,36.47-13.5,54.48c-0.31,1.12-0.43,2.75-2.05,2.16
		c-1.25-0.46-0.79-1.85-0.45-2.82c3.88-11.01,5.5-22.67,8.71-33.89C728.46,498.43,731.44,489.06,734.22,479.52z"/>
	<path class="st0" d="M579.25,352.5c1.26-3.28,2.45-6.59,3.78-9.83c3.98-9.75,8.69-19.12,13.15-28.63
		c6.44-13.72,13.1-27.31,20-40.78c5.57-10.88,12.88-20.67,17.52-32.08c1.85-4.54,3.18-9.46,5.74-13.51c3.74-5.9,6.04-12.36,8.2-18.9
		c0.66-1.99,2.51-1.55,3.46-3.16c1.73-2.91,2.23-7.55,4.53-8.69c3.79-1.87,3.32-7.12,6.11-7.94c8.46-2.47,12.57-12.41,21.74-12.82
		c0.02-2.5-2.1-1.59-2.73-2.69c3.37-1.95,4.31-1.75,6.14,1.68c0.54,1.01,1.14,1.72,2.14,2.13c5.81,2.37,10.94,10.4,11.05,17.19
		c0.04,2.7,1.17,5.25,1.96,7.63c3.42,10.24,2.57,20.91,3.72,31.36c1.33,12.08-1.53,23.89-1.82,35.83c-0.15,6.1-1.44,12.03-1.2,18.25
		c0.24,6.41-1.4,13-1.97,19.55c-0.76,8.63-1.7,17.24-2.68,25.84c-0.94,8.23-2.06,16.43-3.06,24.65c-1.34,11.04-2.47,22.1-4.01,33.1
		c-0.74,5.28-2.07,10.5-3.39,15.67c-1.89,7.4-2.55,15.06-4.36,22.44c-3.36,13.71-4.31,27.91-7.84,41.52
		c-1.64,6.34-3.08,12.76-4.22,19.13c-1.74,9.73-3.12,19.58-5.95,28.98c-2.2,7.31-2.46,15.05-5.26,22.14c-0.4,1-0.44,1.77,0.33,2.53
		c0.64,0.63,0.77,1.44,0.29,2.19c-4.88,7.61-4.58,16.66-6.55,25.11c-1.72,7.37-3.81,14.69-4.97,22.15
		c-1.12,7.22-1.35,14.59-2.69,21.81c-0.92,4.98-1.84,9.96-2.75,14.95c-3.23,17.77-4.94,35.54,0.45,53.23
		c0.35,1.15,0.73,2.31,1.28,3.36c1.34,2.54,2.98,3.17,5.64,1.51c4.39-2.74,6.81-7.26,9.57-11.35c6.2-9.19,12.77-18.3,16.83-28.76
		c5.83-15,14.83-28.32,20.15-43.54c0.29-0.82,0.41-1.87,1.71-2.25c-0.17,2.6-0.69,4.93-1.88,7.13c-1.67,3.09-2.31,6.53-2.88,9.98
		c-0.18,1.13,0.7,2.85-1.52,2.88c-0.49,0.01-0.78,0.92-0.44,1.31c2.62,3.03,0.17,5.55-0.79,8.1c-3.68,9.82-9.85,18.12-15.03,27.02
		c-2.88,4.95-5.94,10-6.56,16.06c-0.03,0.27-0.1,0.53-0.16,0.79c-0.7,3-4.56,3.92-4.86,6.13c-0.31,2.29,1.16,4.76-0.72,7.25
		c-1.04,1.37-2.08,3.37-1.23,5.26c1.6,3.53,0.31,4.92-2.98,5.33c-0.69,0.09-1.32,0.72-1.94,1.08c0.18,1.75,2.18,0.19,2.26,1.56
		c0.08,1.28-1.04,1.91-1.96,2.19c-2.72,0.84-5.61,3.42-8.11-0.63c-0.3-0.48-1.72-0.05-2.47-0.4c-6.22-2.89-9.56-8.5-11.06-14.97
		c-1.23-5.29-1.26-10.92-1.05-16.45c0.09-2.54,0.3-5.15-1.72-7.18c-0.32-0.32-0.68-1.16-0.52-1.39c4.72-7.05,2.47-15.49,4.15-23.17
		c2.18-9.93,3.16-20.13,5.13-30.12c2.56-12.98,6.08-25.77,8.29-38.82c2.21-13.11,6.29-25.73,8.28-38.88
		c1.02-6.74,3.25-13.2,4.39-19.97c2.06-12.24,4.58-24.41,7.39-36.49c1.97-8.45,2.62-17.15,4.73-25.5c2.32-9.19,3.06-18.67,5.5-27.85
		c2.43-9.13,4.5-18.46,5.93-27.77c0.98-6.39,2.72-12.87,2.18-19.51c-0.53-6.46,1.76-12.46,2.89-18.61
		c1.38-7.54,1.84-15.18,2.72-22.73c1.08-9.28,2.68-18.56,3-27.9c0.27-7.74,1.45-15.38,2.08-23.04c0.62-7.55,1.33-15.17,2.01-22.76
		c0.11-1.2,0.34-2.4,0.33-3.61c-0.13-13.53,0.63-27.05,0-40.6c-0.36-7.65-3.55-14.16-5.54-21.16c-0.94-3.32-2.46-6.41-4.49-9.23
		c-4.11-5.71-9.66-6.77-15.32-3.12c-10.99,7.09-18.18,17.51-24.8,28.88c-5.21,8.96-9.02,18.59-13.73,27.77
		c-2.49,4.87-5.06,9.79-7.35,14.82c-1.91,4.18-4.83,7.83-7.17,11.81c-6.9,11.73-12.66,24.12-18.87,36.25
		c-7.56,14.75-14.65,29.76-21.31,44.99c-1.04,2.39-2.06,4.86-3.9,6.73C579.89,352.82,579.57,352.66,579.25,352.5z"/>
	<path class="st0" d="M880.72,371.09c-1.82-13.49-2.28-27.16-5.66-40.44c-4.12-16.19-7.6-32.56-11.92-48.69
		c-2.23-8.32-4.73-16.67-10.51-23.46c-3.8-4.47-7.12-9.46-9.19-15.2c-0.65-1.81-1.96-3.11-3.4-4.28
		c-6.35-5.17-12.68-10.32-18.61-16.06c-9.45-9.14-18.17-8.34-27.88,0.5c-0.79,0.72-1.48,1.18-2.1,1.4
		c-0.19,0.16-0.39,0.32-0.64,0.46c-0.33,0.19-0.68,0.34-1.03,0.44c-0.09,0.15-0.2,0.27-0.3,0.41c-0.32,0.57-0.65,1.12-1.02,1.66
		c-0.01,0.25-0.02,0.51-0.03,0.78c0,0.26-0.04,0.51-0.09,0.75c0.17,0.74,0.04,1.53-0.21,2.31c-0.87,2.81-1.77,5.6-2.11,8.57
		c-0.12,1.09-0.4,2.39-1.58,2.71c-0.14,0.99-0.34,1.95-0.58,2.89c0.77,0.93,0.7,2.03,0.29,3.22c-1.99,5.76-2.88,11.82-5.24,17.56
		c-5.32,12.98-9.76,26.35-11.15,40.6c-0.3,3.05-1.6,5.91-2.31,8.9c-2.07,8.73-1.94,17.86-4.56,26.47c-0.68,2.23-0.76,4.44,0.29,6.59
		c1.14-0.11,1.15-1.02,1.29-1.77c2.15-12,4.12-24.04,6.49-36c1.61-8.12,4.14-16.04,5.58-24.18c1.27-7.2,5.83-12.73,7.79-19.52
		c1.41-4.9,2.52-9.82,3.34-14.87c1.62-9.92,3.43-19.9,9.9-27.87c3.92-4.83,9.21-6.46,15.17-5.41c0.72,0.13,1.55,0.53,2.01,1.09
		c6.6,8.12,15.51,13.33,22.99,20.3c6.27,5.84,9.42,14.15,13.93,21.4c7.19,11.55,9.86,24.94,13.91,37.69
		c2.66,8.38,4.95,17.17,5.09,26.33c0.05,3.39,1.48,6.76,2.29,10.14c3.72,15.45,5.49,31.21,4.68,47.06
		c-0.54,10.64-1.03,21.37-2.77,31.96c-0.31,1.86,1.23,4-1.5,5.03c3.47,6.53-1.58,11.08-3.66,16.15c-2.3,5.6-4.82,6.25-10.1,4.03
		c-1.3-0.55-2.5-1.41-2.33-2.84c0.42-3.6-0.63-7.26,1.03-10.86c5.78-12.51,8.51-25.59,7.89-39.69c-0.76-17.54,0.24-35.24-2.9-52.56
		c-1.84-10.16-3.19-20.45-7.98-30.07c-5.11-10.28-9.14-21.2-14.67-31.31c-3.62-6.61-8.28-12.48-11.85-19.17
		c-2.78-5.2-8.46-7.73-13.37-10.35c-1.59-0.85-5.13,1.59-7.44,3.1c-9.4,6.13-14.88,15.02-16.61,26.59
		c-0.85,5.68-2.85,11.11-4.27,16.66c-3.07,11.99-5.11,24.05-5.83,36.44c-0.21,3.66-1.35,7.28-1.7,11.03c-0.25,2.73,1.91,5.8,0.2,7.8
		c-3.18,3.73-2.28,8.66-1.98,11.99c0.71,7.92-5.09,13.15-5.49,20.24c-0.4,7.15-2.1,14.04-3.76,20.94
		c-1.78,7.41-4.61,14.5-6.07,22.01c-2.63,13.54-5.18,27.1-8.04,40.58c-1.7,7.98-4.03,15.8-5.88,23.75
		c-3.16,13.59-8.99,26.2-12.88,39.47c-2.18,7.44-3.65,15.21-5.28,22.87c-1.92,8.98-5.9,17.16-8.42,25.89
		c-1.56,5.39-2.62,10.95-4.39,16.25c-1.95,5.82-2.52,12.13-6.35,17.37c-1.59,2.17-1.45,5.76-2.35,8.68
		c-1.19,3.85-2.68,7.3-4.74,10.63c-1.85,2.99-3.6,6.06-5.1,9.25c-3.18,6.75-5.78,13.84-9.33,20.37
		c-5.66,10.41-10.33,21.33-15.69,31.87c-5.01,9.87-9.03,20.07-12.21,30.71c-0.78,2.63-0.45,5.37-1.11,7.95
		c-1.7,6.57-2.89,13.41-5.5,19.57c-3.54,8.37-11.49,9.89-19.25,4.02c-7.25-5.48-10.88-13.35-12.74-22.52
		c-1.66-8.16-3.15-16.33-3.16-24.61c-0.02-11.76,0.1-23.51,3.51-35.03c3.42-11.54,4.16-23.72,6.06-35.62
		c1.04-6.49,2.29-12.93,3.32-19.42c2.56-16.14,7.19-31.81,9.35-48.08c1.27-9.64,4.07-19.13,6.86-28.46
		c2.52-8.42,2.78-17.21,4.84-25.69c2.2-9.06,3.66-18.31,5.41-27.49c0.42-2.23,0.85-4.47,1.1-6.72c0.86-7.81,2.98-15.36,3.98-23.18
		c0.85-6.7,1.36-13.79,4.46-20.2c1.63-3.37,2.04-7.42,2.86-11.2c3.31-15.14,6.54-30.31,9.93-45.41c2.79-12.43,3.16-25.16,6.13-37.49
		c2-8.29,3.56-16.7,5-25.11c1.32-7.79,2.71-15.62,3.22-23.49c1.24-19.16,1.66-38.28-1.84-57.36c-1.43-7.77-2.78-15.58-5.22-22.99
		c-1.78-5.41-5.56-9.05-11.87-6.85c-1.69,0.59-3.38,1.16-5.1,1.64c-3.29,0.92-2.87,4.83-4.39,7.25c-3.83,6.1-7.53,12.34-10.64,18.87
		c-2.26,4.74-4.03,9.74-7.17,13.94c-3.52,4.71-6.11,10.06-9.31,14.99c-2.51,3.88-3.3,9.09-5.56,13.42
		c-6.51,12.47-12.35,25.39-19.62,37.34c-6.62,10.88-12.61,22.07-18.17,33.52c-5.51,11.35-10.73,22.87-15.57,34.55
		c-4.54,10.94-6.46,22.81-9.86,34.17c-4.51,15.08-9.08,30.14-13.84,45.14c-4.2,13.21-8.35,26.46-13.19,39.42
		c-2.21,5.91-3.52,12.09-5.7,17.87c-3.11,8.25-5.83,16.83-10.57,24.31c-0.87,1.36-0.42,2.51-0.71,3.72
		c-3.25,13.74-2.49,28.13-6.13,41.79c-3.27,12.24-6.72,24.43-10.14,36.62c-0.28,1-0.73,2.16-1.46,2.77
		c-1.64,1.35-1.96,2.68-1.33,4.83c1.21,4.11-2.51,6.73-3.35,10.36c-0.76,3.34-2.07,6.64-2.78,10.02c-0.99,4.71-3.37,8.28-6.81,11.25
		c-0.24,0.21-0.42,0.65-0.41,0.98c0.26,9.45-4.83,17.05-8.04,25.25c-2.47,6.32-5,12.6-7.28,19.01
		c-4.92,13.85-8.51,28.21-14.46,41.65c-5.06,11.43-9.72,23.04-14.14,34.75c-4.51,11.96-9.76,23.54-15.31,35
		c-0.77,1.6-1.32,3.32-1.93,5c-0.13,5.55-0.63,11.4-3.17,15.81c-0.05,0.22-0.11,0.44-0.18,0.69c-1.11,3.68-1.77,7.49-3.03,11.17
		c-2.29,6.71-6.27,12.28-11.75,15.89c-7.09,4.67-17.21,5.81-23.09-4.08c-0.49-0.83-1.83-1.46-1.04-2.69
		c0.61-0.95,1.65-0.22,2.5-0.17c0.48,0.03,0.97,0.01,2.03,0.01c-0.68-0.76-0.82-1.09-1-1.13c-6.29-0.95-6.03-5.82-5.82-10.69
		c0.04-0.98-0.01-1.98-0.09-2.97c-1.2-4.46-1.76-9.22-2.19-13.19c-0.4-0.68-0.47-1.75,0.02-3.42c0.39-1.33-2.12-2.42-2.68-4.38
		c-3.69-12.85-4.54-25.43-1.08-38.77c2.26-8.75,4.24-17.66,6.41-26.49c0.92-3.76,2.57-7.23,3.62-10.97
		c3.36-11.99,5.23-24.34,7.91-36.48c2.67-12.1,5.23-24.27,7.46-36.5c1.03-5.67,3.2-10.97,5.05-16.38
		c1.76-5.13,2.53-10.56,4.56-15.69c3.67-9.29,5.78-19.19,9.67-28.46c1.72-4.1,2.1-8.8,3.31-13.16c0.66-2.37,1.34-4.72,2.05-7.07
		c0.05-0.69,0.25-1.42,0.66-2.15c0,0,0,0,0,0c1.63-5.17,3.45-10.28,5.63-15.24c0.08-0.19,0.17-0.35,0.26-0.5
		c0.06-0.12,0.11-0.23,0.18-0.35c0.02-0.04,0.04-0.08,0.06-0.12c0.08-0.21,0.15-0.42,0.23-0.63c0.79-2.04,1.55-4.03,2.27-6.02
		c-0.2-0.76-0.22-1.56,0-2.34c1.63-5.78,1.58-12.01,4.34-17.5c0.83-1.63,1.33-3.52,1.62-5.36c3.08-19.28,11.34-37.09,14.28-56.41
		c1.53-10.02,3.18-20.03,4.77-30.05c0.61-3.83,2.72-6.78,5.02-9.68c-0.7-1.94-2.93,1.2-3.3-0.98c-0.23-1.39,0.11-2.92,0.34-4.36
		c2.89-18.4,5.86-36.82,7.54-55.37c1.28-14.07,3.7-27.93,5.34-41.92c0.31-2.65,0.27-5.36,0.28-8.05c0.02-7.25-0.21-14.47,1.33-21.67
		c0.87-4.05-0.69-8.36-0.37-12.41c0.84-10.71-1.76-20.77-3.81-31.02c-1.22-6.11-4.95-9.26-10.03-10.87
		c-10.16-3.22-18.17,1.71-25.11,8.67c-6.16,6.19-11.79,12.98-17.59,19.56c-6.29,7.12-10.74,15.6-15.74,23.68
		c-7.66,12.38-14.38,25.31-20.53,38.6c-2.14,4.64-5.53,8.82-7.55,13.44c-2.93,6.71-6.63,12.96-9.44,19.71
		c-4.15,9.95-8.37,19.81-11.37,30.29c-2.86,9.97-8.31,18.9-12.1,28.52c-3.18,8.04-7.04,15.96-9.26,24.22
		c-3.34,12.39-8.14,24.17-11.95,36.34c-3.35,10.69-7.43,21.15-9.65,32.18c-2.14,10.66-5.82,20.81-8.7,31.21
		c-2.86,10.32-5.16,20.74-7.33,31.22c-0.29,1.42-0.25,3.03-2.07,3.47c-0.29,0.07-0.75,0.6-0.7,0.78c1.37,4.71-0.95,8.81-1.86,13.15
		c-1.05,4.98-1.86,9.98-3.39,14.86c-1.48,4.71-2.06,9.73-3.56,14.42c-6.17,19.25-12.11,38.61-18.98,57.59
		c-4.57,12.63-7.71,25.94-14.58,37.56c-2.56,4.31-5.72,8.22-7.46,13.07c-2.91,8.13-6.19,16.14-7.42,24.82
		c-0.23,1.64-0.91,3.21-2.31,3.32c-0.42,1.27-0.98,2.51-1.71,3.71c0.1,0.2,0.2,0.39,0.28,0.61c1.84,5.36-0.93,9.17-3.25,13.15
		c-1.05,1.79-2.86,3.08-4.06,4.8c-5.89,8.44-11.7,8-17.91-0.12c-2.49-3.24-6.48-4.87-7.9-9.16c-1.68-5.08-5.7-8.66-8.29-13.18
		c-3.04-5.31-3.2-11.46-4.51-17.25c-2.69-11.85-2.61-23.96-2.55-36.07c0.02-3.14,1.11-6.03,1.03-9.12
		c-0.02-0.56,0.16-1.12,0.75-1.26c0.74-0.17,1.27,0.25,1.42,0.98c0.27,1.3,0.21,2.75,2.08,3.38c0.54-2.69,0.37-5.18-0.93-7.53
		c-1.11-2.02-1.57-4.25-1.84-6.52c-0.11-0.9,0.26-1.6,1.17-1.78c1.01-0.2,1.22,0.43,1.4,1.36c0.3,1.57,0.7,3.13,1.28,4.6
		c0.34,0.85,1.26,1.6,2.17,1.27c1.14-0.42,0.88-1.79,0.43-2.41c-2.51-3.42-3.32-7.49-4.36-11.5c-0.29-1.12-0.68-2.55-2.33-1.76
		c-1.39,0.67-0.91,1.67-0.27,2.62c0.66,0.98,1.09,2.17-0.25,2.64c-1.56,0.55-1.5-1.08-1.59-2.03c-0.37-4.2-2.49-8.24-0.67-12.65
		c0.78-1.9-1.04-3.53-1.68-5.13c-1.83-4.54-1-9.38-2.16-13.98c-1.73-6.86-2.68-13.96-2.37-21.05c0.46-10.47,1.53-20.9,2.22-31.36
		c0.8-12.18,1.63-24.4,4.7-36.17c2.08-8.01,3.58-16.16,5.92-24.12c3.19-10.86,5.05-22.14,7.72-33.17
		c2.92-12.06,5.75-24.14,10.04-35.81c2.24-6.08,5.11-11.59,8.62-16.92c2.43-3.7,4.1-8,5.74-12.2c3.79-9.71,9.61-18.29,13.57-27.96
		c2.28-5.57,4.43-11.79,9.76-15.6c2.16-1.55,4.63-3.53,6.86-2.71c2.7,0.99,2.4,4.47,2.18,7.14c-0.57,6.8-1.18,13.51-3.58,20.07
		c-2.51,6.84-3.99,14.09-6.23,21.1c-3.75,11.7-11.31,20.25-19.13,28.71c-5.99,6.49-9.71,14.22-12.86,22.53
		c-4.5,11.86-6.01,24.41-8.13,36.78c-1.37,8.01-2,16.26-2,24.41c0,9.38-1.64,18.76-0.19,28.14c1.11,7.11,0.41,14.28-0.19,21.29
		c-1.01,11.99,0.26,23.85,0.31,35.77c0.03,8.14,3.06,16.16,1.8,24.21c-0.8,5.16,2.43,10.52-0.5,15.1
		c-5.93,9.26-1.43,18.64-1.05,27.99c0.16,3.89,1.38,7.84-1.13,11.61c-1.52,2.29,1.43,4.03,1.66,6.6c-2.07-0.35-2.5-2.27-4.24-3.18
		c0.34,3.41,1.22,6.35,3.29,8.5c1.77,1.84,3.44,3.77,5.08,5.73c1.6-0.14,3.19-0.11,4.8-0.02c-0.46-1.87,0.42-2.25,2.15-2.46
		c1.4-0.17,2.78-0.42,4.18-0.5c5.57-0.31,9.07-3.54,11.18-8.73c4.46-10.98,9.35-21.79,13.21-33c3.34-9.69,7.09-19.26,9.5-29.32
		c1.83-7.65,4.49-15.04,7.19-22.4c2.11-5.72,3.37-11.77,6.28-17.08c-0.75-1.1-1.82,0.15-2.77-0.87c3.01-1.44,4.62-3.77,4.39-7.47
		c-1.96,0.69-0.53,3.41-2.77,3.73c-0.37-5.87,2.53-9.72,7.52-12.98c-3.84,0.07-3.1-1.05-2.62-3.68c0.78-4.33,2.53-8.32,3.49-12.57
		c2.19-9.69,4.32-19.47,8.28-28.74c1.89-4.43,3.51-9.38,3.88-14.55c0.34-4.69,2.11-9.11,3.91-13.36c1.83-4.33,3.15-8.79,3.75-13.4
		c0.77-5.91,4.14-10.88,5.15-16.52c0.83-4.65,2.62-8.84,3.86-13.27c1.29-4.61,4.65-8.64,2.81-14.03c-0.3-0.86,0.4-2.83,1.14-3.23
		c6.24-3.32,5.22-10.11,6.85-15.56c1.43-4.78,3.17-9.44,2.85-14.81c-0.15-2.54,2.09-5.35,3.54-7.85c1.41-2.45,2.51-4.93,2.85-7.78
		c3-0.69,5.41-1.69,3.38-5.75c-0.49-0.98,0.16-2.08,0.62-3.06c1.87-3.93,4.37-7.7,5.29-11.86c0.47-2.15,1.72-4.25,1.35-7.08
		c-0.39-3,1.39-6.62,5.38-6.9c-0.12-1.93-2.19-0.39-2.14-1.94c0.04-1.1,0.74-1.6,1.73-1.81c0.42-0.09,1.56,0.32,0.84-0.95
		c-1.78-3.14-0.54-5.19,2.18-6.67c0.56-0.31,1.2-0.42,1.44-1.17c3.89-12.21,10.54-23.08,15.25-34.84
		c3.36-8.39,7.42-16.38,10.95-24.65c1.86-4.34,5.24-8,6.93-12.39c2.5-6.47,6.9-11.51,10.14-17.37c1.45-2.62,3.49-4.59,5.05-6.94
		c4.7-7.09,9.9-13.93,13.27-21.89c1.69-3.98,4.63-6.79,7.28-9.74c4.13-4.61,7.64-9.69,11.24-14.7
		c8.22-11.47,19.37-18.45,31.81-23.53c2.44-1,4.81-1.14,7.44-0.24c3.61,1.23,7.47,1.41,11.13,2.68c6.34,2.21,10.23,6.95,12.7,13.12
		c2.99,7.47,4.5,15.16,4.53,23.44c0.02,6.21,1.02,12.51,0.77,18.76c-0.51,12.77,0.36,25.61-1.46,38.32
		c-0.7,4.91-1.7,9.77-2.49,14.66c-2.27,14-4.23,28.1-7.08,41.95c-2.81,13.66-3.28,27.59-5.85,41.22
		c-1.76,9.33-0.53,18.77-0.92,28.14c-0.67,15.95-3.48,31.37-7.24,46.71c-1.5,6.09-2.77,12.24-4.12,18.37
		c-0.17,0.77-0.23,1.58-1.65,2.15c0.13-7.39,4.78-13.73,3.38-21.39c-1.87,1.52-1.86,3.52-2.18,5.24
		c-2.06,11.19-4.91,22.16-7.93,33.08c-0.55,3.32-1.07,6.65-1.68,9.96c-0.79,4.29-2.34,8.41-3.1,12.66c-0.1,0.56-0.27,1.05-0.49,1.47
		c-0.07,0.25-0.15,0.5-0.22,0.75c-0.42,2-0.96,3.94-1.56,5.84c-1.09,4.16-2.29,8.27-4.4,12.13c-1.9,5.26-3.28,10.55-5.82,15.55
		c-2.1,6.86-5.01,13.47-6.52,20.51c-2.67,12.52-4.73,25.22-8.04,37.55c-2.5,9.28-4.01,18.77-6.56,28.01
		c-0.03,0.13-0.1,0.26-0.1,0.39c-0.04,13.71-5.94,26.31-6.84,39.91c-0.36,5.45-1.56,10.95-4.5,15.82c-0.83,1.38,0.85,3.13,0.37,5.11
		c-2.59,10.65-4.5,21.5-7.38,32.05c-2.29,8.37-2.95,16.92-3.78,25.44c-0.34,3.54,0.41,7.53,2.06,10.92c1.3,2.68,3.08,5.03,6.56,4.26
		c0.45-0.1,1.22-0.11,1.39,0.16c2.93,4.61,4.78,0.97,6.14-1.19c6.92-10.97,11.94-23.04,17.66-34.7c3.26-6.66,6.85-13.19,9.6-20.08
		c2.79-7.02,6.23-13.73,8.78-20.85c0.94-2.63,1.73-5.12,3.76-7.29c1.49-1.59,0.98-4.58,2.02-6.91c2.38-5.36,5.17-10.49,7.56-15.82
		c6.18-13.76,13.08-27.16,18.44-41.34c4.06-10.75,7.07-21.8,10.3-32.83c2.7-9.22,6.01-18.22,7.94-27.71
		c1.51-7.43,2.7-14.93,4.89-22.2c2.95-9.8,4.64-20.01,7.62-29.73c2.79-9.12,4.05-18.75,7.83-27.44c1.55-3.57,2.61-6.99,3.02-10.77
		c0.04-0.39,0.17-0.8,0.36-1.14c6.51-11.4,9.17-24.44,14.09-36.51c6.39-15.69,11.34-31.93,17.17-47.82
		c1.9-5.18,2.89-10.83,6.33-15.38c0.77-1.02,0.62-2.81,0.89-4.25c0.72-3.81,1.08-7.72,3.5-10.96c0.81-1.1,1.13-2.85-0.17-3.56
		c-1.38-0.76-2.23,0.42-2.61,1.98c-0.55,2.26-2.26,3.94-2.69,6.38c-0.34,1.93-1.98,2.42-3.65,2.34c-0.39,2.84-0.9,5.67-1.65,8.46
		c0.07,0.08,0.14,0.15,0.21,0.24c0.99,1.36-0.03,2.73-0.74,3.65c-5.52,7.19-7.58,15.95-9.87,24.51
		c-4.18,15.65-9.74,30.73-15.68,45.71c-5.73,14.44-12.49,28.46-16.74,43.52c-1.88,6.66-3.63,13.38-5.2,20.13
		c-0.24,1.02-0.59,1.84-1.06,2.53c-0.58,4.12-1.65,8.06-3.06,11.87c0.24,0.45,0.32,1.11,0.19,1.88c-0.44,2.65-1.13,5.25-1.54,7.9
		c-1.69,10.91-3.21,21.88-6.02,32.54c-2.3,8.74-5.25,17.3-8.03,25.89c-0.78,2.41-1.68,4.77-1.97,7.33c-0.11,0.92-0.2,2.1-0.76,2.65
		c-2.47,2.46-3.94,5.37-4.4,8.89c-0.11,0.86-0.6,1.43-1.41,1.74c-2.6,0.99-2.62,3.01-2.41,5.56c0.39,4.79-0.3,9.74-2.93,13.57
		c-2.76,4.02-3.35,9-5.82,12.81c-4.76,7.33-7.15,15.75-10.87,23.53c-4.51,9.42-7.89,19.43-12.26,28.92
		c-2.49,5.4-3.17,11.83-7.92,16.09c-0.73,0.65,0.41,2.54-0.33,4.02c-4.67,9.39-8.8,19.12-13.91,28.24
		c-3.07,5.48-4.94,11.49-8.06,16.87c-0.6,1.03-0.95,2.36-1.78,3.06c-1.3,1.09-1.17,4.49-3.41,3.49c-2.52-1.12-5.86-1.81-6.47-5.61
		c-0.7-4.36-2.02-8.64-1.73-12.1c0.22-11.52,3.42-21.37,5.67-31.45c2.24-10.18,4.13-20.45,6.52-30.59
		c3.46-14.69,4.28-29.95,9.22-44.34c1.09-3.17,0.62-7.12,1.4-10.61c2.27-10.14,4.68-20.25,7.01-30.38c0.57-2.47,1.15-4.95,1.56-7.45
		c0.64-3.89,1.81-7.27,4.59-10.29c2.28-2.48,1.95-6.5,2.5-9.81c1.97-11.83,7.46-22.37,11.06-33.6c-0.72-1.66-0.68-3.68,0.73-5.43
		c0.46-0.57,0.9-1.15,1.34-1.72c0.63-1.79,1.45-2.94,2.47-3.44c0.89-1.31,1.75-2.63,2.57-3.98c0.13-1.39,0.32-2.74,0.57-4.06
		c-0.4-0.32-0.39-0.9,0.44-1.98c0.29-1.15,0.64-2.26,1.06-3.33c-0.03-1.16-0.18-2.41,0.08-3.55c1.96-8.49,4.86-16.63,7.55-24.86
		c3.48-10.62,7.38-21.09,9.16-32.29c1.05-6.58,2.9-13.05,4.5-19.52c1.69-6.82,1.54-13.83,2.85-20.65
		c1.19-6.17,0.34-12.44,1.15-18.63c0.18-1.37,0.43-2.59,1.18-3.51c-0.68-4.24-0.73-8.45-0.27-12.58c-0.08-3.08,0.91-6.08,1.32-8.97
		c0.78-5.42,0.83-10.89,1.62-16.32c2.08-14.3,3.64-28.7,5.36-43.06c2.09-17.4,5.82-34.57,6.12-52.25
		c0.28-16.53,1.54-33.12-1.25-49.45c-2.26-13.25-8.84-24.23-20.76-30.2c-6.88-3.44-14.06-5.42-21.84-0.55
		c-6.32,3.95-13.25,6.88-18.89,12c-6.18,5.6-13.38,10.83-17.19,18.14c-6.12,11.74-15.45,20.89-21.52,32.47
		c-4.4,8.38-11.05,15.02-15.73,23.17c-8.44,14.7-16.91,29.33-22.89,45.47c-3.74,10.09-8.12,20-13.29,29.43
		c-6.01,10.98-10.63,22.64-14.3,34.61c-1.71,5.58-3.84,11.08-4.97,16.87c-0.33,1.71-0.96,3.38-0.26,5.14
		c-4.59,4.27-7.16,9.75-8.31,15.97c-0.69,3.55-1.68,6.84-3.23,10.18c-5.12,11.04-9.38,22.41-12.41,34.41
		c-4.28,16.96-9.48,33.69-14.88,50.31c-4.13,12.7-7.58,25.6-11.25,38.42c-3.06,10.72-6.72,21.26-9.14,32.19
		c-2.05,9.25-4.67,18.36-7.28,27.47c-0.89,3.12-2.65,5.79-3.42,8.93c-0.61,2.49-2.06,4.77-1.61,7.53c0.09,0.5,0.03,1.21-0.25,1.56
		c-4.14,5.15-5.33,11.76-7.94,17.66c-2,4.51-4.27,8.83-4.83,14.02c-0.54,4.99-2.68,9.44-5.76,13.54c-1.29,1.72-1.02,4.83-3.36,6.27
		c-0.06,0.04-0.08,0.33-0.03,0.37c4.37,3.3-0.07,6.08-0.71,8.88c-0.77,3.33-2.13,6.81-4.16,9.41c-2.28,2.92-5.77,4.84-9.65,4.27
		c-3.13-0.46-4.36-3.51-4.75-6.2c-0.75-5.14-0.74-10.39-1.19-15.58c-0.89-10.18,0.07-20.31,0.25-30.47
		c0.18-9.78-0.74-19.58-1.35-29.36c-0.42-6.86-0.57-13.6,0.58-20.46c1-6.02,1.69-12.35,1.03-18.36
		c-1.14-10.37,1.22-20.29,2.15-30.39c0.33-3.64,0.59-7.2-0.07-10.82c-0.56-3.06-0.39-6.17-0.09-9.25c1.06-11.07,2.5-22.1,3.21-33.18
		c0.71-11.08,2.73-21.77,6.72-32.04c2.59-6.67,6.26-13,11.66-17.07c3.26-2.46,4.72-5.9,7.35-8.33c5.11-4.72,8.05-10.86,11.92-16.41
		c2.53-3.64,2.72-7.7,4.37-11.38c3.06-6.82,6.26-13.77,7.45-21.39c0.14-0.86,0.27-2.15,1.51-1.9c1.27,0.26,1.13,1.49,1.18,2.61
		c0.32,7.44-2.55,14.09-4.8,20.83c-3.14,9.4-7.73,18.24-9.7,28.12c-0.52,2.57-1.96,4.93-2.93,7.4c-1.12,2.86-1.42,5.5,1.53,7.53
		c0.92,0.63,1.52,1.75,2.5,2.93c1.24-2.23,0.99-4.41,0.39-6.33c-1.41-4.58,1.44-7.35,3.67-10.34c1.02-1.37,1.81-0.33,1.95,0.92
		c0.17,1.46,0.06,2.96,0.17,4.43c0.08,1.13-0.34,3.05,1.05,3.02c1.72-0.04,1.24-2.09,1.17-3.27c-0.15-2.4-0.69-4.78-0.91-7.18
		c-0.41-4.53-0.42-9.03,1.64-13.97c2.24,4.07,1.41,8.12,2.38,11.73c0.29,1.08-0.17,2.97,1.3,2.89c1.53-0.09,1.57-2.11,1.4-3.27
		c-0.45-3.03-0.11-6.13-1.29-9.11c-1.64-4.12-0.79-8.47-0.3-12.73c0.12-1.07,0.72-1.96,1.72-1.76c3.29,0.64,2.62-1.53,2.62-3.59
		c0-4.57-0.89-9.36,2.52-13.36c0.13-0.14,2.53-4.99-1.31-6.33c-0.21-0.08-0.45-0.75-0.36-1.04c1.56-5.34-2.34-10.24-1.05-15.6
		c0.43-1.78-0.32-3.58-2.54-3.67c-1.46-0.06-1.87-1.05-2.39-2.19c-3.22-6.98-6.38-8.89-13.63-8.46c-1.89,1.64-3.9,3.14-5.94,4.6
		c-0.72,0.98-1.64,1.68-2.84,2.01c-1.09,0.77-2.17,1.53-3.24,2.32c-0.44,0.9-0.83,1.78-1.16,2.6c-0.26,0.65-0.61,1.2-1.02,1.66
		c-1.3,6.2-4.2,11.73-7.2,17.42c-1.61,7.27-5.46,13.57-9.23,20.24c-1,1.78-2.62,2.49-4.23,2.42c0,2.46-0.31,4.82-2.22,6.76
		c-4.26,12.75-9.17,25.29-14.21,37.78c-0.91,7.43-2.13,14.78-5.25,21.71c-0.7,10.48-4.7,20.38-7.44,30.37
		c-4.83,17.64-9.95,35.1-11.02,53.56c-0.07,1.2-0.36,2.39-0.54,3.58c-0.36,2.41-0.5,3.25-1.5,3.73c-0.1,0.99-0.23,1.98-0.38,2.96
		c1.72,1.85,1.36,4.11-0.3,7.11c-1.01,1.82-0.22,4.71-0.3,7.11c-0.13,3.89,0.56,7.86-0.48,11.64c-0.41,1.5,1.28,5-2.85,4.09
		c-1.07-0.24,0.32,1.99-0.81,2.65c-0.43-0.35-0.86-0.69-1.31-1.04c-1.01,2.23-2.15,4.42-3.14,6.65c0.89,1.61,1.3,3.49,0.96,5.74
		c-0.49,3.35,0.9,5.77,3.04,8.24c3.58,4.12,5.78,8.99,5.94,14.83c0.13,4.76,0.29,9.49,1.36,14.24c1.1,4.92,2.1,10.32,1.26,15.15
		c-0.9,5.18-0.03,9.75,0.44,14.68c0.27,2.77,1.58,5.34,1.16,8.27c-1.21,8.55-0.53,17.06,1.8,25.32c0.83,2.95,2.02,5.82,2.57,8.85
		c3.24,17.93,12.6,31.98,25.08,44.05c1.7,1.64,3.89,2.49,6.12,3.21c4.25,1.37,8.64,1.55,13.01,1.86c0.67-0.32,1.49-0.46,2.47-0.35
		c2.3,0.26,4.62,0.16,6.91-0.19c1-2.68,2.99-3.83,5.45-4.23c0.34-1.34,1.07-2.59,2.06-3.36c11.1-8.56,1.02-24.43,0.06-35.49
		c-0.14-1.61,0.39-2.81,1.26-3.61c0.85-6.72,3.37-12.87,7.03-19.06c5.23-8.88,8.39-19.07,11.72-29.04
		c3.84-11.47,8.3-22.71,12.37-34.1c1.74-4.88,3.29-9.83,4.71-14.82c3.02-10.62,6.61-21.05,8.68-32c1.48-7.83,4.47-15.32,6.36-23.08
		c3.33-13.62,6.17-27.38,9.54-40.99c1.67-6.73,3.96-13.3,6.12-19.89c2.56-7.81,2.59-16.2,4.96-24c3.76-12.38,7.55-24.74,12.77-36.6
		c3.47-7.9,5.89-16.32,8.71-24.53c0.2-0.6,1.47-2.18-1.05-1.68c-1.55,0.31-0.54-1.52-0.4-2.31c1.55-8.52,5.16-16.24,8.63-24
		c5.8-12.95,12.18-25.57,16.17-39.42c3.67-12.73,9.37-24.68,15.32-36.43c6.64-13.09,14.02-25.72,21.23-38.46
		c7.88-13.95,16.12-27.73,27.08-39.16c7.47-7.79,14.23-16.3,22.2-23.62c5.57-5.12,15.25-4.41,18.06,4.69
		c5.3,17.18,7.43,34.46,5.88,52.41c-0.65,7.59,0.32,15.3-0.91,22.9c-3.27,20.17-4.83,40.56-7.13,60.86
		c-1.07,9.44-1.81,18.94-4.79,28c-0.78,2.38,0.37,4.78-0.43,7.13c-0.39,1.12-0.41,2.89-1.97,2.21c-0.56-0.24-1.12-0.38-1.69-0.45
		c-0.01,1.01-0.05,2.02-0.13,3.02c0.75,0.21,1.49,0.46,1.71,1.39c0.3,1.23-0.82,1.41-1.44,2.03c-0.24,0.24-0.49,0.48-0.73,0.72
		c-0.64,4.33-1.76,8.61-3.12,12.83c0.19,0.34,0.35,0.69,0.46,1.09c0.32,1.13,0.49,2.28,0.56,3.46c1.13,0.75,1.99,1.77,1.45,3.49
		c-3.71,11.64-3.57,24.18-7.43,35.74c-3.86,11.54-6.66,23.37-9.54,35.19c-0.18,0.76-0.6,1.32-1.06,1.84
		c-0.86,10.69-2.96,21.06-9.24,30.43c-0.11,0.52-0.29,1.08-0.58,1.72c-4.44,9.81-5.37,20.86-9.97,30.67
		c-1.53,3.25-1.28,7.33-1.76,11.01c-0.53,4.07-1.67,7.96-2.63,11.83c-2.56,10.33-5.36,20.6-9.34,30.51
		c-2.11,5.27-3.04,11.08-4.4,16.68c-2.48,10.22-4,20.68-6.02,30.99c-1.57,7.97-3.16,16.05-4.86,23.97
		c-2.4,11.21-5.49,22.34-8.52,33.43c-3.15,11.51-6.62,23.11-6.94,35.24c-0.12,4.62,0.37,9.4,1.87,13.9c0.21,0.64,0.47,1.26,0.65,1.9
		c1.23,4.42,1.46,6.3-0.25,7.4c0.29,0.71,0.58,1.41,0.87,2.12c0.33,0.13,0.65,0.29,0.97,0.54c-0.2,0.16-0.39,0.29-0.59,0.42
		c1.21,3.17,2.16,6.4,2.23,9.79c1.18,1.6,1.46,4.26,1.44,8.54c-0.01,1.74-0.33,3.49-0.18,5.21c0.25,2.8-0.47,5.46,0.62,8.48
		c0.96,2.66,3.11,1.64,4.24,3.31c6.72,9.9,23.87,11.42,32.09-0.56c0.81-1.2,1.86-2.22,2.74-3.36c0.66-0.85,1.2-1.78,2.49-1.24
		c1.94,0.81,2.24-0.36,2.08-1.99c-0.27-2.7,2.04-5.6,3.07-5.36c3.09,0.71,3.33-1.71,4.46-3.17c0.51-0.66,1.46-1.58,0.68-2.45
		c-0.83-0.93-1.59,0.08-2.24,0.68c-0.56,0.51-1.05,1.34-1.92,0.67c-0.77-0.6-0.34-1.54-0.29-2.27c0.23-3.24,1.45-6.28,1.95-9.43
		c0.02-0.14,0.05-0.25,0.08-0.38c-0.16-5.04,1.92-10.81,4.56-15.93c1.96-6.54,4.02-12.99,6.86-19.24
		c4.09-9.07,7.16-18.65,10.8-27.95c4.18-10.68,8.68-21.21,12.71-31.95c2.76-7.35,5.3-14.87,8.3-22.04
		c4.57-10.92,6.94-22.65,12.03-33.31c0.53-1.13,1.09-2.11,2.2-2.66c0.86-0.42,1.68-1.12,1.57-2.11c-0.67-6.28,3.44-11.13,4.43-16.91
		c0.27-1.61,1.31-2.49,2.69-3.51c3.35-2.48,4.2-6.88,5.7-10.63c2.57-6.41,4.49-13.12,7.03-19.55c3.73-9.44,8.24-18.56,11.52-28.16
		c2.52-7.39,3.69-15.29,5.9-22.85c2.48-8.46,3.64-17.24,4.98-25.97c0.06-0.38,0.15-0.73,0.28-1.06c0.21-7.39,1.02-14.69,3.9-21.13
		c1.15-4.55,2.31-9.11,3.94-13.46c2.69-7.18,4.58-14.63,7.28-21.78c2.58-6.85,4.07-14.05,6.68-20.93
		c3.29-8.68,5.49-17.83,7.87-26.87c2.01-7.64,4.48-15.1,6.94-22.57c0,0,0,0,0,0c1.02-9.57,4.51-18.4,9.14-26.82
		c0.5-1.76,1.15-3.47,1.92-5.17c0.69-4.43,2.41-8.85,4.52-13.07c0.06-1.83,0.44-3.76,1.12-5.82c5.82-17.59,13.51-34.21,23.04-49.82
		c9.6-15.72,17.58-32.37,26.38-48.55c2.47-4.52,4.33-9.41,6.45-14.14c1.14-2.56,2.27-5.13,4.12-7.23
		c7.07-8.01,12.15-17.54,18.17-26.36c2.12-3.1,4.6-5.78,7.27-8.24c4.02-3.7,7.63-2.89,9.26,2.34c2.2,7.08,4.8,13.94,5.42,21.66
		c0.85,10.5,1.35,21.02,1.42,31.5c0.07,10.75-1.26,21.53-3.07,32.13c-2.02,11.87-3.42,23.79-5.05,35.7
		c-0.93,6.83-2.51,13.68-3.79,20.52c-2.33,12.51-3.78,25.26-6.91,37.54c-3.54,13.89-5.26,28.19-9.25,41.95
		c-1.1,3.79-1.87,7.68-2.02,11.76c-0.35,9.67-2.38,19.09-5.02,28.35c-0.78,2.75-0.65,5.62-1.25,8.34
		c-1.92,8.74-3.38,17.59-5.17,26.36c-1.43,7.03-2.95,14.07-4.42,21.09c-1.54,7.33-3.23,14.64-4.96,21.92
		c-2.47,10.41-3.36,21.21-6.73,31.37c-5.15,15.52-7.4,31.77-10.84,47.69c-2.54,11.72-3.92,23.77-6.1,35.62
		c-0.96,5.21-3.04,10.06-3.1,15.64c-0.14,13.45,1.18,26.56,4.87,39.48c1.18,4.12,2.05,8.31,4.08,12.07c0.4,0.73,0.57,1.38,0.58,1.97
		c1.26,1.37,2.36,2.89,3.34,4.5c0.56,0.32,1.06,0.85,1.51,1.46c5.8,7.85,20.24,12.01,30.36,6.37c6.48-3.61,10.09-9.77,9.96-17.18
		c-0.1-5.42-1.72-10.79-0.51-16.23c0.68-3.08,1.02-6.53,2.47-9.2c0.03-0.15,0.05-0.3,0.08-0.45c0.3-1.51,0.94-2.88,1.65-4.21
		c0.06-0.18,0.14-0.36,0.2-0.54c0.03-0.57,0.11-1.13,0.24-1.68c-0.07,0.03-0.13,0.07-0.2,0.11c1.12-3.45,1.85-6.6,3.13-9.47
		c2.36-5.32,2.62-11.44,5.79-16.41c0.48-0.75,0.72-2.12,1.47-2.48c2.73-7.08,9.36-12.14,12.85-18.84c2.35-4.51,4.41-9.13,6.52-13.72
		c-0.03-0.82,0.11-1.71,0.53-2.63c0.6-1.33,1.16-2.99,1.78-4.7c0.08-1.44-0.11-2.88,0.22-4.13c1.66-6.45,3.19-13.01,6.02-19.09
		c4.62-9.92,7.58-20.53,10.37-31.09c3.57-13.49,8.65-26.36,13.24-39.44c2.95-8.43,5.75-16.93,7.68-25.67
		c3.32-15.05,7.69-29.79,11.51-44.69c2.26-8.8,4.77-17.63,6.4-26.49c2.22-12.12,5.5-23.98,7.47-36.13
		c1.02-6.26,4.16-11.94,4.68-18.21c0.58-7.05,1.91-13.77,4.35-20.33c1.81-4.86,3.87-9.73,4.54-14.91
		c1.29-9.97,1.68-20.08,3.29-29.97c1.61-9.88,2.22-20.06,5.93-29.47c1.14-2.89,1.89-5.82,2.36-8.89c0.8-5.21,2.17-10.21,5.72-14.2
		c1.02-1.14,1.57-2.58,1.66-4c0.27-4.6,3.31-8.39,3.31-13.07c0-1.01,0.56-2.07,1-3.03c0.04-0.09,0.1-0.17,0.15-0.25
		c0.96-2.94,3.02-5.68,5.97-6.72c1.68-0.59,3.41-0.55,4.9,0.02c1.61,0.33,3.14,0.98,3.46,3.21c0.1,0.21,0.19,0.43,0.27,0.66
		c0.17,0.47,0.29,0.96,0.4,1.45c0.11,0.05,0.24,0.08,0.41,0.05c3.29-0.66,3.8,1.99,5.14,4.08c7.63,11.95,14.79,24.13,19.66,37.69
		c0.72,2.02,0.75,4.16,2.03,6.19c4.52,7.14,9.11,14.39,9.01,23.55c0,0.48,0.18,1.19,0.51,1.42c2.85,1.95,2.86,5.08,3.09,8.09
		c0.27,3.47,0.78,7,0.48,10.43c-0.23,2.63,2.26,3.24,2.48,5.59c1.11,11.62,0.18,23.28,0.84,34.9c0.28,4.97,0.02,10.1-1.42,14.76
		c-2.87,9.3-5.74,18.64-9.77,27.51c-3.59,7.89-2.04,15.35,2.11,22.49c0.91,1.56,1.95,2.74,3.98,2.46c6.77-0.92,12.77-3.38,17.3-9.04
		c4.91-6.13,6.75-13.72,7.51-21.2c0.92-9.04,1.03-18.21,1.81-27.3C883.66,388.53,881.91,379.86,880.72,371.09z"/>
</g>
</svg>
