<?xml version="1.0" encoding="utf-8"?>
<!-- Generator: Adobe Illustrator 23.0.2, SVG Export Plug-In . SVG Version: 6.00 Build 0)  -->
<svg version="1.1" id="Capa_3" xmlns="http://www.w3.org/2000/svg" xmlns:xlink="http://www.w3.org/1999/xlink" x="0px" y="0px"
	 viewBox="0 0 1080 1080" style="enable-background:new 0 0 1080 1080;" xml:space="preserve">
<style type="text/css">
	.st0{fill:#220E34;}
</style>
<g>
	<path class="st0" d="M665.13,93.35c0.63-0.65,1.29-1.89,1.87-1.85c5.14,0.35,10.48-1.03,15.34,1.83c0.86,0.5,1.71,0.33,2.6,0.29
		c1.39-0.06,2.86-0.27,4.17,0.1c4.53,1.27,9.05,2.39,13.66,3.31c4.24,0.85,8.46,1.98,12.82,2.36c9.97,0.87,19.41,3.97,28.86,7.21
		c12.33,4.23,24.85,7.92,36.79,13.27c7.45,3.34,14.86,6.83,22.07,10.85c6.69,3.73,13.49,7.16,19.82,11.59
		c4.27,2.99,8.25,6.32,11.96,9.99c4.73,4.68,10.15,8.47,15.01,12.93c5.92,5.42,11.15,11.67,16.78,17.46
		c2.15,2.21,4.39,4.45,7.36,5.43c1.71,0.57,2.81,1.91,3.86,3.2c4.45,5.5,9.22,10.68,14.13,15.73c1.83,1.88,4.57,2.61,5.57,5.74
		c0.48,1.5,3.02,0.07,4.66,0.59c-1.51-11.76-3.79-23.17-4.16-34.83c-0.05-1.63-0.5-3.43,1.85-4.24c1.49-0.52,1.36-0.94,1.75-5
		c1.87,0.91,2.36,2.6,1.74,4.26c-2.55,6.79,0.84,13.32,0.6,20c-0.17,4.8-0.01,9.63,0.39,14.42c0.41,4.9,1.22,9.78,2.01,14.64
		c0.16,0.97,0.83,2.28,1.6,2.64c6.66,3.11,8.16,10.72,12.51,15.85c5.38,6.36,9.06,14.11,13.41,21.3
		c7.34,12.12,14.06,24.63,19.65,37.69c4.22,9.87,8.25,19.88,11.66,30.19c2.37,7.14,3.41,14.83,7.02,21.56
		c0.63,1.18,0.42,2.87,0.58,4.33c0.83,7.65,3.97,14.68,5.48,22.15c0.55,2.74,1.49,5.45,1.64,8.21c0.29,5.31,1.68,10.25,3.56,15.11
		c0.28,0.74,0.79,1.63,0.61,2.28c-1.53,5.82,1.25,11.07,1.81,16.6c1.09,10.78,2.85,21.46,2.54,32.42c-0.1,3.71-0.87,7.82,0.78,11.58
		c0.79,1.79-3.25,0.59-1.61,1.52c4.5,2.56-0.44,5.33,0.73,7.64c1.46,2.88,1.13,5.99,1.38,9.03c0.11,1.38-0.5,2.29-1.72,2.82
		c-0.62,0.27-1,0.5-0.42,1.42c1.1,1.75,1,1.82-1.62,2.82c3.61,2.04,0.85,5.3,1.69,7.77c1.42,4.16-1.74,4.6-3.8,5.85
		c0.37,2.06,2.23,0.48,2.9,1.82c-0.09,0.22-0.14,0.64-0.36,0.88c-0.64,0.7-3.29,0.91-0.43,2.34c0.72,0.36,1.44,0.93,0.91,1.85
		c-0.57,0.98-1.33,0.34-1.98-0.07c-1.35-0.85-1.48,0.12-1.62,1.17c-0.42,3.04-1.31,6.05-0.54,9.16c0.3,1.19,0.68,2.35-0.59,3.24
		c-1.14,0.8-1.19,2.24-1.01,3.3c1.06,6.4-1.54,12.34-1.85,18.54c-0.17,3.44-1.77,6.38-2.51,9.61c-1.41,6.1-2.36,12.35-3.94,18.29
		c-2.5,9.43-5.65,18.73-8.05,28.22c-1.48,5.84-3.3,11.49-5.3,17.15c-1.01,2.85-0.4,6.36-0.39,9.57c0.01,1.43-0.02,2.82-1.38,3.47
		c-3.66,1.74-4.61,5.41-5.28,8.88c-1.77,9.06-6.02,17.06-9.13,25.55c-0.73,1.98-0.87,4.26-1.8,6.1c-3.4,6.74-7.03,13.35-11.66,19.27
		c-1.81,2.31-3.39,4.66-3.97,7.69c-0.4,2.14-1.4,3.87-3.27,5.21c-2.79,1.99-4.35,5.18-6.21,8.07c-0.84,1.3-0.62,1.88,0.72,2.28
		c0.82,0.25,1.35,0.84,1.14,1.79c-0.22,0.99-1.1,0.9-1.83,1.11c-4.76,1.37-7.13,4.76-6.92,9.96c0.04,1.04-0.31,1.82-0.91,2.55
		c-0.5,0.62-1.25,1.8-0.68,2.04c2.99,1.24,0.05,5.38,3.13,6.61c0.83,0.33-0.2,1.29-0.69,1.88c-1.15,1.37-3.87,1.42-3.78,3.53
		c0.15,3.63-0.99,7.52,1.01,10.88c1.34,2.26,0.75,4.38,0.33,6.6c-0.23,1.22-0.51,2.52-2.08,2.31c-1.26-0.16-1.79-1.11-2.32-2.33
		c-0.84-1.96,1.07-5.04-2.24-6.13c-0.3-0.1,0.62-2.13,1.28-3.11c1.28-1.9,2.04-3.81-0.08-5.58c-1.12-0.93-0.33-1.51,0.07-2.33
		c1.12-2.26,2.16-4.56,3.16-6.87c0.29-0.66,0.78-1.63-0.38-1.95c-0.93-0.25-1.8-0.16-1.72,1.32c0.13,2.55-1.46,3.77-3.5,3.98
		c-3.77,0.39-2.82,4.31-4.26,6.36c-3.81,5.42-8.21,10.39-11.65,16.17c-1.5,2.52-4.75,4.11-6.82,6.73
		c-5.63,7.11-10.65,14.68-15.9,22.09c-2.95,4.16-6.51,7.86-9.85,11.7c-5.39,6.19-10.81,12.36-16.25,18.5
		c-3.34,3.77-6.66,7.5-10.46,10.85c-3.56,3.14-7.25,6.33-9.82,10.72c-1.12,1.92-3.37,4.01-4.94,4.93
		c-4.89,2.86-8.45,7.24-12.69,10.75c-11.3,9.35-22.79,18.44-34.22,27.61c-4.33,3.47-8.2,8.04-12.64,10.52
		c-4.49,2.52-6.39,8.02-11.78,9.2c-1.85,0.41-4.83,2.24-5.21,5.57c-0.21,1.81-1.81,1.79-3.01,1.82c-2.71,0.05-4.62,1.35-6.74,3.12
		c-3.57,2.98-7.68,5.24-11.59,7.76c-0.94,0.61-1.99,0.13-3,0.04c-2.63-0.24-5.22,0.25-7.31,1.87c-6.5,5.03-13.87,8.52-20.95,12.27
		c-17,9-34.27,17.57-52.22,24.31c-6.38,2.4-13.16,3.84-19.5,6.55c-4.24,1.81-8.41,3.78-12.88,4.94
		c-16.45,4.28-33.19,7.23-49.64,11.45c-7.71,1.98-15.33,0.54-22.99,1.43c-11.37,1.32-22.93,1.8-34.37,1.37
		c-14.87-0.56-29.7-2.4-44.55-3.61c-15.12-1.23-29.94-4.58-44.89-7c-7.62-1.23-14.87-4.8-22.47-6.35
		c-10.95-2.22-21.44-6.19-32.32-8.66c-5.86-1.34-11.32-4.29-16.61-7.38c-2.38-1.39-4.93-1.76-7.73-1.26c-3.07,0.55-5.86-1.3-8.11-3
		c-7.9-5.97-16.29-11.34-25.22-14.86c-7.55-2.97-13.13-8.62-19.61-12.86c-5.81-3.8-11.66-8.53-16.13-14.46
		c-0.31-0.42-0.7-0.8-1.12-1.09c-5.48-3.77-10.22-8.65-15.05-13.11c-4.69-4.33-10.38-7.63-14.09-13.55
		c-2.57-4.09-7.56-6.54-11.56-9.58c-1.03-0.78-2.05-1.4-2.88-2.51c-5.83-7.86-12.31-15.1-18.83-22.33
		c-4.59-5.09-8.62-10.79-12.96-16.17c-2.3-2.85-4.97-5.29-7.08-8.4c-6.34-9.36-12.95-18.56-19.13-28.01
		c-7.63-11.65-14.18-24.1-19.73-37.08c-4.13-9.67-7.26-19.72-10.69-29.65c-2.21-6.38-2.76-13.37-4.93-19.86
		c-0.89-2.64-1.49-5.31-4.14-6.93c-1.79-1.1-1.79-3.09-0.63-4.95c1.28-2.04,0.84-3.92-0.12-6.05c-1.07-2.38-1.61-5.02-2.56-8.12
		c-1.61,2.66-1.18,5.11-0.73,7.23c1.11,5.26-0.45,11.05,2.85,15.86c-2.31,3.77,0.73,7.39,0.27,11.11c-0.1,0.8-0.01,1.81-1,1.86
		c-1.16,0.06-0.75-1.01-0.9-1.74c-3.25-15.56-3.55-31.35-3.54-47.18c0-1.28-0.19-2.37-0.78-3.45c-0.72-1.32-1.06-2.73-0.8-4.26
		c1.49-8.83,1.57-17.67-0.07-26.49c-0.92-4.92-0.49-9.92-0.38-14.84c0.17-7.4-1.9-14.47-1.65-21.98
		c0.44-13.21,0.15-26.49-0.48-39.73c-0.17-3.59,0.2-7.14-1.04-10.64c-0.31-0.88,0.14-2.1,0.34-3.14c0.15-0.79,0.44-1.66,1.32-1.77
		c0.97-0.13,1.16,0.88,1.55,1.53c0.63,1.06,0.77,2.2,0.71,3.47c-0.35,7.15,1.03,14.16,1.68,21.23c0.09,0.95-0.2,2.54,1.22,2.52
		c1.19-0.01,1.35-1.5,1.55-2.5c2.77-14.4,6.99-28.44,11.07-42.41c5.94-20.35,11.84-40.82,20.42-60.23
		c7.28-16.49,14.01-33.26,21.87-49.46c3.45-7.1,6.68-14.35,11.51-20.62c0.85-1.1,1.19-2.66,1.65-4.05
		c2.89-8.71,10.26-14.66,13.05-23.33c0.8-2.47,3.57-3.99,2.84-7.05c2.54-0.49,3.18-2.99,4.61-4.7c1.9-2.26,3.01-4.51,1-7.87
		c2.62,1.04,5.12,2.87,4.72-1.86c-0.14-1.66,1.98-0.42,2.93-1.69c2.04-2.74,3.65-5.79,5.64-8.48c4.29-5.8,6.47-13.19,12.36-17.82
		c1.87-1.47,2.62-4.23,4.34-6.12c1.31-1.44,2.17-3.23,4.15-3.96c1.33-0.49,1.82-2.11,1.79-3.32c-0.04-1.75,1.4-2.26,1.79-3.11
		c1.95-4.26,8.18-4.31,8.44-10.12c0.11-2.54,2.47-4.1,4.38-5.28c1.75-1.08,2.98-2.46,3.96-4.17c1.54-2.67,3.33-4.87,6.07-6.43
		c3.11-1.77,4.5-5.4,6.5-8.32c1.45-2.11,3.16-3.64,5.25-5.08c2.08-1.42,3.47-3.94,5.18-5.97c0.93-1.1,1.74-2.37,2.83-3.25
		c7.29-5.93,11.43-15.04,19-20.69c0.39-0.29,0.76-0.81,0.88-1.29c1.25-4.92,5.63-6.57,8.51-9.65c1.65,1.3-1.48,2.65,0.35,3.43
		c1.38,0.59,2.86,0.22,4.31-0.79c3.25-2.26,4.71-5.64,6.14-9.18c0.27-0.67-0.61-4.22,1.97-1.3c1.39-2.42,4.32-0.61,5.91-2.38
		c1.93-2.14,4.59-3.76,6.08-5.92c1.21-1.75,2.34-3.45,3.97-4.78c0.8-0.66,1.65-1.56,2.7-1.34c2.2,0.45,2.66-0.95,2.93-2.68
		c0.41-2.61,1.67-4.15,4.36-4.03c3.91,0.18,5.79-3.58,8.82-5.19c6.9-3.68,13.72-7.76,19.92-12.59c9.57-7.46,19.96-13.1,30.75-18.21
		c5.64-2.67,10.86-6.31,16.37-9.31c6.99-3.81,14.47-6.48,21.61-9.93c9.33-4.5,18.52-9.62,27.99-13.39
		c7.32-2.91,14.38-7.03,22.52-8.33c6.79-1.08,13.51-3.66,20.17-5.86c5.2-1.72,10.58-2.6,15.68-4.78
		c11.16-4.75,23.17-6.19,34.87-8.62c7.67-1.6,15.43-3.11,23.5-3.24c8.65-0.15,17.44-1.35,26.15-2.4
		c11.79-1.42,23.77-2.21,35.75-1.31c3.92,0.3,8.03,0.39,12.03-1.09c2.56-0.95,5.71-1.13,6.87,2.82c-2.1,0.21-4.1-1.26-6.63-0.56
		c2.66,4.03,7.16,3,10.88,5.22c-3.75,0.22-6.78,0.27-9.82-0.41c-7.76-1.74-15.59-2.79-23.55-2.6c-8.4,0.2-16.77,0.79-25.15,1.24
		c-17.03,0.93-33.69,5.04-50.69,5.58c-2.89,0.09-4.18,2.98-6.96,2.87c-2.14-0.09-4.31,0.37-6.45,0.73
		c-11.11,1.87-21.86,5.33-32.67,8.52c-9.18,2.71-18.66,4.72-27.5,8.09c-6.84,2.6-14.71,3.58-20.45,9.4c0.07,1.1,1.82-0.42,1.89,1.46
		c-3.89,0.79-7.75,2.51-11.53,3.54c-8.43,2.3-15.11,8.99-23.97,9.83c-0.17,0.02-0.44,0.4-0.43,0.59c0.13,2.54-1.71,1.66-2.93,1.98
		c-1.46,0.39-3.11,0.52-4.16,1.81c-2.81,3.45-6.67,5.4-10.52,6.59c-6.06,1.87-11.05,5.89-16.84,8.21c-2.27,0.91-4.15,3.19-6.15,3.82
		c-1.47,0.47-3.06,0.62-4.59,1.6c-5,3.2-9.62,6.95-14.3,10.62c-3.05,2.39-6.98,3.28-9.48,6.57c-2.66,3.5-6.78,5.08-9.93,7.95
		c-3.87,3.52-8.89,5.07-12.88,8.35c-7.49,6.16-14.85,12.52-22.43,18.55c-7.36,5.85-14.13,12.43-21.29,18.51
		c-2.87,2.43-4.49,6.55-6.99,8.29c-5.43,3.78-9.67,8.62-14.25,13.21c-13.28,13.31-26.35,26.83-37.81,41.95
		c-7.46,9.85-15.11,19.55-22.48,29.47c-6.22,8.37-10.65,18.01-16.61,26.55c-4.6,6.58-8.54,13.59-12.28,20.64
		c-2.89,5.46-5.82,10.97-8.93,16.26c-3.42,5.83-6.38,11.89-9.62,17.8c-0.51,0.92-0.69,2.2-1.8,2.44c-2.42,0.53-3.14,2.57-3.91,4.55
		c-5.15,13.24-10.26,26.5-15.42,39.73c-0.87,2.23-1.55,4.69-2.95,6.5c-4.3,5.55-6.08,12.3-8.39,18.74
		c-4.43,12.35-6.63,25.37-9.75,38.11c-1.77,7.24-4.32,14.25-5.79,21.62c-1.4,6.98-4.36,13.61-3.9,20.99c0.04,0.7-0.4,1.77-0.93,2.11
		c-2.66,1.66-2.84,4.59-2.84,7.1c0.01,5.66-1.73,11.01-1.93,16.67c-0.23,6.45-1.74,12.92-1.61,19.42
		c0.28,13.47,0.42,26.97,2.17,40.37c0.96,7.31,2.21,14.63,2.51,21.98c0.31,7.46,4.72,13.47,5.49,20.69
		c1.01,9.5,3.36,18.73,5.95,27.85c2.58,9.06,4.65,18.13,9.46,26.64c4.89,8.68,9.43,17.8,13.55,27.08
		c3.81,8.59,8.81,16.65,13.74,24.63c6.41,10.38,14.58,19.28,23.03,27.82c9.45,9.55,18.75,19.29,28.74,28.19
		c6.38,5.69,13.8,10.12,20.91,14.88c9.57,6.41,19.88,11.25,30.6,15.14c1.06,0.39,1.99,0.92,3.21,0.02c2.75-2.04,8.85-1.5,10.04,1.48
		c1.84,4.6,5.23,4.14,8.65,4.33c1.4,0.08,2.94-0.24,4.09,0.7c4.33,3.55,9.7,3.8,14.68,5.26c11.49,3.37,23.33,4.32,35.15,5.4
		c7.2,0.66,14.27,2.28,21.6,2.03c5.98-0.21,12.22-0.99,17.87,2.37c0.75,0.45,1.48,0.04,1.91-0.79c0.33-0.62,1.23-1.31,1.46-0.86
		c1.62,3.2,4.94,0.35,7.05,2.37c1.19,1.14,3.37,0.84,5.15,1.03c4.05,0.45,8.07-0.04,12.1-0.01c5.99,0.05,11.97,0.09,17.88-1
		c6.51-1.2,12.99-2.55,19.46-3.96c11.35-2.47,22.85-4.2,34.07-7.35c0.51-0.14,1.01,0.05,1.34,1.39c-5.82,2.39-10.59,7.92-17.84,6.54
		c-1.91-0.36-3.59-0.05-5.51,0.34c-9.05,1.87-17.9,4.79-27.09,5.91c-1.15,0.14-2.35,0.25-3.19,1.18c-3.68,4.08-8.93,4.04-13.66,6.55
		c0.5-2.01,2.29-1.65,2.65-3.6c-10.1-0.28-19.66,1.17-28.97,7.63c1.6-4.56,5.39-4.07,7.97-6.92c-6.87,0.04-13.01,0.36-18.97-1.05
		c-3.03-0.72-5.23,0.27-7.22,2.41c-1.28,1.38-2.53,2.75-4.73,3c0.36-2.21,2.5-3.17,2.28-5.13c-4.64-0.57-9.12-1.47-13.49,1.67
		c0.92-4.36-0.33-5.59-4.08-4.39c-2.06,0.66-4.1,3.03-4.72-1.44c-0.12-0.84-1.57-0.54-2.43-0.73c-3.37-0.72-6.28,1.02-10.52,2.76
		c4.22-4.4,1.47-4-0.81-4.59c-3.06-0.78-5.48-0.22-7.71,2.04c-0.95,0.96-2.03,1.86-3.78,1.43c0.38-0.58,0.56-0.92,0.81-1.2
		c0.76-0.87,2.32-1.58,2-2.74c-0.45-1.63-2.21-0.65-3.37-0.96c-4.04-1.11-8.24-0.98-12.31-2.47c-4.57-1.67-9.48-3.1-14.25,0.56
		c-4.01,3.08-8.45,5.52-12.67,8.31c-1.22,0.81-3.22,1.51-2.03,3.56c1.17,2.02,2.62,0.63,3.9-0.27c4.75-3.34,9.48-6.72,14.28-9.97
		c0.88-0.6,2.16-1.78,3.06-0.82c1.03,1.09-0.08,2.5-0.62,3.67c-0.34,0.76-1.02,1.25-1.81,1.34c-3.48,0.41-5.6,2.95-7.77,5.41
		c-0.71,0.81-1.36,1.71-2.56,1.28c-1.1-0.4-2.14-0.4-2.58,0.84c-0.55,1.52,0.89,2.41,1.48,3.5c0.65,1.21,1.51-0.05,2.22-0.45
		c4.79-2.78,9.57-5.59,14.37-8.36c1.27-0.73,2.55-1.74,4.62-0.17c-3.62,1.67-5.08,5.97-8.36,6.73c-3.24,0.75-4.95,3.72-7.99,4.42
		c-1.02,0.23-0.59,1.05,0.01,1.81c3.57,4.46,8.71,6.46,13.21,9.45c1.18,0.78,2.15-0.13,3.18-0.68c0.83-0.45,1.68-0.7,1.87,0.87
		c0.43,3.59,5.59,5.97,8.55,3.98c0.81-0.54,1.45-1.79,2.6-0.82c0.57,0.48,0.92,1.19,0.66,2.13c-1,3.55,1.07,2.76,2.84,2.09
		c1.77-0.66,2.77-2.8,4.92-3.03c0.42,1.9-2.01,3.83,0.11,5.59c2.13,1.77,8.35,2.38,10.57,1.04c1.21,5.46,2.76,5.99,7.61,2.88
		c1.96-1.26,3.9-2.73,7.09-3.44c-1.02,1.29-1.48,1.9-1.97,2.48c-1.26,1.52-4.36,1.43-4.33,3.52c0.04,2.62,3.12,1.48,4.65,2.49
		c0.11,0.07,0.32,0.1,0.33,0.18c0.64,3.7,2.13,1.09,3.34,0.5c2.17-1.06,3.37-3.24,5.06-4.86c0.66-0.64,1.01-2.04,2.41-1.29
		c0,0.29,0.1,0.61-0.02,0.78c-0.43,0.66-0.9,1.29-1.4,1.89c-4,4.72-3.86,4.69,1.4,6.99c2.63,1.15,4.06,0.89,5.81-1.46
		c1.68-2.25,3.89-4.11,7.77-4.81c-1.63,2.25-2.62,3.92-3.9,5.29c-1.27,1.36-1.75,4.08-1.28,4.42c1.34,0.97,3.3,1.59,5.05,0.69
		c1.01-0.52,1.83-1.44,2.73-2.2c2.43-2.04,4.86-4.1,7.3-6.14c0.25,0.26,0.5,0.53,0.75,0.79c-1.99,2.12-3.93,4.29-5.97,6.36
		c-2.24,2.27-1.69,3.57,1.13,4.4c3.07,0.9,6.05,2.29,9.17,2.81c3.69,0.62,7.81,1.74,10.57-2.34c2.74-4.05,5.84-7.75,9.09-11.33
		c0.76-0.83,1.46-2.43,2.7-1.5c1.14,0.85,0.29,2.36-0.35,3.26c-2.82,3.97-6.04,7.57-9.9,10.46c-0.8,0.6-2.14,0.83-1.06,2.29
		c1.22,1.65,7.84,1.66,8.99-0.07c4.48-6.71,11.07-11.05,16.57-16.61c0.7-0.71,1.7-1.85,2.61-0.86c1.21,1.33-0.33,2.26-1.1,2.87
		c-5.35,4.27-9.07,10.11-13.57,15.2c-1.43,1.62-1.6,2.73,0.87,3.17c4.01,0.71,8.01,1.55,12.03,2.22c4.78,0.8,9.67,1.83,12.39-4.26
		c0.29-0.64,1.16-1.03,1.81-1.46c1.22-0.82,2.68-2.9,3.85-1.5c1.15,1.37-0.98,2.69-1.92,3.77c-2.66,3.08-2.24,5.4,1.57,6.6
		c1.93,0.61,4.02,0.8,6.04,0.9c4.19,0.2,8.39,0.3,12.56,0.53c10.71,0.58,21.42,0.31,32.06-0.36c11-0.7,22.07-0.58,33.02-2.74
		c9.18-1.81,18.62-0.97,27.91-3.43c12.96-3.43,26.37-4.89,39.43-7.98c5.11-1.21,10.34-2.45,15.28-4.73
		c4.46-2.06,9.69-2.25,13.48-6.03c7.23,0.94,12.83-4.69,19.67-5.44c1.32-0.14,2.55-1.16,3.82-1.79c5.79-2.85,11.27-6.39,17.4-8.45
		c2.3-0.77,4.78-0.61,7.05-1.75c7.46-3.75,15.08-7.16,22.45-11.09c6.57-3.5,12.7-7.98,19.39-11.19c6.39-3.07,12.52-6.83,18.31-10.65
		c6.15-4.05,12.5-8.46,17.66-14.35c4.51-5.14,10.14-9.13,15.63-13.17c7.49-5.52,14.4-11.88,21.79-17.51
		c9.11-6.95,17.07-15.25,25.51-22.94c4.14-3.78,8.18-7.91,12.04-12.11c4.87-5.3,10.05-10.29,15.14-15.32
		c6.02-5.94,10.1-13.44,15.81-19.62c2.74-2.96,5.6-6.2,7.67-9.92c2.95-5.32,5.53-10.75,9.17-15.77
		c6.04-8.33,13.01-15.92,18.12-25.06c2.76-4.93,6.05-9.59,9.13-14.33c2.9-4.47,4.74-9.68,8.71-13.48c3.06-2.93,6.19-6.16,5.87-11.24
		c-0.05-0.8,0.58-1.56,1.35-1.81c2.07-0.68,2.85-2.59,3.79-4.32c3.04-5.6,5.29-11.55,8.68-17.06c9.92-16.12,17.33-33.65,23.48-51.74
		c3.34-9.82,6.68-19.66,9.02-29.81c2.55-11.04,3.83-22.39,6.82-33.33c1.11-4.06,0.31-8.48,1.41-12.3
		c3.18-11.05,4.12-22.45,6.08-33.69c0.96-5.52,1.69-11.28,1.58-16.58c-0.15-7.15,1.92-13.89,1.88-21.02
		c-0.03-4.97,1.76-10.39,1.71-15.74c-0.01-1.26,2.49-4.57-1.95-3.07c-0.87,0.3-0.73-1.4-0.3-1.86c2.59-2.79,2.13-5.9,1.85-9.47
		c-0.55-6.75-0.27-13.59-0.14-20.39c0.04-2.26-1.59-3.95-1.4-6.19c0.53-6.25-0.49-12.46-0.65-18.69c-0.24-9.78-2.19-19.49-4.9-28.88
		c-1.5-5.21-1.08-11.42-6-15.2c-0.18-0.13-0.06-0.69-0.08-1.05c-0.24-5.47-1.58-10.75-4.51-15.16c-2.71-4.08-2.65-9.14-5.15-13.19
		c-0.18-0.29,0.08-1.06,0.35-1.44c0.63-0.88,1.58-1.91,0.32-2.68c-1.36-0.82-2.74,0.36-3.12,1.52c-1.89,5.78-4.69,11.33-3.16,17.9
		c0.65,2.81,2.49,5.58,1.26,9.22c-0.92-1.71-1.61-3.06-2.36-4.38c-0.62-1.11-0.05-2.97-1.62-3.4c-1.52-0.41-1.22,2.25-3.03,2.19
		c0.62-3.49,0.9-7,1.92-10.24c1.18-3.75-2.72-6.55-1.48-10.46c3.1,3.91,4.88,4.24,5.55,1.17c1.3-5.9,3.23-11.84,0.89-18.03
		c-0.6-1.58-0.9-3.16-2.81-3.28c-1.71-0.11-2.43,1.11-2.92,2.64c-0.43,1.35-2.45,2.71-2.59,2.11c-0.7-3.15-6.08-2.02-4.63-6.44
		c-3.46,0.53-1.47,5.38-5.44,5.85c4.05-7.14,1.85-14.27,1.3-21.35c-0.07-0.92,0.31-1.97-1.04-2.16c-1.08-0.15-1.69,0.5-2.07,1.42
		c-1.19,2.85-2.06,5.84-2.12,8.95c-0.07,3.43-1.34,6.04-4.34,8.66c0.97-4.17,2.06-7.61,2.51-11.14c0.56-4.37,4.48-8.55,0.87-13.26
		c-0.43-0.56,0.19-0.94,0.67-1.11c2.66-0.97,2.35-3.45,2.73-5.68c0.73-4.22-3.1-6.96-3.11-10.93c0-0.04-1.14-0.07-1.75-0.11
		c0.84,3.12-3.04,4.06-2.93,6.31c0.14,2.65-1.33,4.11-2.22,6.08c-1.15,2.54-2.09,5.19-2,8.1c0.15,4.66,0.53,9.17,1.66,13.82
		c0.9,3.74,1.68,7.23,3.69,10.49c0.91,1.49,0.17,3.42-0.17,5.13c-0.14,0.69-0.39,1.36-1.2,1.25c-0.76-0.1-0.86-0.77-1.02-1.47
		c-1.32-5.82-2.69-11.64-4.06-17.45c-0.15-0.65-0.16-1.46-0.54-1.9c-3.09-3.59-2.85-8.02-2.71-12.33c0.06-1.84-0.29-2.71-2-2.24
		c-2.07,0.56-2.27-0.17-1.61-1.99c1.45-4.03,0.13-7.85-1-11.63c-0.35-1.17-1.37-2.02-2.67-1.91c-1.29,0.12-2.06,1.05-2.29,2.35
		c-0.26,1.42,0.35,2.31,1.68,2.69c0.89,0.26,1.65,0.71,1.72,1.82c-0.67,0.86-1.68-1.07-2.39,0.62c4.04,1.87,2.53,5.51,1.94,8.51
		c-0.57,2.94-0.61,5.04,1.97,7.01c2.16,1.65,1.98,2.57,0.13,4.8c-0.55,0.67,0.05,1.23,0.03,1.82c-0.14,5.13,2.22,10.01,1.89,15.02
		c-0.71,10.89,1.53,21.46,2.32,32.18c0.47,6.38,0.93,12.76,1.3,19.15c0.47,8.15-0.55,16.24-0.35,24.38c0.12,4.59,0.1,9.11-0.91,13.8
		c-1.33,6.15-1.49,12.72-1.25,19.07c0.19,4.95-0.31,9.91-1.07,14.54c-1.38,8.5-4.2,16.77-6.82,25c-2.13,6.69-1.99,13.43-1.53,20.27
		c0.08,1.23,0.52,2.3,1.19,3.35c0.49,0.75,2.7,0.88,1.03,2.59c-0.51,0.53-1.15,1.75-1.71,0.95c-0.75-1.06-2.89-1.5-2.14-3.25
		c0.76-1.77-0.02-2.69-0.95-4.07c-2.95,4.71-1.21,11.21-6.01,14.84c1.83-4.65,1.24-9.75,2.7-14.46c0.71-2.29,0.97-4.55-1.99-5.51
		c-1.28-0.41-1.2-1.49-0.87-2.65c0.55-1.96,1.02-3.95,1.53-5.98c1.31,0.4,0.84,2.68,2.64,1.92c1.66-0.7,2.26-2.19,2.6-3.74
		c0.81-3.66,1.4-7.37,2.17-11.04c0.52-2.46,1.5-4.86-0.26-7.27c-0.59-0.81-0.59-1.91,0.62-2.24c2.35-0.65,1.75-2.58,1.81-4.26
		c0.18-5.64,0.64-11.27,0.93-16.88c0.14-2.71,2.23-5.04,1.2-7.63c-1-2.48-0.2-4.53,0.5-6.75c0.4-1.26,1.07-2.51,0.75-3.9
		c-1.44-6.14-1.69-12.45-0.8-18.56c0.42-2.91-1.13-6.33,1.84-9.1c1.17-1.1,1.91-4.73-0.18-6.22c-1.83-1.3-2.38,1.69-3.59,2.64
		c-0.15,0.12-0.46,0.02-0.88,0.02c-1.34-4.09,4.77-5.78,1.73-10.83c2.33,1.5,2.03,3.39,3.74,3.89c0.21-3.13-0.31-5.86-0.91-8.96
		c-0.97,1.42,0.12,3.56-2.1,3.7c-1.31-4.4-2-8.79-1.94-13.4c0.07-5.73,0.39-11.5-1.3-17.17c-0.38-1.27-1.53-2.84-0.61-4.53
		c2-3.66-0.01-7.37,0.1-11.03c0.12-4.03-2.21-7.36-2.3-11.08c-0.11-4.09-1.83-7.71-2.1-11.69c-0.09-1.32,0.02-3.19-0.72-3.82
		c-3.19-2.74-2.15-6.89-2.77-10.13c-0.81-4.28-0.34-8.62-3.24-12.47c-1.37-1.81-1.79-4.6-2.16-7.03c-1.18-7.57-3.01-14.79-6.4-21.74
		c-2.16-4.44-4.33-8.94-6.3-13.49c-1.74-4.01-4.97-7.02-6.4-11.07c-1.21-3.42-3.1-6.51-4.97-9.3c-3.63-5.44-7.35-10.89-10.8-16.41
		c-4.76-7.61-10.96-13.71-16.83-20.09c-5.81-6.3-12.63-11.71-20-15.95c-2.49-1.43-3.09-4.31-5.6-5.46c-5.26-2.4-9.44-6.79-14.93-8.9
		c-1.83-0.7-2.8-3.38-5.32-3.3c-0.69,0.02-1.15-0.63-0.58-1.42c0.66-0.94,0.24-1.89-0.58-1.73c-3.66,0.73-6.6-1.83-9.89-2.21
		c-5.39-0.63-10.04-2.89-14.54-5.69c-3.64-2.27-7.59-3.74-11.42-5.54c-6.96-3.27-14.99-3.41-21.4-8.27
		c-1.16-0.88-2.69-1.05-4.08-0.75c-3.72,0.81-7.05-0.47-10.35-1.91c-1.18-0.51-2.29-1.18-3.65-0.99c-4.95,0.67-9.33-2.22-14.13-2.54
		c-1.76-0.12-3.83-0.06-5.19-0.99c-8.6-5.92-18.62-4.22-27.98-5.59C669.62,95.55,667.64,94,665.13,93.35z M898.05,233.39
		c-2.12-0.14-3.1-1.2-3.86-2.69c-0.49-0.95-1.29-1.44-2.14-0.49c-0.76,0.86-0.41,1.83,0.34,2.45c0.68,0.57,1.68,0.74,2.29,1.36
		c0.87,0.88,5.11,1.07,0.83,3.45c-0.64,0.36,0.03,1.18,0.12,1.8c0.47,3.24,2.75,5.3,4.37,7.81c0.93,1.45,2.85,2.64,1.32,5.02
		c-0.68,1.06,0.41,1.97,1.25,2.59c0.72,0.53,1.93,0.38,1.91-0.36c-0.05-2.23,3.33-4.68-0.33-6.7c-3.56-1.97-4.26-4.89-2.54-8.65
		c0.65-1.42,0.18-3.01-0.26-4.33c-0.91-2.75-1.27-5.35-0.18-8.13c0.75-1.91-0.56-2.66-2.01-3.11c-1.58-0.49-2.16,0.3-2.66,1.88
		C895.56,228.25,896.98,230.68,898.05,233.39z M923.88,264.23c-4.69,0.54-5.75,4.13-6.11,7.94c-0.37,3.9,1.36,7.45,2.11,11.6
		c1.34-1.18,1.59-2.35,1.97-3.46c1.76-5.15,1.94-10.7,3.92-15.84c0.92-2.38-1.7-4.53-1.99-7.07c-0.11-0.93-1.49-0.98-1.84-0.28
		c-0.93,1.84-2.26,3.91-2.13,5.79C919.98,265.43,922.35,262.4,923.88,264.23z M914.77,242.92c-5.8,10.1-5.66,12.59,0.34,14.01
		c-2.46-0.21-3.12,2.08-4.38,3.4c-3.06,3.22,2.1,2.07,2.07,3.93c-0.02,0.84,0.72,1.68,1.05,2.55c0.26,0.68-0.14,1.86,0.93,1.91
		c1.11,0.05,1.43-1.06,1.56-1.97c0.49-3.45,1.07-6.91,1.21-10.39c0.06-1.48-1.09-3.02,0.45-4.35
		C913.41,250.93,914.91,247.01,914.77,242.92z M891.3,217.9c-0.4-0.95-1.12-1.9-1.12-2.86c-0.01-1.84,0.15-3.8-2.23-3.6
		c-2.7,0.22-1.16,2.67-1.59,4.11c-0.06,0.19-0.38,0.28-0.58,0.43c-1.15-0.54-0.59-1.62-0.72-2.48c-0.3-1.98-0.48-3.98-0.93-5.92
		c-0.25-1.05-1.1-2.08-2.26-1.59c-1.13,0.48-0.46,1.65-0.23,2.48c0.58,2.01,1.92,3.77,1.56,6.1c-0.21,1.41,0.38,2.56,1.73,3.25
		c1.4,0.72,1.65,2.13,1.96,3.65c0.25,1.26,0.63,2.84,2.4,3.5c0.22-0.85,0.4-1.47,0.52-2.09c0.24-1.24,0.6-2.73,2.09-2.14
		c2.09,0.83,0.39,1.69-0.23,2.56c-0.91,1.27,0.81,2.13,0.61,3.34c-0.01,0.06,0.64,0.4,0.9,0.32c1.16-0.32,1.5-1.24,1.55-2.45
		c0.08-2,0.61-3.99,0.05-5.99c-0.28-0.98-0.03-2.3-1.33-2.64C891.97,215.5,892.48,217.51,891.3,217.9z M265.62,911.92
		c3.31-2.18,7.19-4.64,10.95-7.29c0.99-0.7,2.16-1.99,1.38-3.37c-0.81-1.43-2.44-0.84-3.44-0.21c-3.78,2.4-7.45,5-11.15,7.55
		c-0.59,0.41-0.79,0.98-0.51,1.72C263.22,911.29,263.9,911.8,265.62,911.92z M260.1,905.11c3.83,0.27,6.2-2.74,9.09-4.53
		c1.01-0.62,3.35-0.53,2.44-2.63c-0.66-1.52-2.5-1.67-4.07-1.16c-3.33,1.07-6.14,3.1-8.74,5.47c-0.53,0.48-1.36,1.08-1.02,1.95
		C258.19,905.24,259.26,905.06,260.1,905.11z"/>
	<path class="st0" d="M92.57,347.07c1.36,3.74,1.12,7.64,1.35,11.54c0.45,7.61-1.12,15.1-0.8,22.68
		c0.85,20.59,1.66,41.17,2.39,61.77c0.15,4.35-0.41,8.72,0.01,13.09c0.08,0.81,0.69,2.22-0.63,2.37c-1.57,0.17-1.13-1.52-1.31-2.42
		c-0.63-3.03-0.54-6.07-0.19-9.16c0.63-5.5-0.4-10.96-0.9-16.41c-0.79-8.69-0.81-17.38-0.68-26.07c0.13-9.26-1.32-18.43-1.16-27.66
		c0.11-6.87-1.97-13.68,0.81-20.73C92.33,353.85,91.47,350.09,92.57,347.07z"/>
	<path class="st0" d="M103.23,475.54c-1.54,2.01-0.78,5.49-4.4,5.72c-0.63,0.04-0.56,1.1-0.53,1.76c0.26,4.67-0.1,9.3,0.3,14.05
		c0.8,9.47,3.33,18.86,1.89,28.61c-0.54,3.66,1.72,7.51,1.21,11.47c-0.14,1.06-0.08,2.16-0.35,3.18c-0.24,0.91-1.3,1.42-1.58,0.36
		c-0.66-2.45-2.87-4.73-1.06-7.58c0.67-1.05,1.03-2.14,0.34-3.38c-4.22-7.53-3.35-15.73-2.85-23.9c0.35-5.67-0.13-11.21-2.3-16.57
		c-0.74-1.83-3.55-4.46,0.64-5.92c-1.12-5.55,2.33-4.13,5.2-3.91c0.9,0.07,0.89-1.11,0.98-1.91
		C100.86,476.22,101.24,475.15,103.23,475.54z"/>
	<path class="st0" d="M109.66,744.42c1.9,4.95,2.11,9.95,1.92,15.18c-0.21,5.84,0.65,11.72,1.17,17.58c0.1,1.11,0.58,2.32-0.75,2.66
		c-1.5,0.39-0.74-1.32-1.24-1.98c-1.8-2.39-0.99-5.34-1.14-8.06c-0.33-6.27-1.8-12.46-1.2-18.81
		C108.63,748.78,108.35,746.51,109.66,744.42z"/>
	<path class="st0" d="M749.56,910.44c0.02,0.78-0.23,1.56-1.01,2.25c-2.62,2.29-5.09,4.77-7.77,6.96c-0.75,0.61-1.34,0.88-1.34,2.05
		c0,1.74-1.01,3.18-2.37,3.9c-2.46,1.3-4.43,3.1-6.22,5.25c-0.84,1-2.03,2.18-3.24,0.83c-1.14-1.27,0.29-2.25,1.05-2.95
		c5.32-4.9,9.58-11.06,15.78-14.91c1.49-0.93,1.44-2.4,1.41-3.88c-0.02-1.13,0.26-2.09,1.49-1.47
		C748.13,908.87,750.03,908.05,749.56,910.44z"/>
	<path class="st0" d="M111.17,794.11c0.4-3.29,0.15-7.37-0.82-11.41c-0.17-0.72-0.15-1.39,0.71-1.52c0.84-0.13,1.59,0.21,1.83,1.08
		c0.86,3.1,2.77,5.67,2.13,9.48c-0.68,4.07-0.96,8.51,0.79,12.64c0.4,0.96,0.43,2.33-0.99,2.52c-1.21,0.16-1.34-0.96-1.34-1.95
		C113.46,801.41,110.94,798.54,111.17,794.11z"/>
	<path class="st0" d="M898.19,172.63c-0.5-6.4-0.94-11.82-1.34-17.23c-0.06-0.75,0.66-1.53-0.05-2.27c-0.53-0.55-1.38-1.09-0.45-1.9
		c0.67-0.59,1.43-0.15,2.11,0.27c0.81,0.5,1.57,1.68,2.6,0.35c0.44-0.57,0.77-1.71,1.64-0.72c0.84,0.94,0.45,2.02-0.34,2.87
		c-0.72,0.77-3.3,1.26-0.23,2.42c0.08,0.03,0.09,0.66,0.01,0.69c-5.27,2.32-1.34,7.08-2.51,10.48
		C899.19,168.9,899.73,170.48,898.19,172.63z"/>
	<path class="st0" d="M113.06,736.37c-2.73,0-2.86,1.32-2.63,3.32c0.11,0.98,0.84,3.18-1.38,2.86c-1.67-0.24-2.67-1.66-2.06-3.57
		c1.42-4.52,1.03-8.92-0.62-13.26c-0.44-1.16-0.44-2.17,0.9-2.52c1.43-0.38,1.73,0.8,1.88,1.88c0.3,2.11,0.54,4.23,0.73,6.35
		C110.05,733.5,110.37,735.44,113.06,736.37z"/>
	<path class="st0" d="M248.9,814.08c-3.41,0.17-6.23,1.29-7.29,5.14c-0.16,0.56-0.34,0.98-1.01,0.83
		c-6.96-1.58-14.22-0.66-21.11-2.89c-2.23-0.72-4.42-1.57-6.12-3.21c-12.48-12.07-21.84-26.12-25.08-44.05
		c-0.55-3.03-1.74-5.9-2.57-8.85c-2.33-8.26-3.01-16.77-1.8-25.32c0.42-2.93-0.89-5.5-1.16-8.27c-0.47-4.93-1.34-9.5-0.44-14.68
		c0.84-4.83-0.16-10.23-1.26-15.15c-1.07-4.75-1.23-9.48-1.36-14.24c-0.16-5.84-2.36-10.71-5.94-14.83
		c-2.14-2.47-3.53-4.89-3.04-8.24c0.67-4.5-1.63-7.52-4.76-9.82c-7.5-5.51-9.13-10.19-6.16-19.15c3.11-9.36,3.08-9.06-4.92-16.9
		c-4.51-4.42-5.98-14.39-2.91-21.11c3.25-7.13,7.31-13.89,10.28-21.05c3.46-8.37,5.31-17.53,7.88-26.32
		c3.58-12.24,4.61-24.94,7.57-37.28c2.36-9.86,5-19.62,7.89-29.28c2.2-7.36,5.33-14.45,8.5-21.43
		c5.28-11.61,11.22-22.84,15.78-34.87c4.95-13.05,11.56-25.38,17.96-37.77c4.96-9.6,11.34-17.81,18.41-25.56
		c3.62-3.96,7.39-7.81,11.43-11.28c2.22-1.91,2.61-4.96,4.98-6.73c3.04-2.26,5.29-5.41,9.6-5.86c2.06-0.22,4.06-2.67,5.78-4.45
		c4.18-4.32,8.02-9,12.27-13.24c7.6-7.6,13.12-17.09,20.34-24.93c6.86-7.45,12.4-15.82,18.16-24.1c1.41-2.03,3.47-3.41,5.84-4.34
		c2.83-1.11,5.39-2.78,2.58-7.48c6.51,2.78,10.75-0.52,15.29-3.39c4.78-3.02,10.03-5.2,14.8-8.24c9.03-5.75,19-10.03,27.05-17.25
		c7.92-7.11,16.1-13.92,23.76-21.35c4.12-4,9.24-6.12,13.97-8.96c2.79-1.67,5.32-3.8,8.36-5.06c1.14-0.47,2.2-0.42,3.3-0.61
		c4.73-0.81,9.56-1.52,12.99-5.59c0.67-0.79,1.05-1.36,2.15-0.98c4.01,1.39,7.06-1.33,10.38-2.84c1.35-0.62,1.55-1.68,0.22-3.35
		c5.76,2.08,8.4-1.9,11.34-4.99c0.56-0.59,1.2-0.99,1.41-0.5c0.61,1.43,1.21,2.12,2.66,1.07c1.92-1.39,4.55-1.72,5.25-4.79
		c0.65-2.82,2.06-4.81,5.07-2.29c0.53,0.44,1.08,0.91,1.71,0.62c2.82-1.33,5.6-2.75,8.79-2.86c0.48-0.02,0.87-0.7,0.56-1.25
		c-1.34-2.32,0.47-2.04,1.4-1.61c2.93,1.34,5.03,0.41,7.19-1.83c1.35-1.39,4.51-0.44,4.59-3.75c0-0.14,0.58-0.42,0.62-0.37
		c3.45,3.87,5.38-1.96,8.53-1.47c3.3,0.52,6.21-2.15,9.47-2.84c3.37-0.72,6.72-1.59,10.08-2.36c2.05-0.47,1.55-4.28,4.63-3.7
		c1.24,0.24,2.65-0.6,4.08,0.06c0.76,0.36,1.84,0.55,2.59,0.26c11.98-4.53,24.53-5.08,37.01-6.42c2.82-0.3,6.25-1.3,8.6-0.87
		c2.56,0.46,4.77-2.13,5.88-0.94c3.28,3.54,6.93-0.61,10.61,1.44c3.42,1.91,8.23,0.98,12.4,1.47c9.28,1.09,18.67,0.94,27.86,2.98
		c0.85,0.19,1.89,0.32,2.65-0.02c4.53-2.02,8.73,0.52,13.08,0.77c4.61,0.26,8.74,3.8,13.62,1.89c1.48-0.58,2.62,0.32,2.32,2.1
		c-0.27,1.57,0.42,2.35,1.57,2.78c5.98,2.21,12.07,4.09,17.94,6.57c8.95,3.77,18.73,5.08,27.29,9.77
		c7.21,3.95,13.43,9.59,19.31,15.54c1.1,1.12,2.04,2.41,3.2,3.46c1.49,1.35,3.79,1.55,2.91,5.09c-0.5,2.02,2.36,4.2,4.35,5.71
		c2.21,1.67,4.26,3.38,4.68,6.52c0.11,0.84,0.71,1.77,1.34,2.36c4.81,4.5,8.77,9.71,12.05,15.52c1.51,2.68,2.97,2.81,5.42,0.59
		c9.71-8.84,18.43-9.64,27.88-0.5c5.93,5.74,12.26,10.89,18.61,16.06c1.44,1.17,2.75,2.47,3.4,4.28c2.07,5.74,5.39,10.73,9.19,15.2
		c5.78,6.79,8.28,15.14,10.51,23.46c4.32,16.13,7.8,32.5,11.92,48.69c3.38,13.28,3.84,26.95,5.66,40.44
		c1.19,8.77,2.94,17.44,2.17,26.4c-0.78,9.09-0.89,18.26-1.81,27.3c-0.76,7.48-2.6,15.07-7.51,21.2c-4.53,5.66-10.53,8.12-17.3,9.04
		c-2.03,0.28-3.07-0.9-3.98-2.46c-4.15-7.14-5.7-14.6-2.11-22.49c4.03-8.87,6.9-18.21,9.77-27.51c1.44-4.66,1.7-9.79,1.42-14.76
		c-0.66-11.62,0.27-23.28-0.84-34.9c-0.22-2.35-2.71-2.96-2.48-5.59c0.3-3.43-0.21-6.96-0.48-10.43c-0.23-3.01-0.24-6.14-3.09-8.09
		c-0.33-0.23-0.51-0.94-0.51-1.42c0.1-9.16-4.49-16.41-9.01-23.55c-1.28-2.03-1.31-4.17-2.03-6.19
		c-4.87-13.56-12.03-25.74-19.66-37.69c-1.34-2.09-1.85-4.74-5.14-4.08c-0.86,0.17-0.96-1-1.03-1.83c-0.28-3.27-2.94-3.45-5.05-3.8
		c-1.75-0.29-2.63,0.99-1.62,2.85c4.09,7.6,8.3,15.14,10.99,23.45c1.56,4.83,4.02,9.35,3.2,14.94c-0.38,2.59,0.81,5.53,1.63,8.2
		c3.96,12.87,5.49,26.18,5.88,39.58c0.09,3.09,4.59,3.61,2.96,4.71c-2.35,1.59-1.85,2.57-1.72,4.76c0.37,6.26,0.42,12.58,0.17,18.85
		c-0.55,14.11-5.03,27.57-6.43,41.55c-0.58,5.85-1.78,11.65-1.44,17.6c0.33,5.72-2.14,10.98-3.05,16.5
		c-0.81,4.91-0.69,9.5-0.53,14.31c0.15,4.78,0.95,9.93,0.32,14.23c-1.05,7.25-0.24,14.76-3.32,21.99
		c-2.64,6.22-4.14,13.21-6.29,19.77c-3.08,9.35-7.42,18.2-11.98,26.89c-6.85,13.04-13.86,26-20.45,39.18
		c-2.54,5.09-3.98,10.78-6.23,16.05c-1.11,2.6-2.91,4.88-5.43,7.08c-0.57-4.16,1.02-7.31,2.39-10.33c3.78-8.34,8.59-16.18,11.38-25
		c1.55-4.9,5.78-8.1,6.8-13.38c1.52-7.85,8.5-12.17,11.75-19.28c5.48-11.99,10.4-24.1,14.38-36.7c2.3-7.29,4.37-14.58,4.38-22.32
		c0-3.25,1.72-7.22-2.88-8.88c-0.58-0.21-0.8-0.79-0.23-1.18c1.54-1.07,1.16-2.13,0.16-3.31c-0.23-0.27-0.53-0.77-0.44-1.03
		c2.11-6.19,1-12.36,0.17-18.59c-0.24-1.79,0.14-3.82,0.73-5.55c2.67-7.87,3.83-16.09,4.82-24.29c0.85-7.03,2.67-13.85,3.52-20.9
		c0.87-7.21,0.45-14.39,0.95-21.57c0.33-4.74,2.02-9.53,0.47-14.37c-0.07-0.23-0.06-0.68,0.07-0.78c3.36-2.44,1.85-5.14,0.31-7.72
		c-1.6-2.67-0.81-5.68,0.04-7.86c1.59-4.06-0.64-7.32-0.85-10.94c-0.06-0.94-0.54-1.88,0.47-2.5c1.87-1.16,0.61-2.25-0.06-3.29
		c-1.95-3.03-2.93-6.21-1.72-9.86c0.45-1.34,0.17-2.72-0.28-3.96c-3.28-9.12-5.74-18.51-8.29-27.86c-0.43-1.56-1.71-2.27-2.87-3.1
		c0,0,0.02,0.05,0.02,0.05c-0.54-4.49-3.46-8.27-3.42-12.94c0-0.46-0.37-1.16-0.74-1.35c-2.75-1.37-4.88-2.99-5.09-6.71
		c-0.08-1.5-1.51-1.02-2.08,0.22c-0.44,0.96-1,2.02-1,3.03c0,4.68-3.04,8.47-3.31,13.07c-0.09,1.42-0.64,2.86-1.66,4
		c-3.55,3.99-4.92,8.99-5.72,14.2c-0.47,3.07-1.22,6-2.36,8.89c-3.71,9.41-4.32,19.59-5.93,29.47c-1.61,9.89-2,20-3.29,29.97
		c-0.67,5.18-2.73,10.05-4.54,14.91c-2.44,6.56-3.77,13.28-4.35,20.33c-0.52,6.27-3.66,11.95-4.68,18.21
		c-1.97,12.15-5.25,24.01-7.47,36.13c-1.63,8.86-4.14,17.69-6.4,26.49c-3.82,14.9-8.19,29.64-11.51,44.69
		c-1.93,8.74-4.73,17.24-7.68,25.67c-4.59,13.08-9.67,25.95-13.24,39.44c-2.79,10.56-5.75,21.17-10.37,31.09
		c-2.83,6.08-4.36,12.64-6.02,19.09c-0.52,2.01,0.29,4.52-0.85,6.69c-0.16,0.3,0.15,1.18,0.47,1.39c0.96,0.63,1.28-0.32,1.67-0.99
		c0.33-0.58,0.66-1.28,1.43-1c0.72,0.25,0.68,1.03,0.71,1.7c0.15,2.84,1.25,5.5-0.3,8.55c-0.91,1.8-0.78,3.14-2.78,1.33
		c-0.55-0.5-1.14-0.71-1.57,0.08c-0.36,0.66-0.12,1.42,0.38,1.83c0.79,0.65,1.77,1.05,2.57,1.69c0.78,0.63,0.97,1.56,0.62,2.55
		c-0.32,0.9-1,1.19-1.84,0.96c-0.77-0.21-1.58-0.44-2.17,0.21c-1.26,1.4-3.73,2.32-3.14,4.61c0.59,2.3,2.77,1.04,4.33,1.05
		c0.31,0,0.62,0.3,0.95,0.48c-0.42,2.16-2.59,1.65-3.74,3.01c-2.83,3.36-4,6.99-3.95,11.3c0,0.42-0.46,0.89-0.79,1.27
		c-0.6,0.69-2.25,1.07-1.02,2.34c0.88,0.9,1.9-0.08,2.69-0.76c2.27-1.96,4.57-3.88,6.75-5.94c1.63-1.53,4.68-2.15,1.25-5.87
		c-1.8-1.95,1.75-5.3,3.95-7.14c1.23-1.04,2.15-2.01,2.92-3.49c1.19-2.29-0.38-2.26-1.63-2.59c0.34-1.51,1.94-1.5,2.48-2.47
		c2.27-4.08,3.81-3,5.26,0.61c0.82,2.04,1.77,1.62,2.56-0.09c0.22-0.48,0.26-1.06,0.51-1.51c0.57-1.02,0.94-2.29,2.21-2.59
		c0.22-0.05,0.72,0.36,0.81,0.65c0.43,1.5-0.74,2.07-1.55,2.91c-1.55,1.6-2.06,3.91-3.58,5.64c-2.81,3.2-7.12,4.02-9.79,7.33
		c-0.61,0.76-2.14,1.11-1.49,2.41c0.69,1.4,2.04,0.71,3.09,0.35c3.77-1.3,5.99-4.87,9.16-7.13c9.25-6.6,18.76-12.95,26.69-21.38
		c6.35-6.74,13.16-13.43,14.82-23.24c0.86-5.09,3.87-9.44,3.8-14.73c-0.02-1.26,0.62-2.51,2.13-2.2c1.35,0.28,1.28,1.57,0.98,2.62
		c-2.55,8.96-4.35,18.19-9.06,26.36c-8.05,13.96-20.01,23.27-32.65,32.15c-9.05,6.36-18.61,12.26-25.41,21.76
		c-1.88,2.63-5.17,4.03-7.62,6.43c-6.65,6.51-12.09,14.49-20.88,18.54c-4.82,2.22-5.05,7.91-6.1,12.68
		c-1.21,5.44,0.41,10.81,0.51,16.23c0.13,7.41-3.48,13.57-9.96,17.18c-10.12,5.64-24.56,1.48-30.36-6.37
		c-1.03-1.4-2.35-2.44-3.92-1.29c-4.83,3.54-10.67,5.01-15.53,8.42c-6.4,4.49-11.74,10.37-16.76,16.33
		c-5.89,6.98-13.1,11.21-20.97,14.83c-3.19,1.46-6.07,3.79-8.97,5.82c-7.49,5.24-14.55,12.22-24.44,12.54
		c-0.89,0.03-1.86,0.33-2.66,0.06c-9.62-3.16-17.85,1.54-26.35,4.94c-6.9,2.76-13.76,6.09-20.93,7.55
		c-5.66,1.15-11.14,3.01-16.82,3.97c-1.94,0.33-3.56,1.04-4.34,3.34c-0.46,1.36-1.22,3.31-3.1,0.53c-1.27-1.89-3.3-0.26-4.64,0.86
		c-1.12,0.93-2.15,2.22-3.58,2.13c-5.39-0.35-7.07,3.83-8.99,7.79c-2.09,4.3-4.16,8.61-6.28,12.89c-0.63,1.28-1.32,2.55-3.23,2.98
		c1.55-3.57,3.34-7.04,4.57-10.73c1.26-3.79,4-6.76,5.19-10.96c-2.92,0.96-2.52,4.6-5.01,5.68c-0.15-0.51-0.27-0.85-0.36-1.19
		c-0.37-1.42,2.89-3.26,0.15-4.02c-2.07-0.57-5.47-1.93-6.21,2.76c-0.5,3.15-1.72,6.19-1.95,9.43c-0.05,0.73-0.48,1.67,0.29,2.27
		c0.87,0.67,1.36-0.16,1.92-0.67c0.65-0.6,1.41-1.61,2.24-0.68c0.78,0.87-0.17,1.79-0.68,2.45c-1.13,1.46-1.37,3.88-4.46,3.17
		c-1.03-0.24-3.34,2.66-3.07,5.36c0.16,1.63-0.14,2.8-2.08,1.99c-1.29-0.54-1.83,0.39-2.49,1.24c-0.88,1.14-1.93,2.16-2.74,3.36
		c-8.22,11.98-25.37,10.46-32.09,0.56c-1.13-1.67-3.28-0.65-4.24-3.31c-1.09-3.02-0.37-5.68-0.62-8.48
		c-0.15-1.72,0.17-3.47,0.18-5.21c0.04-9.28-1.3-10.96-10.19-10.64c-10.03,0.37-19.8-1.57-29.67-2.7c-3.27-0.37-6.64,0.52-9.83-0.95
		c-0.73-0.34-1.5,0.01-2.15,0.53c-4.04,3.26-9.48,1.09-13.54,4.32c2.37-5.01,7.59-2.57,11.55-5.33c-4.91-0.83-9.14-1.73-13.41-2.16
		c-1.66-0.17-3.18-0.25-4.74-1.04c-2.69-1.37-5.48-2.01-8.47-0.53c-1.42,0.7-3.05,1.39-4.77,0.82c0.05-0.31,0.02-0.68,0.15-0.75
		c1.37-0.79,3.89-0.66,3.65-2.79c-0.18-1.62-2.55-1.19-3.94-1.67c-6.16-2.13-12.4-4.09-17.91-7.84c-3.86-2.63-7.2-3.52-11.9-0.82
		c-7.37,4.24-15.19,7.81-23.96,10.32c0.72-2.18,2.2-2.62,3.43-3.26c6.48-3.4,13.25-6.11,19.98-8.91c1.14-0.47,3.36-0.45,2.58-2.6
		c-0.65-1.78-2.43-2.23-4.25-1.63c-4.89,1.61-9.31,4.31-13.98,6.43c-2.68,1.21-5.08,3.58-8.52,3.17c0.91-3.12,4.89-2.9,5.25-6.15
		c0.58,0.27,1.23,0.86,1.74,0.76c4.88-1,9.23-3.58,13.82-5.44c0.62-0.25,0.86-1.03,0.53-1.72c-0.44-0.92-1.26-1.57-2.18-1.22
		C257.83,808.3,252.69,809.86,248.9,814.08z M327.87,443.61c-0.34,2.86-1.44,5.36-2.86,7.82c-1.45,2.5-3.69,5.31-3.54,7.85
		c0.32,5.37-1.42,10.03-2.85,14.81c-1.63,5.45-0.61,12.24-6.85,15.56c-0.74,0.4-1.44,2.37-1.14,3.23c1.84,5.39-1.52,9.42-2.81,14.03
		c-1.24,4.43-3.03,8.62-3.86,13.27c-1.01,5.64-4.38,10.61-5.15,16.52c-0.6,4.61-1.92,9.07-3.75,13.4c-1.8,4.25-3.57,8.67-3.91,13.36
		c-0.37,5.17-1.99,10.12-3.88,14.55c-3.96,9.27-6.09,19.05-8.28,28.74c-0.96,4.25-2.71,8.24-3.49,12.57
		c-0.48,2.63-1.22,3.75,2.62,3.68c-4.99,3.26-7.89,7.11-7.52,12.98c2.24-0.32,0.81-3.04,2.77-3.73c0.23,3.7-1.38,6.03-4.39,7.47
		c0.95,1.02,2.02-0.23,2.77,0.87c-2.91,5.31-4.17,11.36-6.28,17.08c-2.7,7.36-5.36,14.75-7.19,22.4
		c-2.41,10.06-6.16,19.63-9.5,29.32c-3.86,11.21-8.75,22.02-13.21,33c-2.11,5.19-5.61,8.42-11.18,8.73c-1.4,0.08-2.78,0.33-4.18,0.5
		c-1.96,0.24-2.84,0.69-1.9,3.28c2.76,7.61,8.39,12.56,13.88,17.7c1.54,1.44,4.24,1.94,3.97,4.83c-0.25,2.63,1.58,3.42,3.13,3.58
		c1.66,0.16,2.42-1.55,2.67-3.33c1.23-8.68,4.51-16.69,7.42-24.82c1.74-4.85,4.9-8.76,7.46-13.07
		c6.87-11.62,10.01-24.93,14.58-37.56c6.87-18.98,12.81-38.34,18.98-57.59c1.5-4.69,2.08-9.71,3.56-14.42
		c1.53-4.88,2.34-9.88,3.39-14.86c0.91-4.34,3.23-8.44,1.86-13.15c-0.05-0.18,0.41-0.71,0.7-0.78c1.82-0.44,1.78-2.05,2.07-3.47
		c2.17-10.48,4.47-20.9,7.33-31.22c2.88-10.4,6.56-20.55,8.7-31.21c2.22-11.03,6.3-21.49,9.65-32.18
		c3.81-12.17,8.61-23.95,11.95-36.34c2.22-8.26,6.08-16.18,9.26-24.22c3.79-9.62,9.24-18.55,12.1-28.52
		c3-10.48,7.22-20.34,11.37-30.29c2.81-6.75,6.51-13,9.44-19.71c2.02-4.62,5.41-8.8,7.55-13.44c6.15-13.29,12.87-26.22,20.53-38.6
		c5-8.08,9.45-16.56,15.74-23.68c5.8-6.58,11.43-13.37,17.59-19.56c6.94-6.96,14.95-11.89,25.11-8.67
		c5.08,1.61,8.81,4.76,10.03,10.87c2.05,10.25,4.65,20.31,3.81,31.02c-0.32,4.05,1.24,8.36,0.37,12.41
		c-1.54,7.2-1.31,14.42-1.33,21.67c-0.01,2.69,0.03,5.4-0.28,8.05c-1.64,13.99-4.06,27.85-5.34,41.92
		c-1.68,18.55-4.65,36.97-7.54,55.37c-0.23,1.44-0.57,2.97-0.34,4.36c0.37,2.18,2.6-0.96,3.3,0.98c-2.3,2.9-4.41,5.85-5.02,9.68
		c-1.59,10.02-3.24,20.03-4.77,30.05c-2.94,19.32-11.2,37.13-14.28,56.41c-0.29,1.84-0.79,3.73-1.62,5.36
		c-2.76,5.49-2.71,11.72-4.34,17.5c-0.86,3.04,1.83,6.32,4.82,6.45c3.53,0.15,4.13-2.32,3.94-5.37c-0.04-0.64,0.2-1.31,0.4-1.94
		c2.16-6.76,4.56-13.45,6.48-20.29c3.83-13.64,7.65-27.29,10.22-41.28c0.32-1.72,0.31-3.72,2.18-5.24c1.4,7.66-3.25,14-3.38,21.39
		c1.42-0.57,1.48-1.38,1.65-2.15c1.35-6.13,2.62-12.28,4.12-18.37c3.76-15.34,6.57-30.76,7.24-46.71
		c0.39-9.37-0.84-18.81,0.92-28.14c2.57-13.63,3.04-27.56,5.85-41.22c2.85-13.85,4.81-27.95,7.08-41.95
		c0.79-4.89,1.79-9.75,2.49-14.66c1.82-12.71,0.95-25.55,1.46-38.32c0.25-6.25-0.75-12.55-0.77-18.76
		c-0.03-8.28-1.54-15.97-4.53-23.44c-2.47-6.17-6.36-10.91-12.7-13.12c-3.66-1.27-7.52-1.45-11.13-2.68c-2.63-0.9-5-0.76-7.44,0.24
		c-12.44,5.08-23.59,12.06-31.81,23.53c-3.6,5.01-7.11,10.09-11.24,14.7c-2.65,2.95-5.59,5.76-7.28,9.74
		c-3.37,7.96-8.57,14.8-13.27,21.89c-1.56,2.35-3.6,4.32-5.05,6.94c-3.24,5.86-7.64,10.9-10.14,17.37
		c-1.69,4.39-5.07,8.05-6.93,12.39c-3.53,8.27-7.59,16.26-10.95,24.65c-4.71,11.76-11.36,22.63-15.25,34.84
		c-0.24,0.75-0.88,0.86-1.44,1.17c-2.72,1.48-3.96,3.53-2.18,6.67c0.72,1.27-0.42,0.86-0.84,0.95c-0.99,0.21-1.69,0.71-1.73,1.81
		c-0.05,1.55,2.02,0.01,2.14,1.94c-3.99,0.28-5.77,3.9-5.38,6.9c0.37,2.83-0.88,4.93-1.35,7.08c-0.92,4.16-3.42,7.93-5.29,11.86
		c-0.46,0.98-1.11,2.08-0.62,3.06c2.04,4.08-0.39,5.07-3.4,5.76c-0.71-1.76-0.07-3.44,0.26-5.15c1.13-5.79,3.26-11.29,4.97-16.87
		c3.67-11.97,8.29-23.63,14.3-34.61c5.17-9.43,9.55-19.34,13.29-29.43c5.98-16.14,14.45-30.77,22.89-45.47
		c4.68-8.15,11.33-14.79,15.73-23.17c6.07-11.58,15.4-20.73,21.52-32.47c3.81-7.31,11.01-12.54,17.19-18.14
		c5.64-5.12,12.57-8.05,18.89-12c7.78-4.87,14.96-2.89,21.84,0.55c11.92,5.97,18.5,16.95,20.76,30.2
		c2.79,16.33,1.53,32.92,1.25,49.45c-0.3,17.68-4.03,34.85-6.12,52.25c-1.72,14.36-3.28,28.76-5.36,43.06
		c-0.79,5.43-0.84,10.9-1.62,16.32c-0.56,3.93-2.19,8.06-0.74,12.33c0.51-0.14,0.94-0.13,1.2-0.35c7.94-6.52,17.41-9.92,26.35-14.41
		c5.11-2.57,11.75-2.41,14.82-8.85c0.14-0.3,0.94-0.3,1.43-0.36c6.06-0.69,12.13-1.43,18.2-1.99c1.27-0.12,2.68-1.1,3.97,0.1
		c-0.42,1.61-2.53,0.6-3.01,2.52c2.25-0.44,4.37-0.19,6.49,0.09c1.89,0.25,3.96-0.08,4.35-2.28c0.43-2.44,2.14-4.12,2.69-6.38
		c0.38-1.56,1.23-2.74,2.61-1.98c1.3,0.71,0.98,2.46,0.17,3.56c-2.42,3.24-2.78,7.15-3.5,10.96c-0.27,1.44-0.12,3.23-0.89,4.25
		c-3.44,4.55-4.43,10.2-6.33,15.38c-5.83,15.89-10.78,32.13-17.17,47.82c-4.92,12.07-7.58,25.11-14.09,36.51
		c-0.19,0.34-0.32,0.75-0.36,1.14c-0.41,3.78-1.47,7.2-3.02,10.77c-3.78,8.69-5.04,18.32-7.83,27.44
		c-2.98,9.72-4.67,19.93-7.62,29.73c-2.19,7.27-3.38,14.77-4.89,22.2c-1.93,9.49-5.24,18.49-7.94,27.71
		c-3.23,11.03-6.24,22.08-10.3,32.83c-5.36,14.18-12.26,27.58-18.44,41.34c-2.39,5.33-5.18,10.46-7.56,15.82
		c-1.04,2.33-0.53,5.32-2.02,6.91c-2.03,2.17-2.82,4.66-3.76,7.29c-2.55,7.12-5.99,13.83-8.78,20.85
		c-2.75,6.89-6.34,13.42-9.6,20.08c-5.72,11.66-10.74,23.73-17.66,34.7c-1.36,2.16-3.21,5.8-6.14,1.19
		c-0.17-0.27-0.94-0.26-1.39-0.16c-3.48,0.77-5.26-1.58-6.56-4.26c-1.65-3.39-2.4-7.38-2.06-10.92c0.83-8.52,1.49-17.07,3.78-25.44
		c2.88-10.55,4.79-21.4,7.38-32.05c0.48-1.98-1.2-3.73-0.37-5.11c2.94-4.87,4.14-10.37,4.5-15.82c0.9-13.6,6.8-26.2,6.84-39.91
		c0-0.13,0.07-0.26,0.1-0.39c2.55-9.24,4.06-18.73,6.56-28.01c3.31-12.33,5.37-25.03,8.04-37.55c2.29-10.69,7.81-20.37,8.83-31.47
		c0.18-2,0.62-3.96,2.13-5.89c-2.18,0.28-3.32-0.58-4.34-2.26c-0.97-1.59-2.6-2.53-3.75,0.07c-3.47,7.89-6.03,16.13-8.34,24.46
		c-1.21,4.36-1.59,9.06-3.31,13.16c-3.89,9.27-6,19.17-9.67,28.46c-2.03,5.13-2.8,10.56-4.56,15.69
		c-1.85,5.41-4.02,10.71-5.05,16.38c-2.23,12.23-4.79,24.4-7.46,36.5c-2.68,12.14-4.55,24.49-7.91,36.48
		c-1.05,3.74-2.7,7.21-3.62,10.97c-2.17,8.83-4.15,17.74-6.41,26.49c-3.46,13.34-2.61,25.92,1.08,38.77
		c0.56,1.96,3.07,3.05,2.68,4.38c-1.5,5.14,2.29,4.61,4.47,4.48c8.53-0.51,17.03-1.14,25.57-0.41c2.22,0.19,4.61,0.4,6.04-2.35
		c0.61-1.17,2.2-1.23,3.07-0.47c1.64,1.43,1.48,1.52,3.01,0.47c4.14-2.83,4.59-7.81,6.59-11.94c5.55-11.46,10.8-23.04,15.31-35
		c4.42-11.71,9.08-23.32,14.14-34.75c5.95-13.44,9.54-27.8,14.46-41.65c2.28-6.41,4.81-12.69,7.28-19.01
		c3.21-8.2,8.3-15.8,8.04-25.25c-0.01-0.33,0.17-0.77,0.41-0.98c3.44-2.97,5.82-6.54,6.81-11.25c0.71-3.38,2.02-6.68,2.78-10.02
		c0.84-3.63,4.56-6.25,3.35-10.36c-0.63-2.15-0.31-3.48,1.33-4.83c0.73-0.61,1.18-1.77,1.46-2.77c3.42-12.19,6.87-24.38,10.14-36.62
		c3.64-13.66,2.88-28.05,6.13-41.79c0.29-1.21-0.16-2.36,0.71-3.72c4.74-7.48,7.46-16.06,10.57-24.31
		c2.18-5.78,3.49-11.96,5.7-17.87c4.84-12.96,8.99-26.21,13.19-39.42c4.76-15,9.33-30.06,13.84-45.14
		c3.4-11.36,5.32-23.23,9.86-34.17c4.84-11.68,10.06-23.2,15.57-34.55c5.56-11.45,11.55-22.64,18.17-33.52
		c7.27-11.95,13.11-24.87,19.62-37.34c2.26-4.33,3.05-9.54,5.56-13.42c3.2-4.93,5.79-10.28,9.31-14.99c3.14-4.2,4.91-9.2,7.17-13.94
		c3.11-6.53,6.81-12.77,10.64-18.87c1.52-2.42,1.1-6.33,4.39-7.25c1.72-0.48,3.41-1.05,5.1-1.64c6.31-2.2,10.09,1.44,11.87,6.85
		c2.44,7.41,3.79,15.22,5.22,22.99c3.5,19.08,3.08,38.2,1.84,57.36c-0.51,7.87-1.9,15.7-3.22,23.49c-1.44,8.41-3,16.82-5,25.11
		c-2.97,12.33-3.34,25.06-6.13,37.49c-3.39,15.1-6.62,30.27-9.93,45.41c-0.82,3.78-1.23,7.83-2.86,11.2
		c-3.1,6.41-3.61,13.5-4.46,20.2c-1,7.82-3.12,15.37-3.98,23.18c-0.25,2.25-0.68,4.49-1.1,6.72c-1.75,9.18-3.21,18.43-5.41,27.49
		c-2.06,8.48-2.32,17.27-4.84,25.69c-2.79,9.33-5.59,18.82-6.86,28.46c-2.16,16.27-6.79,31.94-9.35,48.08
		c-1.03,6.49-2.28,12.93-3.32,19.42c-1.9,11.9-2.64,24.08-6.06,35.62c-3.41,11.52-3.53,23.27-3.51,35.03
		c0.01,8.28,1.5,16.45,3.16,24.61c1.86,9.17,5.49,17.04,12.74,22.52c7.76,5.87,15.71,4.35,19.25-4.02c2.61-6.16,3.8-13,5.5-19.57
		c0.66-2.58,0.33-5.32,1.11-7.95c3.18-10.64,7.2-20.84,12.21-30.71c5.36-10.54,10.03-21.46,15.69-31.87
		c3.55-6.53,6.15-13.62,9.33-20.37c1.5-3.19,3.25-6.26,5.1-9.25c2.06-3.33,3.55-6.78,4.74-10.63c0.9-2.92,0.76-6.51,2.35-8.68
		c3.83-5.24,4.4-11.55,6.35-17.37c1.77-5.3,2.83-10.86,4.39-16.25c2.52-8.73,6.5-16.91,8.42-25.89c1.63-7.66,3.1-15.43,5.28-22.87
		c3.89-13.27,9.72-25.88,12.88-39.47c1.85-7.95,4.18-15.77,5.88-23.75c2.86-13.48,5.41-27.04,8.04-40.58
		c1.46-7.51,4.29-14.6,6.07-22.01c1.66-6.9,3.36-13.79,3.76-20.94c0.4-7.09,6.2-12.32,5.49-20.24c-0.3-3.33-1.2-8.26,1.98-11.99
		c1.71-2-0.45-5.07-0.2-7.8c0.35-3.75,1.49-7.37,1.7-11.03c0.72-12.39,2.76-24.45,5.83-36.44c1.42-5.55,3.42-10.98,4.27-16.66
		c1.73-11.57,7.21-20.46,16.61-26.59c2.31-1.51,5.85-3.95,7.44-3.1c4.91,2.62,10.59,5.15,13.37,10.35
		c3.57,6.69,8.23,12.56,11.85,19.17c5.53,10.11,9.56,21.03,14.67,31.31c4.79,9.62,6.14,19.91,7.98,30.07
		c3.14,17.32,2.14,35.02,2.9,52.56c0.62,14.1-2.11,27.18-7.89,39.69c-1.66,3.6-0.61,7.26-1.03,10.86c-0.17,1.43,1.03,2.29,2.33,2.84
		c5.28,2.22,7.8,1.57,10.1-4.03c2.08-5.07,7.13-9.62,3.66-16.15c2.73-1.03,1.19-3.17,1.5-5.03c1.74-10.59,2.23-21.32,2.77-31.96
		c0.81-15.85-0.96-31.61-4.68-47.06c-0.81-3.38-2.24-6.75-2.29-10.14c-0.14-9.16-2.43-17.95-5.09-26.33
		c-4.05-12.75-6.72-26.14-13.91-37.69c-4.51-7.25-7.66-15.56-13.93-21.4c-7.48-6.97-16.39-12.18-22.99-20.3
		c-0.46-0.56-1.29-0.96-2.01-1.09c-5.96-1.05-11.25,0.58-15.17,5.41c-6.47,7.97-8.28,17.95-9.9,27.87
		c-0.82,5.05-1.93,9.97-3.34,14.87c-1.96,6.79-6.52,12.32-7.79,19.52c-1.44,8.14-3.97,16.06-5.58,24.18c-2.37,11.96-4.34,24-6.49,36
		c-0.14,0.75-0.15,1.66-1.29,1.77c-1.05-2.15-0.97-4.36-0.29-6.59c2.62-8.61,2.49-17.74,4.56-26.47c0.71-2.99,2.01-5.85,2.31-8.9
		c1.39-14.25,5.83-27.62,11.15-40.6c2.36-5.74,3.25-11.8,5.24-17.56c0.51-1.48,0.52-2.82-0.99-3.87
		c-5.37-3.73-7.77-10.28-12.73-14.42c5.36,1.13,8.59,4.07,11.51,9.92c0.51,1.02,0.75,2.54,2.26,2.32c1.39-0.2,1.69-1.62,1.82-2.78
		c0.34-2.97,1.24-5.76,2.11-8.57c0.38-1.21,0.49-2.43-0.34-3.45c-5.6-6.85-10.02-14.94-18.04-19.29c-0.28-0.15-0.62-0.59-0.6-0.87
		c0.33-5.5-4.2-8.21-6.51-12.14c-1.32-2.23-2.25-5.3-5.11-6.27c-2.08-0.71-3.46-2.28-4.67-4.01c-3.51-5.03-8.74-8.05-13.42-11.29
		c-11.31-7.83-24.97-9.72-37.55-14.38c-2.05-0.76-3.95-1.51-5.83-2.77c-3.22-2.15-6.35-5.37-10.83-3.24
		c-0.79,0.37-1.5-0.19-1.95-0.9c-1.29-2.08-3.34-2.04-5.37-2.46c-6.79-1.39-13.99,0.43-20.53-2.97c-0.73-0.38-1.8-0.29-2.65-0.09
		c-2.71,0.66-5.3,0.19-7.94-0.47c-1.34-0.34-3.13-0.86-4.12-0.24c-2.91,1.85-5.8,0.75-8.7,0.62c-1.78-0.08-3.56-0.25-5.34-0.3
		c-8.05-0.26-16.19,2.2-24.17-0.91c-0.9-0.35-1.97-0.08-2.93,0.54c-4.93,3.21-10.58,3.76-16.13,4.29c-2.08,0.2-4.64,0.24-6.47-1.57
		c-0.42-0.42,1.02-2.12-0.89-1.75c-0.91,0.18-1.54,0.92-1.88,1.85c-0.49,1.31,1.51,1.81,0.89,3.41c-2.89-0.83-4.25-5.19-8.27-3.66
		c-1.98,0.75-4.2,2.3-5.72,2.29c-4.1-0.04-7.73,1.52-11.59,2.17c-9.93,1.68-19.27,5.3-28.55,9.19c-3.9,1.63-7.76,3.35-11.61,5.1
		c-8.9,4.04-18.47,6.7-26.68,12.09c-5.44,3.57-13.42,3.28-16.22,11.1c-0.03,0.07-0.23,0.09-0.36,0.11
		c-5.77,0.66-10.66,4.16-16.38,5.27c-10.28,1.99-19.94,6.29-27.98,13.33c-9.21,8.06-18.82,15.67-28.27,23.31
		c-11.44,9.25-24.36,16.81-37.41,23.41c-12.19,6.18-22.92,13.81-31.78,24.42c-5.66,6.78-9.45,14.97-14.7,22.1
		c-4.77,6.48-9.28,13.18-15.29,18.48c-3.12,2.75-6.76,4.74-9.74,7.77c-4.18,4.25-8.69,8.13-13.01,12.23
		c-9.97,9.48-22.75,16.08-27.88,30.61c11.89-9.86,22.3-21.75,36.03-29.89c0.32,4.76-3.18,5.06-4.69,7.14
		c-1.87,2.58-3.53,5.11-6.39,6.87c-5.82,3.57-9.03,10.47-15.1,13.88c-0.4,0.22-0.63,0.83-0.88,1.3c-1.43,2.61-3.22,4.79-5.85,6.16
		c-1.32,0.69-2.52,1.85-2.31,3.42c0.54,4.04-1.49,7.88-0.63,11.92c0.16,0.75,0.24,1.98-1.15,1.99c-1.65-3.61-0.06-7.28,0.34-11.52
		c-1.97,1.92-3.42,3.06-4.54,4.48c-2.35,2.97-5.53,5.86-5.01,10.04c0.59,4.73,0.02,9.36,0.07,14.03c0.01,0.92,0.4,2.21-0.83,2.26
		c-1.22,0.05-0.96-1.33-1.02-2.2c-0.18-2.45,0.88-5.14-1.08-7.39c-0.35,0.34-0.67,0.49-0.71,0.69c-0.78,4.71-1.9,8.86-6.06,12.06
		c-3.42,2.63-2.07,7.42-1.77,11.42c0.07,0.92,0.4,2.07-0.7,2.44c-1,0.33-1.06-0.84-1.45-1.48c-1.09-1.81-1.71-1.3-2.63,0.33
		c-1.95,3.45-1.86,7.17-1.89,10.94c-0.06,5.83,1.62,11.6,0.24,17.49c-0.34,1.45-0.67,3.39,0.66,4.83c5.08-3.71,2.35-9.49,3.48-14.36
		c1.55,0.98,1.32,4.18,3.37,2.82c1.64-1.09,3.51-2.83,1.99-5.71c-1.91-3.63-1.47-7.7-0.45-11.33c0.61-2.18-0.12-5.09,2.5-7.14
		c0.2,5.56-0.5,10.65,0.27,16.8c4.77-11.77,12.51-21,13.37-33.37c0.05-0.77-0.25-2.35,1.13-2.04c5.36,1.19,7.33-2.11,8.41-6.72
		c0.27-1.15,0.86-1.09,1.68-0.67c0.67,0.34,1.39,0.87,2.07,0.83c7.44-0.49,10.63,1.39,13.89,8.45c0.52,1.14,0.93,2.13,2.39,2.19
		c2.22,0.09,2.97,1.89,2.54,3.67c-1.29,5.36,2.61,10.26,1.05,15.6c-0.09,0.29,0.15,0.96,0.36,1.04c3.84,1.34,1.44,6.19,1.31,6.33
		c-3.41,4-2.52,8.79-2.52,13.36c0,2.06,0.67,4.23-2.62,3.59c-1-0.2-1.6,0.69-1.72,1.76c-0.49,4.26-1.34,8.61,0.3,12.73
		c1.18,2.98,0.84,6.08,1.29,9.11c0.17,1.16,0.13,3.18-1.4,3.27c-1.47,0.08-1.01-1.81-1.3-2.89c-0.97-3.61-0.14-7.66-2.38-11.73
		c-2.06,4.94-2.05,9.44-1.64,13.97c0.22,2.4,0.76,4.78,0.91,7.18c0.07,1.18,0.55,3.23-1.17,3.27c-1.39,0.03-0.97-1.89-1.05-3.02
		c-0.11-1.47,0-2.97-0.17-4.43c-0.14-1.25-0.93-2.29-1.95-0.92c-2.23,2.99-5.08,5.76-3.67,10.34c0.6,1.92,0.85,4.1-0.39,6.33
		c-0.98-1.18-1.58-2.3-2.5-2.93c-2.95-2.03-2.65-4.67-1.53-7.53c0.97-2.47,2.41-4.83,2.93-7.4c1.97-9.88,6.56-18.72,9.7-28.12
		c2.25-6.74,5.12-13.39,4.8-20.83c-0.05-1.12,0.09-2.35-1.18-2.61c-1.24-0.25-1.37,1.04-1.51,1.9c-1.19,7.62-4.39,14.57-7.45,21.39
		c-1.65,3.68-1.84,7.74-4.37,11.38c-3.87,5.55-6.81,11.69-11.92,16.41c-2.63,2.43-4.09,5.87-7.35,8.33
		c-5.4,4.07-9.07,10.4-11.66,17.07c-3.99,10.27-6.01,20.96-6.72,32.04c-0.71,11.08-2.15,22.11-3.21,33.18
		c-0.3,3.08-0.47,6.19,0.09,9.25c0.66,3.62,0.4,7.18,0.07,10.82c-0.93,10.1-3.29,20.02-2.15,30.39c0.66,6.01-0.03,12.34-1.03,18.36
		c-1.15,6.86-1,13.6-0.58,20.46c0.61,9.78,1.53,19.58,1.35,29.36c-0.18,10.16-1.14,20.29-0.25,30.47
		c0.45,5.19,0.44,10.44,1.19,15.58c0.39,2.69,1.62,5.74,4.75,6.2c3.88,0.57,7.37-1.35,9.65-4.27c2.03-2.6,3.39-6.08,4.16-9.41
		c0.64-2.8,5.08-5.58,0.71-8.88c-0.05-0.04-0.03-0.33,0.03-0.37c2.34-1.44,2.07-4.55,3.36-6.27c3.08-4.1,5.22-8.55,5.76-13.54
		c0.56-5.19,2.83-9.51,4.83-14.02c2.61-5.9,3.8-12.51,7.94-17.66c0.28-0.35,0.34-1.06,0.25-1.56c-0.45-2.76,1-5.04,1.61-7.53
		c0.77-3.14,2.53-5.81,3.42-8.93c2.61-9.11,5.23-18.22,7.28-27.47c2.42-10.93,6.08-21.47,9.14-32.19
		c3.67-12.82,7.12-25.72,11.25-38.42c5.4-16.62,10.6-33.35,14.88-50.31c3.03-12,7.29-23.37,12.41-34.41
		c1.55-3.34,2.54-6.63,3.23-10.18C320.68,453.38,323.26,447.88,327.87,443.61z M452.04,446.33c3.17,1.04,6.37-0.91,9.52,0.46
		c1.56,0.68,1.58-1.09,1.97-2.21c0.8-2.35-0.35-4.75,0.43-7.13c2.98-9.06,3.72-18.56,4.79-28c2.3-20.3,3.86-40.69,7.13-60.86
		c1.23-7.6,0.26-15.31,0.91-22.9c1.55-17.95-0.58-35.23-5.88-52.41c-2.81-9.1-12.49-9.81-18.06-4.69
		c-7.97,7.32-14.73,15.83-22.2,23.62c-10.96,11.43-19.2,25.21-27.08,39.16c-7.21,12.74-14.59,25.37-21.23,38.46
		c-5.95,11.75-11.65,23.7-15.32,36.43c-3.99,13.85-10.37,26.47-16.17,39.42c-3.47,7.76-7.08,15.48-8.63,24
		c-0.14,0.79-1.15,2.62,0.4,2.31c2.52-0.5,1.25,1.08,1.05,1.68c-2.82,8.21-5.24,16.63-8.71,24.53c-5.22,11.86-9.01,24.22-12.77,36.6
		c-2.37,7.8-2.4,16.19-4.96,24c-2.16,6.59-4.45,13.16-6.12,19.89c-3.37,13.61-6.21,27.37-9.54,40.99
		c-1.89,7.76-4.88,15.25-6.36,23.08c-2.07,10.95-5.66,21.38-8.68,32c-1.42,4.99-2.97,9.94-4.71,14.82
		c-4.07,11.39-8.53,22.63-12.37,34.1c-3.33,9.97-6.49,20.16-11.72,29.04c-5,8.47-7.9,16.87-7.26,26.76
		c0.21,3.27,3.73,9.65,6.37,9.01c2.57-0.62,4.36-0.06,6.51,0.54c0.53,0.15,0.92-0.41,0.89-1.03c-0.03-0.63-0.48-0.94-1.03-0.94
		c-1.16,0-2.38,0.28-2.4-1.64c-0.02-1.9-1.15-2.67-2.79-3.3c-1.33-0.5-2.39-1.76-3.74-2.82c2.72-1.71,4.94-2,7.22,0.15
		c1.42,1.33,3.03,2.5,4.7,3.46c1.5,0.86,4.41,2.19,4.64,1.84c2.58-4,3.13,0.18,3.82,1.15c2.4,3.36,4.8,6.44,8.66,8.22
		c5.69,2.62,11.18,5.73,16.78,8.58c1.2,0.61,2.65,1.37,2.34,2.78c-0.42,1.92-2.13,0.66-3.27,0.73c-1.77,0.11-3.5,0.39-5.26-0.46
		c-6.2-2.99-13.39-2.86-19.3-6.87c-2.95-1.99-6.11-3.64-9.21-5.38c-0.83-0.47-1.94-1.6-2.71-0.43c-0.9,1.38,0.53,2.25,1.43,2.78
		c7.13,4.19,12.33,10.99,20.11,14.69c5.57,2.65,11.26,5.35,16.9,7.99c2.54,1.19,5.39,1.89,8.18,0.49c1.32-0.66,2.23-0.02,3.03,0.92
		c1.38,1.62,3.19,2.12,5.11,2.46c3.78,0.67,7.54,1.39,11.31,2.1c1.26,0.24,2.84,0.4,2.93,2.05c0.13,2.43,1.7,1.89,3,1.97
		c7.21,0.41,13.81-1.83,20.16-5.14c0.92-0.48,2.18-1.93,2.81-0.25c0.52,1.38-1.2,1.67-2.22,2.16c-2.39,1.15-5.15,1.53-8.05,4.03
		c4.81-0.37,8.56,1.76,12.48,0.32c-0.34-1.81-2.5-1.12-2.71-2.76c4.23-0.14,8.1,1.47,10.02,4.07c0.27,0.37,0.84,0.72,1.27,0.72
		c4.05,0.01,8.25,0.81,12.01-2.19c-2.15-1.65-4.5-0.33-6.58-1.27c6.47-1.17,6.9-1.95,5-8.79c-0.18-0.64-0.44-1.26-0.65-1.9
		c-1.5-4.5-1.99-9.28-1.87-13.9c0.32-12.13,3.79-23.73,6.94-35.24c3.03-11.09,6.12-22.22,8.52-33.43c1.7-7.92,3.29-16,4.86-23.97
		c2.02-10.31,3.54-20.77,6.02-30.99c1.36-5.6,2.29-11.41,4.4-16.68c3.98-9.91,6.78-20.18,9.34-30.51c0.96-3.87,2.1-7.76,2.63-11.83
		c0.48-3.68,0.23-7.76,1.76-11.01c4.6-9.81,5.53-20.86,9.97-30.67c1.63-3.59,0.3-5.28-3.13-5.87c-0.84-0.14-2.17-0.5-2.35-1.08
		c-1.62-5.18-6.63-5.34-10.08-7.76c-1.35-0.94-2.76-2.06-2.14-3.8c0.75-2.11-0.29-3.61-0.75-5.37c-0.91-3.52-3.83-5.55-5.41-8.66
		c-7.58-14.98-11.47-30.76-11.93-47.77c-0.13-4.95,4.31-6.45,4.47-10.5c0.47,0.03,0.94,0.12,1.41,0.08
		c7.55-0.59,14.62,1.55,21.45,4.51c2.22,0.96,5.33,0.86,6.69,4.21c-2.02,0.35-4.16-1.5-5.29,1.29c-1.4,3.44-1.8,3.4-4.56-0.06
		c1.25-0.51,3.36,0.27,3.47-1.7c0.09-1.67-1.85-1.53-2.92-2.06c-4.32-2.15-8.96-3.1-13.67-3.72c-0.94-0.12-2.29-0.85-2.55,0.69
		c-0.26,1.53,1.18,1.23,2.12,1.55c3.7,1.27,7.35,2.7,11.02,4.07c-3.89,1.64-7.29,1-10.52-0.95c-0.89-0.54-1.81-1.16-2.81-0.3
		c-0.52,0.45-0.77,1.12-0.5,1.81c0.47,1.21,1.55,1.3,2.57,1.34c2.22,0.09,4.24,0.86,6.25,1.78c4.83,2.19,9.08,5.68,15.52,6.7
		c-3.4,1.45-5.35,0.39-7.24-0.58c-4.27-2.18-8.71-3.85-13.26-5.21c-1.68-0.5-4.04-1.45-4.71,0.84c-0.67,2.28,2.14,1.38,3.2,2.26
		c0.57,0.48,1.53,0.55,1.51,1.56c-0.02,0.72-0.45,1.3-1.14,1.45c-0.98,0.2-2.58-1.02-2.75,0.95c-0.14,1.61,1.2,2.52,2.42,3.34
		c5.72,3.82,11.68,7.13,17.99,9.76c2.21,0.92,3.65,0.79,3.52-1.96c-0.24-5.06,1.78-9.55,3.43-13.96c1.48-3.95,3.05-7.92,4.62-11.77
		c2.33-5.73,4.34-11.9,8.55-16.82c3.04-3.55,2.4-4.89-1.97-5.44c-6.65-0.84-12.59-4.35-19.17-5.34c-0.65-0.1-1.29-0.42-1.27-1.23
		c0.02-0.69,0.61-0.82,1.13-0.71c5.47,1.24,11.22,1.77,16.33,3.94c7.78,3.32,10.87,1.54,13.96-6c1.68-4.1,4.71-7.06,7.71-10.02
		c0.62-0.62,1.74-0.8,1.44-2.03c-0.26-1.08-1.21-1.24-2.08-1.49C456.85,448.54,454,448.76,452.04,446.33z M436.69,824.72
		c1.34,0.32,1.56-2.39,2.36-1.3c2.2,3.01,4.36,0.38,6.51,0.38c10.17-0.02,19.03-4.29,27.23-9.99c3.7-2.56,7.35-5.22,11.17-7.56
		c4.74-2.91,9.56-5.75,15.09-6.67c10.47-1.73,20.97-3.16,31.53-0.75c1.42,0.32,2.74-0.12,4.12-0.3c5.52-0.7,9.49-5.09,14.47-6.68
		c7.77-2.48,14.42-7.35,21.98-10.24c3.25-1.24,6.21-4.3,9.15-5.61c5.17-2.3,8.6-6.47,12.69-9.79c6.33-5.15,12.14-10.91,19.89-13.83
		c2.48-0.93,4.73-2.6,7.02-4.04c1.79-1.13,2.32-2.61,1.17-4.74c-2.03-3.76-2.9-7.95-4.08-12.07c-3.69-12.92-5.01-26.03-4.87-39.48
		c0.06-5.58,2.14-10.43,3.1-15.64c2.18-11.85,3.56-23.9,6.1-35.62c3.44-15.92,5.69-32.17,10.84-47.69
		c3.37-10.16,4.26-20.96,6.73-31.37c1.73-7.28,3.42-14.59,4.96-21.92c1.47-7.02,2.99-14.06,4.42-21.09
		c1.79-8.77,3.25-17.62,5.17-26.36c0.6-2.72,0.47-5.59,1.25-8.34c2.64-9.26,4.67-18.68,5.02-28.35c0.15-4.08,0.92-7.97,2.02-11.76
		c3.99-13.76,5.71-28.06,9.25-41.95c3.13-12.28,4.58-25.03,6.91-37.54c1.28-6.84,2.86-13.69,3.79-20.52
		c1.63-11.91,3.03-23.83,5.05-35.7c1.81-10.6,3.14-21.38,3.07-32.13c-0.07-10.48-0.57-21-1.42-31.5
		c-0.62-7.72-3.22-14.58-5.42-21.66c-1.63-5.23-5.24-6.04-9.26-2.34c-2.67,2.46-5.15,5.14-7.27,8.24
		c-6.02,8.82-11.1,18.35-18.17,26.36c-1.85,2.1-2.98,4.67-4.12,7.23c-2.12,4.73-3.98,9.62-6.45,14.14
		c-8.8,16.18-16.78,32.83-26.38,48.55c-9.53,15.61-17.22,32.23-23.04,49.82c-2.05,6.2-1.48,11.24,2.73,15.92
		c0.26,0.29,0.53,0.58,0.76,0.91c3.93,5.61,6.02,12.03,7.54,18.73c2.27,10.03,2.49,20.22,2.26,30.44c-0.14,6.08,0.8,12.27-1.93,18.1
		c-0.57,1.22-0.31,2.9-0.34,4.37c-0.03,1.2,0.17,2.36-0.4,3.54c-2.07,4.22-4.52,8.28-5.59,12.96c-0.96,4.22-4.5,6.68-6.17,10.27
		c-2.36,5.06-5.38,9.66-8.45,14.15c-3.84,5.6-8.44,10.61-12.59,15.99c-8.91,11.55-18.1,22.77-30.12,30.96
		c-0.84,0.57-1.14,1.39-1.28,2.35c-1.34,8.73-2.5,17.51-4.98,25.97c-2.21,7.56-3.38,15.46-5.9,22.85
		c-3.28,9.6-7.79,18.72-11.52,28.16c-2.54,6.43-4.46,13.14-7.03,19.55c-1.5,3.75-2.35,8.15-5.7,10.63c-1.38,1.02-2.42,1.9-2.69,3.51
		c-0.99,5.78-5.1,10.63-4.43,16.91c0.11,0.99-0.71,1.69-1.57,2.11c-1.11,0.55-1.67,1.53-2.2,2.66
		c-5.09,10.66-7.46,22.39-12.03,33.31c-3,7.17-5.54,14.69-8.3,22.04c-4.03,10.74-8.53,21.27-12.71,31.95
		c-3.64,9.3-6.71,18.88-10.8,27.95C441.37,808.81,439.07,816.72,436.69,824.72z M401.41,795.21c-0.29,3.46,1.03,7.74,1.73,12.1
		c0.61,3.8,3.95,4.49,6.47,5.61c2.24,1,2.11-2.4,3.41-3.49c0.83-0.7,1.18-2.03,1.78-3.06c3.12-5.38,4.99-11.39,8.06-16.87
		c5.11-9.12,9.24-18.85,13.91-28.24c0.74-1.48-0.4-3.37,0.33-4.02c4.75-4.26,5.43-10.69,7.92-16.09c4.37-9.49,7.75-19.5,12.26-28.92
		c3.72-7.78,6.11-16.2,10.87-23.53c2.47-3.81,3.06-8.79,5.82-12.81c2.63-3.83,3.32-8.78,2.93-13.57c-0.21-2.55-0.19-4.57,2.41-5.56
		c0.81-0.31,1.3-0.88,1.41-1.74c0.46-3.52,1.93-6.43,4.4-8.89c0.56-0.55,0.65-1.73,0.76-2.65c0.29-2.56,1.19-4.92,1.97-7.33
		c2.78-8.59,5.73-17.15,8.03-25.89c2.81-10.66,4.33-21.63,6.02-32.54c0.41-2.65,1.1-5.25,1.54-7.9c0.33-1.98-0.72-3.25-2.34-2.05
		c-3,2.22-6.38,3.58-9.72,4.64c-2.92,0.93-5.96,3.13-8.56,2.84c-5.2-0.56-9.69,0.72-14.33,2.62c-2.03,0.83-4.38,2.32-6.52,0.51
		c-4.83-4.08-7.92-3.45-9.43,2.7c-3.28,13.41-10.37,25.43-12.66,39.21c-0.55,3.31-0.22,7.33-2.5,9.81
		c-2.78,3.02-3.95,6.4-4.59,10.29c-0.41,2.5-0.99,4.98-1.56,7.45c-2.33,10.13-4.74,20.24-7.01,30.38c-0.78,3.49-0.31,7.44-1.4,10.61
		c-4.94,14.39-5.76,29.65-9.22,44.34c-2.39,10.14-4.28,20.41-6.52,30.59C404.83,773.84,401.63,783.69,401.41,795.21z M209.13,743.05
		c-0.23-2.57-3.18-4.31-1.66-6.6c2.51-3.77,1.29-7.72,1.13-11.61c-0.38-9.35-4.88-18.73,1.05-27.99c2.93-4.58-0.3-9.94,0.5-15.1
		c1.26-8.05-1.77-16.07-1.8-24.21c-0.05-11.92-1.32-23.78-0.31-35.77c0.6-7.01,1.3-14.18,0.19-21.29
		c-1.45-9.38,0.19-18.76,0.19-28.14c0-8.15,0.63-16.4,2-24.41c2.12-12.37,3.63-24.92,8.13-36.78c3.15-8.31,6.87-16.04,12.86-22.53
		c7.82-8.46,15.38-17.01,19.13-28.71c2.24-7.01,3.72-14.26,6.23-21.1c2.4-6.56,3.01-13.27,3.58-20.07c0.22-2.67,0.52-6.15-2.18-7.14
		c-2.23-0.82-4.7,1.16-6.86,2.71c-5.33,3.81-7.48,10.03-9.76,15.6c-3.96,9.67-9.78,18.25-13.57,27.96c-1.64,4.2-3.31,8.5-5.74,12.2
		c-3.51,5.33-6.38,10.84-8.62,16.92c-4.29,11.67-7.12,23.75-10.04,35.81c-2.67,11.03-4.53,22.31-7.72,33.17
		c-2.34,7.96-3.84,16.11-5.92,24.12c-3.07,11.77-3.9,23.99-4.7,36.17c-0.69,10.46-1.76,20.89-2.22,31.36
		c-0.31,7.09,0.64,14.19,2.37,21.05c1.16,4.6,0.33,9.44,2.16,13.98c0.64,1.6,2.46,3.23,1.68,5.13c-1.82,4.41,0.3,8.45,0.67,12.65
		c0.09,0.95,0.03,2.58,1.59,2.03c1.34-0.47,0.91-1.66,0.25-2.64c-0.64-0.95-1.12-1.95,0.27-2.62c1.65-0.79,2.04,0.64,2.33,1.76
		c1.04,4.01,1.85,8.08,4.36,11.5c0.45,0.62,0.71,1.99-0.43,2.41c-0.91,0.33-1.83-0.42-2.17-1.27c-0.58-1.47-0.98-3.03-1.28-4.6
		c-0.18-0.93-0.39-1.56-1.4-1.36c-0.91,0.18-1.28,0.88-1.17,1.78c0.27,2.27,0.73,4.5,1.84,6.52c1.3,2.35,1.47,4.84,0.93,7.53
		c-1.87-0.63-1.81-2.08-2.08-3.38c-0.15-0.73-0.68-1.15-1.42-0.98c-0.59,0.14-0.77,0.7-0.75,1.26c0.08,3.09-1.01,5.98-1.03,9.12
		c-0.06,12.11-0.14,24.22,2.55,36.07c1.31,5.79,1.47,11.94,4.51,17.25c2.59,4.52,6.61,8.1,8.29,13.18c1.42,4.29,5.41,5.92,7.9,9.16
		c6.21,8.12,12.02,8.56,17.91,0.12c1.2-1.72,3.01-3.01,4.06-4.8c2.32-3.98,5.09-7.79,3.25-13.15c-1.01-2.94-3.68-3.57-5.23-5.64
		c-2.73-3.66-4.9-8.05-7.78-11.2c-5.94-6.48-10.94-13.79-17.02-20.11c-2.07-2.15-2.95-5.09-3.29-8.5
		C206.63,740.78,207.06,742.7,209.13,743.05z M552.47,415.31c-13.68-1.33-26.46,2.43-39.11,7.18c-9.79,3.68-17.71,10.52-26.09,16.58
		c-1.32,0.96-1.64,2.45-1.87,4.18c-0.81,6.19,0.04,12.46-1.15,18.63c-1.31,6.82-1.16,13.83-2.85,20.65
		c-1.6,6.47-3.45,12.94-4.5,19.52c-1.78,11.2-5.68,21.67-9.16,32.29c-2.69,8.23-5.59,16.37-7.55,24.86
		c-0.52,2.24,0.56,4.9-0.79,6.45c-2.18,2.51-0.56,2.77,1.13,2.76c4.57-0.03,9.18-0.04,13.71-0.59c10.35-1.25,19.68-6.08,29.35-9.7
		c2.09-0.78,3.21-2.19,3.77-4.58c1.57-6.75,3.32-13.47,5.2-20.13c4.25-15.06,11.01-29.08,16.74-43.52
		c5.94-14.98,11.5-30.06,15.68-45.71c2.29-8.56,4.35-17.32,9.87-24.51c0.71-0.92,1.73-2.29,0.74-3.65
		C554.86,414.97,553.61,414.94,552.47,415.31z M537.25,537.65c0.33,0.19,0.66,0.38,1,0.58c3.82-2.53,7.74-4.9,11.43-7.62
		c5.37-3.96,8.82-9.92,12.57-15.29c7.49-10.71,15.99-20.67,20.83-33.43c3.22-8.5,5.68-16.69,4.76-25.91
		c-0.33-3.27-1.49-6.23-1.99-9.4c-1.27-8.16-5.09-15.04-9.98-21.35c-1.77-2.29-3.24-2.62-4.29,0.57
		c-2.46,7.47-4.93,14.93-6.94,22.57c-2.38,9.04-4.58,18.19-7.87,26.87c-2.61,6.88-4.1,14.08-6.68,20.93
		c-2.7,7.15-4.59,14.6-7.28,21.78C540.43,524.3,539.06,531.07,537.25,537.65z M184,539.83c1.21-6.29,1.71-12.61,2.75-18.83
		c0.77-4.61,2.09-9.12,3.08-13.69c0.16-0.76,0.98-1.82-0.33-2.4c-0.39-0.17-1.12,0.51-1.18-0.36c-0.02-0.32,0.61-0.75,1.01-1.02
		c0.41-0.28,1.24-0.58,0.95-1.01c-2.51-3.71,1.01-5.87,1.92-8.68c0.37-1.15,0.42-2.29-0.78-2.7c-1.2-0.4-2.06,0.46-1.98,1.73
		c0.18,3.28-1.59,5.91-3.41,7.83c-1.57,1.65-1.76,4.57-1.6,4.87c1.53,2.79-0.72,4.32-1.44,6.31c-0.23,0.62-0.53,1.23-0.65,1.88
		c-2.87,15.35-4.02,31.07-8.86,46c-0.6,1.85,0.01,3.56,1.47,4.66c1.8,1.36,2.29-0.88,3.32-1.62c0.39-0.28,0.81-0.52,1.34-0.86
		c-0.11,3.32-0.3,3.68-1.6,6.16c-4.45,8.48-8.4,17.12-6.92,27.28c0.14,0.97-1.5,2.5,0.56,2.78c1.34,0.18,1.88-1.33,2.1-2.49
		c0.42-2.22,0.56-4.49,0.93-6.71c0.14-0.84,0.75-1.48,1.66-1.27c1.02,0.23,1.04,1.11,0.73,1.91c-1.37,3.49-0.87,7.16-1.02,10.76
		c-0.07,1.63-0.06,3.59-1.94,3.92c-2.99,0.52-1.79,2.17-0.65,3.91c-4.58-0.76-6.29-3.49-7.09-7.42c-1.28-6.27,0.63-12.07,1.8-18.04
		c0.82-4.23-0.7-9.21,4.09-11.97c0.46-0.26,0.36-1.27-0.26-1.76c-0.42-0.34-1.35-0.43-1.32-0.07c0.19,2.54-2.4,2.25-3.29,3.82
		c-3.64,6.42-6.43,13.05-6.3,20.71c0.02,0.92-0.42,1.45-0.95,2.06c-1.35,1.55-2.88,3.12,0.2,4.59c0.94,0.45,0.57,1.36-0.27,1.82
		c-0.47,0.26-1.42-0.21-1.24,0.98c0.36,2.35,4.22,3.31,2.36,6.55c2.4,1.35,2.29,4.24,3.52,6.3c1.75,2.92,2.61,6.74,5.78,7.41
		c-1.62,4.56-4.16,9.05-4.64,13.76c-0.59,5.87,4.44,8.83,8.36,12.03c1.13-0.66-0.26-2.89,0.81-2.65c4.13,0.91,2.44-2.59,2.85-4.09
		c1.04-3.78,0.35-7.75,0.48-11.64c0.08-2.4-0.71-5.29,0.3-7.11c2.15-3.9,2.14-6.56-1.85-8.68c-0.1-0.05-0.01-0.5-0.01-0.75
		c3.48-0.67,3.48-0.67,4.04-4.37c0.18-1.19,0.47-2.38,0.54-3.58c1.07-18.46,6.19-35.92,11.02-53.56c3.64-13.3,9.57-26.43,6.89-41
		c-0.3-1.64,0.74-4.2-2.06-4.31c-2.57-0.11-3.89,1.49-4.12,4.25c-0.15,1.85,0.05,3.77-0.8,5.54c-1.96,4.11-2.75,8.51-3.3,13.06
		C188.52,533.83,187.33,537.45,184,539.83z M394.47,859.08c-1.06,0-1.55,0.02-2.03-0.01c-0.85-0.05-1.89-0.78-2.5,0.17
		c-0.79,1.23,0.55,1.86,1.04,2.69c5.88,9.89,16,8.75,23.09,4.08c5.48-3.61,9.46-9.18,11.75-15.89c1.26-3.68,1.92-7.49,3.03-11.17
		c1.02-3.4-0.22-4.31-2.94-4.16c-10.92,0.59-21.85,1.16-32.75,1.99c-6.28,0.48-6.25,0.69-5.62,7.27c0.1,1.07,0.15,2.15,0.11,3.21
		c-0.21,4.87-0.47,9.74,5.82,10.69C393.65,857.99,393.79,858.32,394.47,859.08z M433.93,533.77c0.29,2.58,0.64,7.27,1.85,11.81
		c0.49,1.83,1.25,3.56,3.22,4.19c0.27-1.89,2.22-2.58,2.67-4.47c2.88-11.82,5.68-23.65,9.54-35.19c3.86-11.56,3.72-24.1,7.43-35.74
		c0.8-2.52-1.43-3.53-3.1-4.42c-2.06-1.09-2.29,1.07-2.84,2.22c-3.41,7.16-6.85,14.32-10.23,21.5
		C436.8,505.75,434.07,518.36,433.93,533.77z M212.72,475.73c1.69-1.23,1.72-3.09,2.03-4.73c1.3-7.01,1.35-14.08,0.84-21.18
		c-0.12-1.64,1.83-4.46-0.84-4.61c-2.35-0.14-1.78,3.03-1.9,4.92c-0.13,2.14-0.04,4.29-0.03,6.44c0.01,3.21-1.03,6.27-0.74,9.53
		c-1.83-1.64-1.4-3.47-1.05-5.32c0.15-0.82,0.13-1.73-0.97-1.73c-0.94,0-1.32,0.72-1.27,1.64c0.09,1.59,0.83,3.59-0.4,4.64
		c-3.57,3.04-3.75,7.26-3.68,11.34c0.06,3.4-1.68,6.25-1,10.19c0.62,3.6-0.34,8.61-1.56,12.85c-1.19,4.16-1.54,8.43-0.66,13.55
		c4.91-14.57,3.43-29.33,6.75-43.26c0.94,1.64,0.54,3.19,0.3,4.76c-0.36,2.37-0.97,4.75-0.39,7.18c0.17,0.73,0.04,1.84,1.06,1.85
		c0.83,0.01,1.19-0.9,1.53-1.61c0.56-1.16,0.27-2.35,0.1-3.55c-0.3-2.15-0.54-4.31,0.15-7
		C211.71,473.32,211.44,474.68,212.72,475.73z M679.25,692.96c0.81-3.23,1.72-6.03,3.35-8.61c0.79-1.25,1.32-3.11-0.13-3.99
		c-1.92-1.15-2.1,1.2-2.79,2.27c-3.17,4.97-3.43,11.09-5.79,16.41c-1.28,2.87-2.01,6.02-3.13,9.47
		c6.15-2.93,12.59-10.92,13.45-16.16c0.1-0.6-0.01-1.14-0.54-1.31c-0.44-0.14-0.99-0.09-1.46,0.03
		C681.21,691.32,681.4,693.13,679.25,692.96z M404.7,519.08c-1-0.04-1.57,0.58-1.87,1.57c-0.65,2.13,0.91,2.88,2.19,3.69
		c5.91,3.76,12.72,4.88,19.11,7.23c0.7,0.26,1.56,0.57,2.06-0.3c0.46-0.8-0.08-1.53-0.46-2.23c-1.31-2.36-2.86-4.27-5.61-5.06
		C414.95,522.52,409.87,520.75,404.7,519.08z M210.76,438.85c-1.46-0.14-1.65,0.57-1.9,1.16c-3.56,8.35-6.27,17.12-11.12,24.85
		c-0.72,1.14-0.68,2.82-0.93,4.27c-0.26,1.53,0.76,2.28,1.74,1.56c1.7-1.26,4.23-2.2,4.34-4.73c0.21-4.9,2.32-9.04,4.34-13.18
		c0.81-1.65-0.25-3.43,0.99-4.87C210.49,445.28,209.9,441.93,210.76,438.85z M516.39,806.36c-11.04-3.27-19.61,2.98-28.69,7.15
		c2.28,0.47,4.57,2.1,6.68,0.94C501.25,810.66,509.38,811.14,516.39,806.36z M579.87,409.56c-1.07-0.25-2.17-0.3-2.47,1.09
		c-0.32,1.46,0.22,2.83,1.62,3.23c3.91,1.11,7.7,2.53,11.34,4.39c1.18,0.6,1.55,0.19,1.68-1.12c0.31-3.2-1.66-5.53-4.66-6.4
		C584.88,410.03,582.29,410.5,579.87,409.56z"/>
	<path class="st0" d="M607.19,849.6c3.68-5.56,9.24-7.79,14.99-10.25c-0.59-0.38-0.85-0.67-1.16-0.73c-1.38-0.3-3.57,1.54-4.02-0.53
		c-0.46-2.14,2.1-2.25,3.56-2.77c9.32-3.29,18.1-7.65,25.98-13.92c0.3-0.24,0.63-0.48,0.97-0.64c10.9-4.75,20.25-12.27,29.85-19.21
		c4.79-3.46,9.44-7.53,13.37-12.28c1.91-2.32,4.03-4.4,6.44-6.25c5.59-4.3,10.94-8.95,16.39-13.45c1.11-0.92,2.12-2.66,2.96,0.42
		c0.74,2.71,2.61-1.32,4.07,1.16c-1.48,1.43-3.12,3.18-4.93,4.71c-0.94,0.79-2.18,1.69-3.24-0.07c-1-1.66-1.95-0.82-2.69,0.22
		c-1.24,1.73,0.32,1.52,1.2,1.82c1.77,0.6,0.89,1.72,0.24,2.43c-1.94,2.09-3.84,4.3-6.06,6.02c-9.05,7.03-18.13,14.04-27.38,20.77
		c-6.07,4.42-12.45,8.38-18.72,12.48c-7.09,4.63-14.8,8.46-21.17,14c-5.12,4.45-11.12,6.32-16.61,9.57
		c-1.21,0.72-2.48,1.5-3.39,2.57C614.91,849.12,610.75,848.37,607.19,849.6z"/>
	<path class="st0" d="M824.8,671.3c-2.8-2.94-3.22-7.25-6.26-9.78c-0.9-0.75-0.92-1.92,0.27-2.68c1.44-0.92,1.43-2.3,1.44-3.8
		c-2.82-0.28-3.22,3.18-5.97,3.44c2.94-5.57,4.78-11.35,8.91-15.84c3.99-4.35,5.92-10.2,9.25-14.97c2.94-4.21,4.46-9.23,7.66-13.15
		c0.63-0.77,1.23-3.66,3.31-1.11c0.52,0.64,0.85-0.55,1.15-1.09c3.1-5.53,5.79-11.38,9.45-16.46c2.62-3.64,5.73-6.92,8.09-10.92
		c-0.29,3.9-1.74,7.22-4.16,10.01c-0.98,1.13-1.19,1.62-0.5,3.27c1.78,4.31-0.32,8.54-1.29,12.72c-0.31,1.33-1.86,0.75-2.71,0.39
		c-3.12-1.33-4.18,0.36-4.59,3.2c-0.65,4.47-2.49,8.77-1.5,13.49c0.29,1.36,0.01,2.91-1.37,4.33c-1.38-2.44-1.58-4.85-1.22-7.4
		c0.11-0.78,0.33-1.74-0.57-2.12c-0.94-0.39-1.45,0.47-1.7,1.19c-0.94,2.77-4.02,5.02-1.35,9.11c-4.68-2.4-6.51,1.19-7.39,3.74
		c-0.92,2.68-5.21,6.22,0.03,9.13c0.09,0.05,0.2,0.29,0.16,0.34c-3.27,4.85,0.23,10.7-2.05,16.66c-1.73-3.89-3.33-6.67-1.87-10.41
		c1.1-2.81-2.52-4.91-1.28-8.04c-3.33,2.18-4.65,4.31-0.54,6.46c-1.15,1.87-2.96-1.11-3.69,0.9c-0.54,1.47,0.96,2.37,1.34,3.62
		c0.55,1.8,0.9,3.46,0.34,5.45c-0.7,2.46-2.08,5.01-0.3,7.74C826.32,669.37,825.82,670.55,824.8,671.3z"/>
	<path class="st0" d="M803.01,285.28c-2.48,3.58-3.44,7.54-3.51,12.01c-0.06,3.53-0.89,7.1-1.71,10.56
		c-0.59,2.47-1.44,4.86-1.54,7.44c-0.02,0.53,0.07,1.38-0.2,1.55c-3.81,2.44-1.18,7.5-3.84,10.39c-0.2,0.22-0.24,0.81-0.12,1.13
		c1.29,3.34,1.37,3.37-0.21,6.48c-0.54,1.07-0.34,2.07-0.38,3.11c-0.06,1.46-0.74,2.39-2.17,2.06c-1.58-0.37-0.97-1.52-0.56-2.53
		c0.55-1.34,1.03-2.72,1.64-4.04c0.44-0.96,1.33-1.94,0.69-2.97c-2.28-3.6-0.32-7.39-0.34-11.02c-0.02-4.05,1.39-8.12,2.23-12.18
		c0.15-0.75,0.38-1.94,0.82-2.08c1.22-0.39,2.6-0.28,2.31-2.31c-0.33-2.27-2.12-1.92-3.53-2.3c-0.22-0.06-0.4-0.27-0.81-0.57
		c0.95-1.22,2.13-0.3,3.1-0.5c1.63-0.33,3.14-0.67,2.07-3.09c-0.67-1.52-0.03-2.65,0.99-3.93c2.6-3.27,1.91-5.21-2.03-6.49
		c-1.69-0.55-1.64-1.19,0.8-5.04c-0.73,4.01,2,2.88,3.44,3.65C801.08,284.86,802.05,285.07,803.01,285.28z"/>
	<path class="st0" d="M803.01,285.28c-0.96-0.21-1.92-0.42-2.89-0.63c-1.33-3.12-2.78-5.74,0.61-9.07c3.81-3.75,4.32-4.74,7.84-0.44
		c1.32,1.62,4.28,0.61,5.32,3.08c0,0-0.02-0.05-0.02-0.05c-1.3,0.96-2.94-1.97-4.02,0.28c-0.78,1.63-0.17,3.1,0.5,4.84
		c0.95,2.45,3.14,4.8,1.76,7.95c-0.59,1.33-0.87,3.21-2.63,2.79c-1.96-0.47,0.2-1.56-0.01-2.36c-0.09-0.35-0.33-0.96-0.49-0.96
		C805.48,290.71,805.5,286.46,803.01,285.28z"/>
	<path class="st0" d="M118.75,649.02c1.89-11.48,5.34-22.47,9.67-33.17C127.7,627.72,122.31,638.06,118.75,649.02z"/>
	<path class="st0" d="M139.75,684.56c-1.61,8.78-2.65,17.76-7.2,25.53c-0.37-0.13-0.75-0.25-1.12-0.38
		c2.22-8.57,4.44-17.14,6.65-25.71C138.65,684.19,139.2,684.37,139.75,684.56z"/>
	<path class="st0" d="M958.85,386.04c-2.82-8.57-4.38-17.45-6.23-26.75c3.33,0.65,3.8,2.08,3.6,4.63
		c-0.46,5.72,2.67,10.81,3.06,16.44c0.13,1.81,0.6,3.6,0.91,5.4C959.74,385.87,959.29,385.96,958.85,386.04z"/>
	<path class="st0" d="M579.25,352.5c1.26-3.28,2.45-6.59,3.78-9.83c3.98-9.75,8.69-19.12,13.15-28.63
		c6.44-13.72,13.1-27.31,20-40.78c5.57-10.88,12.88-20.67,17.52-32.08c1.85-4.54,3.18-9.46,5.74-13.51c3.74-5.9,6.04-12.36,8.2-18.9
		c0.66-1.99,2.51-1.55,3.46-3.16c1.73-2.91,2.23-7.55,4.53-8.69c3.79-1.87,3.32-7.12,6.11-7.94c8.46-2.47,12.57-12.41,21.74-12.82
		c0.02-2.5-2.1-1.59-2.73-2.69c3.37-1.95,4.31-1.75,6.14,1.68c0.54,1.01,1.14,1.72,2.14,2.13c5.81,2.37,10.94,10.4,11.05,17.19
		c0.04,2.7,1.17,5.25,1.96,7.63c3.42,10.24,2.57,20.91,3.72,31.36c1.33,12.08-1.53,23.89-1.82,35.83c-0.15,6.1-1.44,12.03-1.2,18.25
		c0.24,6.41-1.4,13-1.97,19.55c-0.76,8.63-1.7,17.24-2.68,25.84c-0.94,8.23-2.06,16.43-3.06,24.65c-1.34,11.04-2.47,22.1-4.01,33.1
		c-0.74,5.28-2.07,10.5-3.39,15.67c-1.89,7.4-2.55,15.06-4.36,22.44c-3.36,13.71-4.31,27.91-7.84,41.52
		c-1.64,6.34-3.08,12.76-4.22,19.13c-1.74,9.73-3.12,19.58-5.95,28.98c-2.2,7.31-2.46,15.05-5.26,22.14c-0.4,1-0.44,1.77,0.33,2.53
		c0.64,0.63,0.77,1.44,0.29,2.19c-4.88,7.61-4.58,16.66-6.55,25.11c-1.72,7.37-3.81,14.69-4.97,22.15
		c-1.12,7.22-1.35,14.59-2.69,21.81c-0.92,4.98-1.84,9.96-2.75,14.95c-3.23,17.77-4.94,35.54,0.45,53.23
		c0.35,1.15,0.73,2.31,1.28,3.36c1.34,2.54,2.98,3.17,5.64,1.51c4.39-2.74,6.81-7.26,9.57-11.35c6.2-9.19,12.77-18.3,16.83-28.76
		c5.83-15,14.83-28.32,20.15-43.54c0.29-0.82,0.41-1.87,1.71-2.25c-0.17,2.6-0.69,4.93-1.88,7.13c-1.67,3.09-2.31,6.53-2.88,9.98
		c-0.18,1.13,0.7,2.85-1.52,2.88c-0.49,0.01-0.78,0.92-0.44,1.31c2.62,3.03,0.17,5.55-0.79,8.1c-3.68,9.82-9.85,18.12-15.03,27.02
		c-2.88,4.95-5.94,10-6.56,16.06c-0.03,0.27-0.1,0.53-0.16,0.79c-0.7,3-4.56,3.92-4.86,6.13c-0.31,2.29,1.16,4.76-0.72,7.25
		c-1.04,1.37-2.08,3.37-1.23,5.26c1.6,3.53,0.31,4.92-2.98,5.33c-0.69,0.09-1.32,0.72-1.94,1.08c0.18,1.75,2.18,0.19,2.26,1.56
		c0.08,1.28-1.04,1.91-1.96,2.19c-2.72,0.84-5.61,3.42-8.11-0.63c-0.3-0.48-1.72-0.05-2.47-0.4c-6.22-2.89-9.56-8.5-11.06-14.97
		c-1.23-5.29-1.26-10.92-1.05-16.45c0.09-2.54,0.3-5.15-1.72-7.18c-0.32-0.32-0.68-1.16-0.52-1.39c4.72-7.05,2.47-15.49,4.15-23.17
		c2.18-9.93,3.16-20.13,5.13-30.12c2.56-12.98,6.08-25.77,8.29-38.82c2.21-13.11,6.29-25.73,8.28-38.88
		c1.02-6.74,3.25-13.2,4.39-19.97c2.06-12.24,4.58-24.41,7.39-36.49c1.97-8.45,2.62-17.15,4.73-25.5c2.32-9.19,3.06-18.67,5.5-27.85
		c2.43-9.13,4.5-18.46,5.93-27.77c0.98-6.39,2.72-12.87,2.18-19.51c-0.53-6.46,1.76-12.46,2.89-18.61
		c1.38-7.54,1.84-15.18,2.72-22.73c1.08-9.28,2.68-18.56,3-27.9c0.27-7.74,1.45-15.38,2.08-23.04c0.62-7.55,1.33-15.17,2.01-22.76
		c0.11-1.2,0.34-2.4,0.33-3.61c-0.13-13.53,0.63-27.05,0-40.6c-0.36-7.65-3.55-14.16-5.54-21.16c-0.94-3.32-2.46-6.41-4.49-9.23
		c-4.11-5.71-9.66-6.77-15.32-3.12c-10.99,7.09-18.18,17.51-24.8,28.88c-5.21,8.96-9.02,18.59-13.73,27.77
		c-2.49,4.87-5.06,9.79-7.35,14.82c-1.91,4.18-4.83,7.83-7.17,11.81c-6.9,11.73-12.66,24.12-18.87,36.25
		c-7.56,14.75-14.65,29.76-21.31,44.99c-1.04,2.39-2.06,4.86-3.9,6.73C579.89,352.82,579.57,352.66,579.25,352.5z"/>
	<path class="st0" d="M537.03,226.66c2.81-0.28,3.93-1.22,2.71-3.54c-0.5-0.95-0.68-1.93-0.09-3.05c3.55-6.67,0.02-15.53-5.81-19.1
		c-4.93-3.02-8.11-8.11-12.33-12.01c-1.9-1.75-0.12-4.54,1.27-6.52c2.18-3.11,5.51-4.8,8.44-6.82c3.88-2.68,7.95-5.95,12.11-7.17
		c7.71-2.26,15.12-5.54,23.5-6.17c11.8-0.88,23.4,0.54,34.96,1.5c9.33,0.77,18.84-1.33,28.05,2.03c4.9,1.78,9.45,4,13.15,7.74
		c2.89,2.91,3.82,6.58,2.16,10.7c-1.48,3.7-2.41,7.58-4.13,11.24c-3.63,7.72-10.81,11.64-16.03,17.64
		c-6.43,7.38-12.15,15.07-16.21,24.18c-3.67,8.24-9.15,15.2-15.85,20.9c-2.91,2.48-5.07,5.64-7.95,8.12
		c-4.29,3.69-9.12,5.75-14.51,6.72c-3.3,0.6-6.46-0.58-8.73-2.29c-4.78-3.59-10.25-6.17-13.92-11.57c-2.72-4-4.13-8.29-5.18-12.78
		c-1-4.28-1.37-8.73-2-13.11C540.3,230.89,539.76,228.58,537.03,226.66z M641,188.35c4.04-9.37,3.05-12.67-4.39-17.19
		c-5.52-3.35-11.41-5.42-17.85-5.13c-13.27,0.61-26.41-1.11-39.61-1.98c-5.2-0.34-10.89-0.8-15.86,1.54
		c-3.32,1.56-6.68,2.54-10.13,3.41c-2.61,0.66-5.4,0.87-6.28,4.33c-0.24,0.95-1.07,1.02-1.89,0.87c-4.65-0.86-8.53,1.59-12.23,3.74
		c-6.5,3.77-6.94,9.01-1.72,14.63c0.89,0.96,1.83,1.87,2.75,2.81c6.09,6.2,10.49,13.05,11.35,22.5c0.95,10.5,2.38,21.06,5.97,31.05
		c2.07,5.75,3.62,11.93,8.01,16.29c5.93,5.88,21.09,3.44,26.89-4.01c4.6-5.9,9.32-11.69,13.78-17.69c2.97-4.01,6.65-7.65,8.43-12.39
		c3.07-8.18,8.91-13.94,14.43-20.05c7.56-8.36,15.6-16.39,16.79-28.85c0.01-0.12,0.4-0.21,0.85-0.43
		C640.51,183.67,640.7,185.47,641,188.35z"/>
	<path class="st0" d="M553.98,372.85c-7.37,2.37-14.49-2.32-21.22,1.47c-0.92,0.52-2.25,0.3-3.39,0.31c-0.27,0-0.72-0.4-0.78-0.68
		c-0.06-0.28,0.23-0.91,0.43-0.95c2.53-0.44,3.93-3.14,6.85-3.2c4.65-0.09,9.29-0.92,13.91-1.61c5.94-0.88,11.01,2.87,16.7,3.34
		c2.04,0.17,3.95,1.19,4.99-1.77c0.37-1.06,1.63-1.36,2.66-0.83c1.3,0.67,0.82,1.93,0.35,2.79c-1.56,2.87-1.87,6.16-3.69,9.09
		c-2.08,3.33-3.64,7.35-4.03,11.6c-0.09,1.02-0.68,2.31-1.99,1.83c-1.04-0.38-0.7-1.58-0.45-2.47c0.37-1.28,0.91-2.5,1.22-3.79
		c1.5-6.38,1.52-6.54-4.5-7.91c-2.56-0.58-4.76-1.8-7.09-2.86C551.53,376.11,550.56,375.06,553.98,372.85z"/>
	<path class="st0" d="M219.86,671.72c0.84,1.59,0.41,3.29,2.71,4.4c1.39,0.67,0.88,3.66,0.96,5.64c0.24,5.89,0.09,11.78,0.55,17.69
		c0.56,7.17,2.07,14.25,1.87,21.85c-2.85-1.35-4.6-3.36-4.59-6.57c0.01-6.63-1.43-13.12-0.7-19.89c0.68-6.29,0.2-12.78-0.78-19.14
		C219.69,674.4,219.86,673.04,219.86,671.72z"/>
	<path class="st0" d="M734.22,479.52c0.93,3-0.33,5.83-1.18,8.45c-5.74,17.83-8.49,36.47-13.5,54.48c-0.31,1.12-0.43,2.75-2.05,2.16
		c-1.25-0.46-0.79-1.85-0.45-2.82c3.88-11.01,5.5-22.67,8.71-33.89C728.46,498.43,731.44,489.06,734.22,479.52z"/>
	<path class="st0" d="M651.47,618.73c1.05,0.11,1.33,0.91,1.53,1.67c2.27,8.66,7.06,16.28,9.24,24.97c0.21,0.86,0.94,1.99-0.28,2.39
		c-1.1,0.36-1.33-0.92-1.66-1.76c-3.05-7.91-6.11-15.82-9.12-23.75C650.74,621.07,650.1,619.74,651.47,618.73z"/>
	<path class="st0" d="M277.15,424.04c2.61-1.58,3.14-3.36,0.9-5.17c-1.66-1.34-1.27-2.93-1.33-4.66c-0.05-1.56,0.61-4.42-2.74-2.84
		c-0.71,0.34-1-0.59-1.07-1.26c-0.1-1.07,0.43-1.77,1.35-2.16c2.47-1.06,5.4,0.87,5.43,3.69c0.04,3.36,1.69,6.3,1.81,9.76
		C281.65,425.58,280.41,425.73,277.15,424.04z"/>
	<path class="st0" d="M659.11,656.99c-3.28-9.36-8.76-17.91-9.24-28.29C653.55,637.9,658.01,646.83,659.11,656.99z"/>
	<path class="st0" d="M647.25,638.72c4.07,7.32,5.04,15.55,7.82,23.11C651.15,658.57,645.64,641.93,647.25,638.72z"/>
	<path class="st0" d="M269.32,755.92c3.66,5.57,6.33,10.46,7.65,16.12c0.57,2.44,3.06,3.87,3.41,6.54c0.1,0.78,1.68,1.54,0.39,2.29
		c-1.2,0.7-2.27-0.21-2.55-1.55c-0.36-1.72-1.29-3.11-1.95-4.65c-2.34-5.47-6.14-10.22-7.3-16.26
		C268.89,757.94,269.1,757.41,269.32,755.92z"/>
	<path class="st0" d="M433.9,483.26c-5.57,2.12-9.82-0.81-14.2-2.05c-2.28-0.64-4.52-1.65-6.88-2.19c-0.64-0.15-1.33-0.45-1.3-1.22
		c0.03-0.81,0.78-1.01,1.42-0.99c1.64,0.05,3.57-0.36,4.88,0.38c4.56,2.6,9.55,3.53,14.43,4.94
		C432.68,482.25,433.04,482.66,433.9,483.26z"/>
	<path class="st0" d="M335.93,716.01c-3.54-0.49-6.31-2.88-8.11-5.31c-1.57-2.11-3.06-4.09-5.11-5.64
		c-0.31-0.24-0.71-0.38-0.94-0.68c-1-1.27-3.31-2.66-1.99-4.17c1.48-1.7,2.85,0.68,3.89,1.84
		C327.81,706.65,331.85,711.35,335.93,716.01z"/>
	<path class="st0" d="M597.63,660.79c-4.41,6.33-8.14,13.1-13.13,19.05c-8.08,9.63-16.65,18.75-25.19,27.88
		c-3.47,3.72-6.69,8.1-11.45,10.39c-0.45,0.22-0.95,0.54-1.21,0.96c-4.22,6.82-10.58,5.32-16.6,4.53c-3.52-0.46-6.72-5.75-6.92-9.52
		c-0.45-8.87,1.72-17.2,4.25-25.48c0.34-1.13,0.86-2.31,1.6-3.17c5.11-5.91,8.48-13.01,12.49-19.69
		c3.99-6.64,8.78-12.74,12.39-19.66c4.29-8.21,8.04-16.7,11.81-25.18c3.37-7.57,8.22-14.1,13.79-20.03c2.06-2.2,4.2-4.31,6.32-6.45
		c2.25-2.28,4.9-3.34,8.02-2.79c0.87,0.15,1.89,0.52,1.81,1.7c-0.08,1.16-1.08,0.8-1.81,0.86c-4.47,0.34-7.64,2.84-10.4,6.43
		c-3.48,4.53-7.6,8.41-10.65,13.45c-3.25,5.38-6.4,10.84-8.83,16.58c-4.33,10.23-9.67,19.82-15.32,29.22
		c-4.94,8.22-10.67,15.92-15.44,24.24c-2.53,4.41-5.05,9.12-4.43,14.91c1.24,11.59,16.04,15.27,22.86,9.37
		c10.74-9.3,21.15-18.79,30.3-29.93C586.87,672.4,590.9,665.25,597.63,660.79z M526.91,704.72c-0.46,2.34,0.54,3.05,0.78,4.04
		c0.42,1.71,0.46,4.68-0.34,4.8c-2.98,0.46-1.64,2.01-1.08,3.25c0.85,1.88,1.46,3.9,4.2,3.96c5.22,0.11,9.74-1.59,13.83-4.85
		c0.59-0.47,1.48-0.85,1.22-1.81c-0.28-1-1.27-0.89-1.96-0.7c-2.42,0.67-4.47-0.27-6.6-1.28
		C533.34,710.4,529.1,709.85,526.91,704.72z"/>
	<path class="st0" d="M590.87,726.66c-1.37-7.13-4.32-8.42-9.99-5.61c-8.04,3.98-16.13,8.23-24.5,11.02
		c-10.17,3.39-19.07,9.41-29.02,13.09c-3.04,1.12-4.89,5.14-4.06,7.36c1.26,3.35,4.41,5.05,7.86,4.19c2.24-0.56,4.08,1.1,6.28,1.11
		c3.04,0.01,6.1,0.43,9.13,0.84c1.8,0.24,2.63-0.7,3.09-2.25c0.68-2.3,1.17-4.66,1.96-6.91c0.36-1.03,0.92-2.74,2.22-2.31
		c1.57,0.51,0.54,2.08,0.27,3.11c-0.59,2.3-1.36,4.55-2.19,7.24c16.48-4.67,26.72-17.49,38.26-28.85c0.52,1.72-0.53,3.03-1.65,4.18
		c-8.72,9-17.09,18.46-28.24,24.35c-4.28,2.26-8.42,4.65-13.54,4.21c-2.06-0.18-4.59,1.7-6.24,0.98c-3.96-1.74-7.97-1.56-12.01-2.1
		c-3.34-0.44-5.82-3.38-7.61-6.33c-1.34-2.21-0.57-4.73,1-6.73c1.38-1.76,2.99-3.25,5.01-4.28c7.75-3.97,15.77-7.37,23.33-11.77
		c1.62-0.94,3.64-1.21,5.52-1.53c5.83-0.98,10.59-4.4,15.52-7.41c4.7-2.87,9.81-4.6,15.08-5.39
		C590.72,716.21,592.66,720.33,590.87,726.66z"/>
	<path class="st0" d="M679.61,278.21c-1.47,3.86-3.93,7.16-6.41,10.29c-3.08,3.89-6.72,7.28-10.16,10.84
		c-0.77,0.8-1.69,2.37-2.77,1.5c-1.34-1.09,0.29-2.15,0.89-2.94c4.15-5.4,8.37-10.74,12.66-16.02c1.16-1.43,2.37-2.77,3.19-4.47
		c0.37-0.78,0.57-2.04,1.74-1.71C679.9,276.04,679.41,277.24,679.61,278.21z"/>
	<path class="st0" d="M679.97,286.64c1.15,6.66,0.2,12.36-0.77,18.09c-0.7,4.11-2.6,7.94-2.54,12.23c0.02,1.4-0.32,3.08-1.68,3.15
		c-1.63,0.09-0.69-2.12-1.2-2.7c-3.19-3.62-0.1-5.73,1.27-8.55c0.73-1.5,3.24-4.04-0.26-5.72c-0.15-0.07-0.23-0.32-0.34-0.49
		C680.27,299.13,676.77,292.2,679.97,286.64z"/>
	<path class="st0" d="M671.38,275.33c-7.18,8.73-13.37,18.56-23.73,23.81C655.42,291.05,663.07,282.84,671.38,275.33z"/>
</g>
</svg>
