<?xml version="1.0" encoding="utf-8"?>
<!-- Generator: Adobe Illustrator 23.0.2, SVG Export Plug-In . SVG Version: 6.00 Build 0)  -->
<svg version="1.1" id="Capa_1" xmlns="http://www.w3.org/2000/svg" xmlns:xlink="http://www.w3.org/1999/xlink" x="0px" y="0px"
	 viewBox="0 0 1080 1080" style="enable-background:new 0 0 1080 1080;" xml:space="preserve">
<style type="text/css">
	.st0{fill:#220E34;}
</style>
<g>
	<path class="st0" d="M537.03,226.66c2.81-0.28,3.93-1.22,2.71-3.54c-0.5-0.95-0.68-1.93-0.09-3.05c3.55-6.67,0.02-15.53-5.81-19.1
		c-4.93-3.02-8.11-8.11-12.33-12.01c-1.9-1.75-0.12-4.54,1.27-6.52c2.18-3.11,5.51-4.8,8.44-6.82c3.88-2.68,7.95-5.95,12.11-7.17
		c7.71-2.26,15.12-5.54,23.5-6.17c11.8-0.88,23.4,0.54,34.96,1.5c9.33,0.77,18.84-1.33,28.05,2.03c4.9,1.78,9.45,4,13.15,7.74
		c2.89,2.91,3.82,6.58,2.16,10.7c-1.48,3.7-2.41,7.58-4.13,11.24c-3.63,7.72-10.81,11.64-16.03,17.64
		c-6.43,7.38-12.15,15.07-16.21,24.18c-3.67,8.24-9.15,15.2-15.85,20.9c-2.91,2.48-5.07,5.64-7.95,8.12
		c-4.29,3.69-9.12,5.75-14.51,6.72c-3.3,0.6-6.46-0.58-8.73-2.29c-4.78-3.59-10.25-6.17-13.92-11.57c-2.72-4-4.13-8.29-5.18-12.78
		c-1-4.28-1.37-8.73-2-13.11C540.3,230.89,539.76,228.58,537.03,226.66z M641,188.35c4.04-9.37,3.05-12.67-4.39-17.19
		c-5.52-3.35-11.41-5.42-17.85-5.13c-13.27,0.61-26.41-1.11-39.61-1.98c-5.2-0.34-10.89-0.8-15.86,1.54
		c-3.32,1.56-6.68,2.54-10.13,3.41c-2.61,0.66-5.4,0.87-6.28,4.33c-0.24,0.95-1.07,1.02-1.89,0.87c-4.65-0.86-8.53,1.59-12.23,3.74
		c-6.5,3.77-6.94,9.01-1.72,14.63c0.89,0.96,1.83,1.87,2.75,2.81c6.09,6.2,10.49,13.05,11.35,22.5c0.95,10.5,2.38,21.06,5.97,31.05
		c2.07,5.75,3.62,11.93,8.01,16.29c5.93,5.88,21.09,3.44,26.89-4.01c4.6-5.9,9.32-11.69,13.78-17.69c2.97-4.01,6.65-7.65,8.43-12.39
		c3.07-8.18,8.91-13.94,14.43-20.05c7.56-8.36,15.6-16.39,16.79-28.85c0.01-0.12,0.4-0.21,0.85-0.43
		C640.51,183.67,640.7,185.47,641,188.35z"/>
	<path class="st0" d="M553.98,372.85c-7.37,2.37-14.49-2.32-21.22,1.47c-0.92,0.52-2.25,0.3-3.39,0.31c-0.27,0-0.72-0.4-0.78-0.68
		c-0.06-0.28,0.23-0.91,0.43-0.95c2.53-0.44,3.93-3.14,6.85-3.2c4.65-0.09,9.29-0.92,13.91-1.61c5.94-0.88,11.01,2.87,16.7,3.34
		c2.04,0.17,3.95,1.19,4.99-1.77c0.37-1.06,1.63-1.36,2.66-0.83c1.3,0.67,0.82,1.93,0.35,2.79c-1.56,2.87-1.87,6.16-3.69,9.09
		c-2.08,3.33-3.64,7.35-4.03,11.6c-0.09,1.02-0.68,2.31-1.99,1.83c-1.04-0.38-0.7-1.58-0.45-2.47c0.37-1.28,0.91-2.5,1.22-3.79
		c1.5-6.38,1.52-6.54-4.5-7.91c-2.56-0.58-4.76-1.8-7.09-2.86C551.53,376.11,550.56,375.06,553.98,372.85z"/>
	<path class="st0" d="M219.86,671.72c0.84,1.59,0.41,3.29,2.71,4.4c1.39,0.67,0.88,3.66,0.96,5.64c0.24,5.89,0.09,11.78,0.55,17.69
		c0.56,7.17,2.07,14.25,1.87,21.85c-2.85-1.35-4.6-3.36-4.59-6.57c0.01-6.63-1.43-13.12-0.7-19.89c0.68-6.29,0.2-12.78-0.78-19.14
		C219.69,674.4,219.86,673.04,219.86,671.72z"/>
	<path class="st0" d="M651.47,618.73c1.05,0.11,1.33,0.91,1.53,1.67c2.27,8.66,7.06,16.28,9.24,24.97c0.21,0.86,0.94,1.99-0.28,2.39
		c-1.1,0.36-1.33-0.92-1.66-1.76c-3.05-7.91-6.11-15.82-9.12-23.75C650.74,621.07,650.1,619.74,651.47,618.73z"/>
	<path class="st0" d="M277.15,424.04c2.61-1.58,3.14-3.36,0.9-5.17c-1.66-1.34-1.27-2.93-1.33-4.66c-0.05-1.56,0.61-4.42-2.74-2.84
		c-0.71,0.34-1-0.59-1.07-1.26c-0.1-1.07,0.43-1.77,1.35-2.16c2.47-1.06,5.4,0.87,5.43,3.69c0.04,3.36,1.69,6.3,1.81,9.76
		C281.65,425.58,280.41,425.73,277.15,424.04z"/>
	<path class="st0" d="M659.11,656.99c-3.28-9.36-8.76-17.91-9.24-28.29C653.55,637.9,658.01,646.83,659.11,656.99z"/>
	<path class="st0" d="M647.25,638.72c4.07,7.32,5.04,15.55,7.82,23.11C651.15,658.57,645.64,641.93,647.25,638.72z"/>
	<path class="st0" d="M269.32,755.92c3.66,5.57,6.33,10.46,7.65,16.12c0.57,2.44,3.06,3.87,3.41,6.54c0.1,0.78,1.68,1.54,0.39,2.29
		c-1.2,0.7-2.27-0.21-2.55-1.55c-0.36-1.72-1.29-3.11-1.95-4.65c-2.34-5.47-6.14-10.22-7.3-16.26
		C268.89,757.94,269.1,757.41,269.32,755.92z"/>
	<path class="st0" d="M433.9,483.26c-5.57,2.12-9.82-0.81-14.2-2.05c-2.28-0.64-4.52-1.65-6.88-2.19c-0.64-0.15-1.33-0.45-1.3-1.22
		c0.03-0.81,0.78-1.01,1.42-0.99c1.64,0.05,3.57-0.36,4.88,0.38c4.56,2.6,9.55,3.53,14.43,4.94
		C432.68,482.25,433.04,482.66,433.9,483.26z"/>
	<path class="st0" d="M335.93,716.01c-3.54-0.49-6.31-2.88-8.11-5.31c-1.57-2.11-3.06-4.09-5.11-5.64
		c-0.31-0.24-0.71-0.38-0.94-0.68c-1-1.27-3.31-2.66-1.99-4.17c1.48-1.7,2.85,0.68,3.89,1.84
		C327.81,706.65,331.85,711.35,335.93,716.01z"/>
	<path class="st0" d="M597.63,660.79c-4.41,6.33-8.14,13.1-13.13,19.05c-8.08,9.63-16.65,18.75-25.19,27.88
		c-3.47,3.72-6.69,8.1-11.45,10.39c-0.45,0.22-0.95,0.54-1.21,0.96c-4.22,6.82-10.58,5.32-16.6,4.53c-3.52-0.46-6.72-5.75-6.92-9.52
		c-0.45-8.87,1.72-17.2,4.25-25.48c0.34-1.13,0.86-2.31,1.6-3.17c5.11-5.91,8.48-13.01,12.49-19.69
		c3.99-6.64,8.78-12.74,12.39-19.66c4.29-8.21,8.04-16.7,11.81-25.18c3.37-7.57,8.22-14.1,13.79-20.03c2.06-2.2,4.2-4.31,6.32-6.45
		c2.25-2.28,4.9-3.34,8.02-2.79c0.87,0.15,1.89,0.52,1.81,1.7c-0.08,1.16-1.08,0.8-1.81,0.86c-4.47,0.34-7.64,2.84-10.4,6.43
		c-3.48,4.53-7.6,8.41-10.65,13.45c-3.25,5.38-6.4,10.84-8.83,16.58c-4.33,10.23-9.67,19.82-15.32,29.22
		c-4.94,8.22-10.67,15.92-15.44,24.24c-2.53,4.41-5.05,9.12-4.43,14.91c1.24,11.59,16.04,15.27,22.86,9.37
		c10.74-9.3,21.15-18.79,30.3-29.93C586.87,672.4,590.9,665.25,597.63,660.79z M526.91,704.72c-0.46,2.34,0.54,3.05,0.78,4.04
		c0.42,1.71,0.46,4.68-0.34,4.8c-2.98,0.46-1.64,2.01-1.08,3.25c0.85,1.88,1.46,3.9,4.2,3.96c5.22,0.11,9.74-1.59,13.83-4.85
		c0.59-0.47,1.48-0.85,1.22-1.81c-0.28-1-1.27-0.89-1.96-0.7c-2.42,0.67-4.47-0.27-6.6-1.28
		C533.34,710.4,529.1,709.85,526.91,704.72z"/>
	<path class="st0" d="M590.87,726.66c-1.37-7.13-4.32-8.42-9.99-5.61c-8.04,3.98-16.13,8.23-24.5,11.02
		c-10.17,3.39-19.07,9.41-29.02,13.09c-3.04,1.12-4.89,5.14-4.06,7.36c1.26,3.35,4.41,5.05,7.86,4.19c2.24-0.56,4.08,1.1,6.28,1.11
		c3.04,0.01,6.1,0.43,9.13,0.84c1.8,0.24,2.63-0.7,3.09-2.25c0.68-2.3,1.17-4.66,1.96-6.91c0.36-1.03,0.92-2.74,2.22-2.31
		c1.57,0.51,0.54,2.08,0.27,3.11c-0.59,2.3-1.36,4.55-2.19,7.24c16.48-4.67,26.72-17.49,38.26-28.85c0.52,1.72-0.53,3.03-1.65,4.18
		c-8.72,9-17.09,18.46-28.24,24.35c-4.28,2.26-8.42,4.65-13.54,4.21c-2.06-0.18-4.59,1.7-6.24,0.98c-3.96-1.74-7.97-1.56-12.01-2.1
		c-3.34-0.44-5.82-3.38-7.61-6.33c-1.34-2.21-0.57-4.73,1-6.73c1.38-1.76,2.99-3.25,5.01-4.28c7.75-3.97,15.77-7.37,23.33-11.77
		c1.62-0.94,3.64-1.21,5.52-1.53c5.83-0.98,10.59-4.4,15.52-7.41c4.7-2.87,9.81-4.6,15.08-5.39
		C590.72,716.21,592.66,720.33,590.87,726.66z"/>
	<path class="st0" d="M679.61,278.21c-1.47,3.86-3.93,7.16-6.41,10.29c-3.08,3.89-6.72,7.28-10.16,10.84
		c-0.77,0.8-1.69,2.37-2.77,1.5c-1.34-1.09,0.29-2.15,0.89-2.94c4.15-5.4,8.37-10.74,12.66-16.02c1.16-1.43,2.37-2.77,3.19-4.47
		c0.37-0.78,0.57-2.04,1.74-1.71C679.9,276.04,679.41,277.24,679.61,278.21z"/>
	<path class="st0" d="M679.97,286.64c1.15,6.66,0.2,12.36-0.77,18.09c-0.7,4.11-2.6,7.94-2.54,12.23c0.02,1.4-0.32,3.08-1.68,3.15
		c-1.63,0.09-0.69-2.12-1.2-2.7c-3.19-3.62-0.1-5.73,1.27-8.55c0.73-1.5,3.24-4.04-0.26-5.72c-0.15-0.07-0.23-0.32-0.34-0.49
		C680.27,299.13,676.77,292.2,679.97,286.64z"/>
	<path class="st0" d="M671.38,275.33c-7.18,8.73-13.37,18.56-23.73,23.81C655.42,291.05,663.07,282.84,671.38,275.33z"/>
	<path class="st0" d="M435.83,847.11c-0.83-0.93-1.59,0.08-2.24,0.68c-0.01,0.01-0.03,0.03-0.04,0.04c0.36,0.98,0.63,1.99,0.82,3.02
		c0.25-0.45,0.48-0.9,0.78-1.29C435.66,848.9,436.61,847.98,435.83,847.11z"/>
	<path class="st0" d="M513.99,550.1c-2.16,2.54-4.92,4.45-7.79,6.12c-0.63,0.85-1.47,1.47-2.61,1.9c-9.67,3.62-19,8.45-29.35,9.7
		c-4.53,0.55-9.14,0.56-13.71,0.59c-0.3,0-0.6-0.01-0.88-0.03c-3.47,0.86-7.07,1.35-10.48,2.49c-0.56,1.02-1.6,1.63-3.4,1.55
		c-2.99-0.13-5.68-3.41-4.82-6.45c0.41-1.45,0.71-2.93,0.98-4.42c-0.37-4.2-2.07-7.97-3.32-11.94c-1.68-0.73-2.38-2.33-2.83-4.03
		c-1.21-4.54-1.56-9.23-1.85-11.81c0.14-15.41,2.87-28.02,8.54-40.1c3.38-7.18,6.82-14.34,10.23-21.5c0.55-1.15,0.78-3.31,2.84-2.22
		c1.19,0.63,2.65,1.33,3.11,2.58c1.6-3.45,3.79-6.68,6.33-9.78c0.33-2.03,0.65-4.06,0.98-6.1c0.61-3.83,2.72-6.78,5.02-9.68
		c-0.01-0.02-0.02-0.04-0.03-0.06c-1.81,1.29-4.19,1.66-6.39,0.99c-0.77-0.23-1.49-0.59-2.17-1c-0.22,0.06-0.48,0.03-0.83-0.12
		c-3.15-1.37-6.35,0.58-9.52-0.46c1.96,2.43,4.81,2.21,7.34,2.93c0.87,0.25,1.82,0.41,2.08,1.49c0.3,1.23-0.82,1.41-1.44,2.03
		c-3,2.96-6.03,5.92-7.71,10.02c-3.09,7.54-6.18,9.32-13.96,6c-5.11-2.17-10.86-2.7-16.33-3.94c-0.52-0.11-1.11,0.02-1.13,0.71
		c-0.02,0.81,0.62,1.13,1.27,1.23c6.58,0.99,12.52,4.5,19.17,5.34c4.37,0.55,5.01,1.89,1.97,5.44c-4.21,4.92-6.22,11.09-8.55,16.82
		c-1.57,3.85-3.14,7.82-4.62,11.77c-1.65,4.41-3.67,8.9-3.43,13.96c0.13,2.75-1.31,2.88-3.52,1.96c-6.31-2.63-12.27-5.94-17.99-9.76
		c-1.22-0.82-2.56-1.73-2.42-3.34c0.17-1.97,1.77-0.75,2.75-0.95c0.69-0.15,1.12-0.73,1.14-1.45c0.02-1.01-0.94-1.08-1.51-1.56
		c-1.06-0.88-3.87,0.02-3.2-2.26c0.67-2.29,3.03-1.34,4.71-0.84c4.55,1.36,8.99,3.03,13.26,5.21c1.89,0.97,3.84,2.03,7.24,0.58
		c-6.44-1.02-10.69-4.51-15.52-6.7c-2.01-0.92-4.03-1.69-6.25-1.78c-1.02-0.04-2.1-0.13-2.57-1.34c-0.27-0.69-0.02-1.36,0.5-1.81
		c1-0.86,1.92-0.24,2.81,0.3c3.23,1.95,6.63,2.59,10.52,0.95c-3.67-1.37-7.32-2.8-11.02-4.07c-0.94-0.32-2.38-0.02-2.12-1.55
		c0.26-1.54,1.61-0.81,2.55-0.69c4.71,0.62,9.35,1.57,13.67,3.72c1.07,0.53,3.01,0.39,2.92,2.06c-0.11,1.97-2.22,1.19-3.47,1.7
		c2.76,3.46,3.16,3.5,4.56,0.06c1.13-2.79,3.27-0.94,5.29-1.29c-1.36-3.35-4.47-3.25-6.69-4.21c-6.83-2.96-13.9-5.1-21.45-4.51
		c-0.47,0.04-0.94-0.05-1.41-0.08c-0.16,4.05-4.6,5.55-4.47,10.5c0.46,17.01,4.35,32.79,11.93,47.77c1.58,3.11,4.5,5.14,5.41,8.66
		c0.46,1.76,1.5,3.26,0.75,5.37c-0.62,1.74,0.79,2.86,2.14,3.8c3.45,2.42,8.46,2.58,10.08,7.76c0.18,0.58,1.51,0.94,2.35,1.08
		c0.25,0.04,0.48,0.09,0.71,0.15c0.98,0.12,1.96,0.2,2.96,0.24c2.2-0.84,4.54-1.3,6.84-0.53c0.88,0.29,1.5,0.69,2.04,1.15
		c0.56,0.22,1.08,0.76,1.49,1.43c0.17,0.28,0.35,0.53,0.53,0.76c0.25,0.27,0.52,0.55,0.83,0.82c0.03,0.03,0.06,0.05,0.09,0.08
		c0.54,0.39,1.17,0.61,1.95,0.64c0.22-0.1,0.48-0.23,0.83-0.4c2.39-1.13,4.15-2.73,6.93-2.94c3.13-0.23,5.39,0.56,6.95,1.98
		c0.68,0.41,1.4,0.92,2.17,1.57c2.14,1.81,4.49,0.32,6.52-0.51c4.64-1.9,9.13-3.18,14.33-2.62c2.6,0.29,5.64-1.91,8.56-2.84
		c3.34-1.06,6.72-2.42,9.72-4.64c0.32-0.23,0.61-0.37,0.88-0.43c3.13-2.22,6.38-4.29,9.3-6.81c0.53-2.04,1.08-4.07,1.7-6.08
		c0.48-1.56,0.9-3.13,1.31-4.71C514.18,549.86,514.09,549.98,513.99,550.1z M426.19,531.27c-0.5,0.87-1.36,0.56-2.06,0.3
		c-6.39-2.35-13.2-3.47-19.11-7.23c-1.28-0.81-2.84-1.56-2.19-3.69c0.3-0.99,0.87-1.61,1.87-1.57c5.17,1.67,10.25,3.44,15.42,4.9
		c2.75,0.79,4.3,2.7,5.61,5.06C426.11,529.74,426.65,530.47,426.19,531.27z"/>
	<path class="st0" d="M557.47,407.32c-0.38,0.01-0.76-0.01-1.13-0.06c-2.12-0.28-4.24-0.53-6.49-0.09c0.48-1.92,2.59-0.91,3.01-2.52
		c-1.29-1.2-2.7-0.22-3.97-0.1c-6.07,0.56-12.14,1.3-18.2,1.99c-0.49,0.06-1.29,0.06-1.43,0.36c-3.07,6.44-9.71,6.28-14.82,8.85
		c-7.61,3.82-15.61,6.86-22.71,11.7c-0.88,0.98-1.82,1.91-2.94,2.7c-3.17,2.23-6.91,3.33-10.21,5.32c-0.04,3.28,0.06,6.57,0.1,9.86
		c3.29-3.4,7.43-6.2,11.74-8.58c7.26-5.42,14.39-11.05,22.95-14.27c10.88-4.08,21.85-7.43,33.41-7.44c2.32-0.36,4.48-0.31,6.53,0.07
		c0.67-0.08,1.33,0.03,1.85,0.44c1.75,0.51,3.44,1.26,5.1,2.2c0.45-0.82,0.95-1.61,1.52-2.37c0.77-1.02,0.62-2.81,0.89-4.25
		c0.2-1.07,0.38-2.14,0.58-3.2C561.35,408.29,559.34,407.99,557.47,407.32z"/>
	<path class="st0" d="M767.06,603.95c-1.51-0.31-2.15,0.94-2.13,2.2c0.07,5.29-2.94,9.64-3.8,14.73
		c-1.66,9.81-8.47,16.5-14.82,23.24c-7.93,8.43-17.44,14.78-26.69,21.38c-3.17,2.26-5.39,5.83-9.16,7.13
		c-1.05,0.36-2.4,1.05-3.09-0.35c-0.65-1.3,0.88-1.65,1.49-2.41c2.67-3.31,6.98-4.13,9.79-7.33c1.52-1.73,2.03-4.04,3.58-5.64
		c0.81-0.84,1.98-1.41,1.55-2.91c-0.09-0.29-0.59-0.7-0.81-0.65c-1.27,0.3-1.64,1.57-2.21,2.59c-0.25,0.45-0.29,1.03-0.51,1.51
		c-0.79,1.71-1.74,2.13-2.56,0.09c-1.45-3.61-2.99-4.69-5.26-0.61c-0.54,0.97-2.14,0.96-2.48,2.47c1.25,0.33,2.82,0.3,1.63,2.59
		c-0.77,1.48-1.69,2.45-2.92,3.49c-2.2,1.84-5.75,5.19-3.95,7.14c3.43,3.72,0.38,4.34-1.25,5.87c-2.18,2.06-4.48,3.98-6.75,5.94
		c-0.79,0.68-1.81,1.66-2.69,0.76c-1.23-1.27,0.42-1.65,1.02-2.34c0.33-0.38,0.79-0.85,0.79-1.27c-0.05-4.31,1.12-7.94,3.95-11.3
		c1.15-1.36,3.32-0.85,3.74-3.01c-0.33-0.18-0.64-0.48-0.95-0.48c-1.56-0.01-3.74,1.25-4.33-1.05c-0.59-2.29,1.88-3.21,3.14-4.61
		c0.59-0.65,1.4-0.42,2.17-0.21c0.84,0.23,1.52-0.06,1.84-0.96c0.35-0.99,0.16-1.92-0.62-2.55c-0.8-0.64-1.78-1.04-2.57-1.69
		c-0.5-0.41-0.74-1.17-0.38-1.83c0.43-0.79,1.02-0.58,1.57-0.08c2,1.81,1.87,0.47,2.78-1.33c1.55-3.05,0.45-5.71,0.3-8.55
		c-0.03-0.67,0.01-1.45-0.71-1.7c-0.77-0.28-1.1,0.42-1.43,1c-0.39,0.67-0.71,1.62-1.67,0.99c-0.07-0.05-0.14-0.13-0.2-0.22
		c-0.18,0.44-0.36,0.89-0.54,1.33c-5.2,12.54-11.21,24.65-18.67,36c0.33,0.94-0.09,2.14-0.65,3.03c-1.63,2.58-2.54,5.38-3.35,8.61
		c2.15,0.17,1.96-1.64,2.96-1.89c0.47-0.12,1.02-0.17,1.46-0.03c0.53,0.17,0.64,0.71,0.54,1.31c-0.86,5.24-7.3,13.23-13.45,16.16
		c1.12-3.45,1.85-6.6,3.13-9.47c1.12-2.52,1.76-5.22,2.47-7.88c-3.37,4.45-7.13,8.78-11.4,12.34c-1.91,4.88-3.62,9.84-5.14,14.9
		c-0.78,2.63-0.45,5.37-1.11,7.95c-1.7,6.57-2.89,13.41-5.5,19.57c-3.54,8.37-11.49,9.89-19.25,4.02
		c-5.88-4.45-9.38-10.47-11.49-17.48c-2.34-1.99-4.42-4.24-6.2-6.74c-0.22,0.17-0.44,0.34-0.66,0.5c0.42,1.77,0.87,3.54,1.37,5.31
		c1.18,4.12,2.05,8.31,4.08,12.07c1.15,2.13,0.62,3.61-1.17,4.74c-2.29,1.44-4.54,3.11-7.02,4.04c-7.75,2.92-13.56,8.68-19.89,13.83
		c-4.09,3.32-7.52,7.49-12.69,9.79c-2.94,1.31-5.9,4.37-9.15,5.61c-7.56,2.89-14.21,7.76-21.98,10.24
		c-4.98,1.59-8.95,5.98-14.47,6.68c-1.38,0.18-2.7,0.62-4.12,0.3c-10.56-2.41-21.06-0.98-31.53,0.75
		c-5.53,0.92-10.35,3.76-15.09,6.67c-3.82,2.34-7.47,5-11.17,7.56c-8.2,5.7-17.06,9.97-27.23,9.99c-2.15,0-4.31,2.63-6.51-0.38
		c-0.8-1.09-1.02,1.62-2.36,1.3c1.5-5.04,2.97-10.04,4.71-14.96c-1.49,0.64-2.98,1.27-4.47,1.88c-0.01,0.01-0.03,0.02-0.04,0.03
		c-0.91,1.93-1.83,3.86-2.76,5.78c-2,4.13-2.45,9.11-6.59,11.94c-1.53,1.05-1.37,0.96-3.01-0.47c-0.87-0.76-2.46-0.7-3.07,0.47
		c-1.43,2.75-3.82,2.54-6.04,2.35c-8.54-0.73-17.04-0.1-25.57,0.41c-2.18,0.13-5.97,0.66-4.47-4.48c0.39-1.33-2.12-2.42-2.68-4.38
		c-0.23-0.79-0.44-1.58-0.65-2.37c-0.87,0.19-1.76,0.35-2.65,0.49c1.21,5.01,0.25,5.76-5.52,6.8c2.08,0.94,4.43-0.38,6.58,1.27
		c-3.76,3-7.96,2.2-12.01,2.19c-0.43,0-1-0.35-1.27-0.72c-1.92-2.6-5.79-4.21-10.02-4.07c0.21,1.64,2.37,0.95,2.71,2.76
		c-3.92,1.44-7.67-0.69-12.48-0.32c2.9-2.5,5.66-2.88,8.05-4.03c1.02-0.49,2.74-0.78,2.22-2.16c-0.63-1.68-1.89-0.23-2.81,0.25
		c-6.35,3.31-12.95,5.55-20.16,5.14c-1.3-0.08-2.87,0.46-3-1.97c-0.09-1.65-1.67-1.81-2.93-2.05c-3.77-0.71-7.53-1.43-11.31-2.1
		c-1.92-0.34-3.73-0.84-5.11-2.46c-0.8-0.94-1.71-1.58-3.03-0.92c-2.79,1.4-5.64,0.7-8.18-0.49c-5.64-2.64-11.33-5.34-16.9-7.99
		c-7.78-3.7-12.98-10.5-20.11-14.69c-0.9-0.53-2.33-1.4-1.43-2.78c0.77-1.17,1.88-0.04,2.71,0.43c3.1,1.74,6.26,3.39,9.21,5.38
		c5.91,4.01,13.1,3.88,19.3,6.87c1.76,0.85,3.49,0.57,5.26,0.46c1.14-0.07,2.85,1.19,3.27-0.73c0.31-1.41-1.14-2.17-2.34-2.78
		c-5.6-2.85-11.09-5.96-16.78-8.58c-3.86-1.78-6.26-4.86-8.66-8.22c-0.25-0.35-0.48-1.11-0.79-1.75c-0.8-0.08-1.6-0.16-2.39-0.26
		c-0.2,0.23-0.41,0.51-0.64,0.86c-0.2,0.31-2.46-0.68-4.02-1.5c-1.61-0.25-3.26-0.55-4.88-0.95c-0.11,1.01-0.51,2-1.15,2.82
		c0.01,0.1,0.02,0.19,0.03,0.29c0.02,1.92,1.24,1.64,2.4,1.64c0.55,0,1,0.31,1.03,0.94c0.03,0.62-0.36,1.18-0.89,1.03
		c-2.15-0.6-3.94-1.16-6.51-0.54c-1.27,0.31-2.75-1.02-3.96-2.84c-3.87-1.97-8.26-3.89-11.19-6.76c-0.39,1.26-1.13,2.24-2.4,2.12
		c-1.55-0.16-3.38-0.95-3.13-3.58c0.27-2.89-2.43-3.39-3.97-4.83c-5.49-5.14-11.12-10.09-13.88-17.7c-0.94-2.59-0.06-3.04,1.9-3.28
		c1.4-0.17,2.78-0.42,4.18-0.5c3.61-0.2,6.35-1.64,8.41-4.03c-0.06-1.35-0.09-2.71-0.07-4.06c-1.99,1.43-4.17,2.58-6.6,3.3
		c-2.03,0.61-3.67-0.03-4.75-1.21c-0.58,0.02-1.16,0-1.76-0.08c-3.13-0.46-4.36-3.51-4.75-6.2c-0.04-0.28-0.07-0.56-0.11-0.83
		c-2.47-2.16-4.32-4.9-5.74-7.93c0.08,2.15-0.16,4.3-1.55,6.38c-1.52,2.29,1.43,4.03,1.66,6.6c-2.07-0.35-2.5-2.27-4.24-3.18
		c0.34,3.41,1.22,6.35,3.29,8.5c6.08,6.32,11.08,13.63,17.02,20.11c2.88,3.15,5.05,7.54,7.78,11.2c1.55,2.07,4.22,2.7,5.23,5.64
		c0.73,2.12,0.73,4,0.32,5.74c1.29,2.69,1.9,5.72,1.85,9.15c-0.08,6.46-2.67,13.06-1.46,19.51c0.56,0.1,1.12,0.2,1.67,0.32
		c0.67,0.15,0.85-0.27,1.01-0.83c1.06-3.85,3.88-4.97,7.29-5.14c-0.38,3.23-4.34,3.02-5.25,6.13c3.44,0.41,5.84-1.96,8.52-3.17
		c4.67-2.12,9.09-4.82,13.98-6.43c1.82-0.6,3.6-0.15,4.25,1.63c0.78,2.15-1.44,2.13-2.58,2.6c-6.73,2.8-13.5,5.51-19.98,8.91
		c-1.23,0.64-2.71,1.08-3.43,3.26c8.77-2.51,16.59-6.08,23.96-10.32c4.7-2.7,8.04-1.81,11.9,0.82c5.51,3.75,11.75,5.71,17.91,7.84
		c1.39,0.48,3.76,0.05,3.94,1.67c0.24,2.13-2.28,2-3.65,2.79c-0.13,0.07-0.1,0.44-0.15,0.75c1.72,0.57,3.35-0.12,4.77-0.82
		c2.99-1.48,5.78-0.84,8.47,0.53c1.56,0.79,3.08,0.87,4.74,1.04c4.27,0.43,8.5,1.33,13.41,2.16c-3.96,2.76-9.18,0.32-11.55,5.33
		c4.06-3.23,9.5-1.06,13.54-4.32c0.65-0.52,1.42-0.87,2.15-0.53c3.19,1.47,6.56,0.58,9.83,0.95c9.87,1.13,19.64,3.07,29.67,2.7
		c5.34-0.19,7.95,0.35,9.17,2.82c1.47-0.52,3.14-0.74,4.77-0.78c0.18-2.31,1.49-2.52,5.86-2.86c10.9-0.83,21.83-1.4,32.75-1.99
		c2.72-0.15,3.96,0.76,2.94,4.16c-0.18,0.6-0.34,1.21-0.5,1.82c0.25,0.16,0.5,0.33,0.74,0.54c0.99,0.88,1.84,1.85,2.56,2.88
		c0.45-2.51,1.29-4.94,1.69-7.43c0.74-4.69,4.14-3.33,6.21-2.76c2.74,0.76-0.52,2.6-0.15,4.02c0.09,0.34,0.21,0.68,0.36,1.19
		c2.49-1.08,2.09-4.72,5.01-5.68c-1.19,4.2-3.93,7.17-5.19,10.96c-1.02,3.06-2.42,5.98-3.76,8.92c0.63-0.14,1.22-0.14,1.78-0.02
		c0.24-0.37,0.44-0.76,0.64-1.15c2.12-4.28,4.19-8.59,6.28-12.89c1.92-3.96,3.6-8.14,8.99-7.79c1.43,0.09,2.46-1.2,3.58-2.13
		c1.34-1.12,3.37-2.75,4.64-0.86c1.88,2.78,2.64,0.83,3.1-0.53c0.78-2.3,2.4-3.01,4.34-3.34c5.68-0.96,11.16-2.82,16.82-3.97
		c7.17-1.46,14.03-4.79,20.93-7.55c8.5-3.4,16.73-8.1,26.35-4.94c0.8,0.27,1.77-0.03,2.66-0.06c9.89-0.32,16.95-7.3,24.44-12.54
		c2.9-2.03,5.78-4.36,8.97-5.82c7.87-3.62,15.08-7.85,20.97-14.83c5.02-5.96,10.36-11.84,16.76-16.33
		c4.86-3.41,10.7-4.88,15.53-8.42c1.57-1.15,2.89-0.11,3.92,1.29c5.8,7.85,20.24,12.01,30.36,6.37c6.48-3.61,10.09-9.77,9.96-17.18
		c-0.1-5.42-1.72-10.79-0.51-16.23c1.05-4.77,1.28-10.46,6.1-12.68c8.79-4.05,14.23-12.03,20.88-18.54c2.45-2.4,5.74-3.8,7.62-6.43
		c6.8-9.5,16.36-15.4,25.41-21.76c12.64-8.88,24.6-18.19,32.65-32.15c4.71-8.17,6.51-17.4,9.06-26.36
		C768.34,605.52,768.41,604.23,767.06,603.95z M264.46,809.38c-4.59,1.86-8.94,4.44-13.82,5.44c-0.51,0.1-1.15-0.48-1.73-0.75
		c3.79-4.21,8.92-5.77,13.9-7.63c0.92-0.35,1.74,0.3,2.18,1.22C265.32,808.35,265.08,809.13,264.46,809.38z M494.38,814.45
		c-2.11,1.16-4.4-0.47-6.68-0.94c9.08-4.17,17.65-10.42,28.69-7.15C509.38,811.14,501.25,810.66,494.38,814.45z"/>
	<path class="st0" d="M832.13,339.26c-0.39-13.4-1.92-26.71-5.88-39.58c-0.82-2.67-2.01-5.61-1.63-8.2
		c0.82-5.59-1.64-10.11-3.2-14.94c-2.69-8.31-6.9-15.85-10.99-23.45c-0.02-0.04-0.03-0.07-0.05-0.1c-1.75-1.76-3.38-3.65-4.92-5.6
		c-0.51,0.35-1.03,0.7-1.52,1.06c0.52,2.66,0.61,5.4,0.55,8.19c0.08,0.15,0.15,0.33,0.16,0.59c0.21,3.72,2.34,5.34,5.09,6.71
		c0.37,0.19,0.74,0.89,0.74,1.35c-0.04,4.66,2.86,8.43,3.41,12.9c1.16,0.83,2.43,1.54,2.86,3.09c2.55,9.35,5.01,18.74,8.29,27.86
		c0.45,1.24,0.73,2.62,0.28,3.96c-1.21,3.65-0.23,6.83,1.72,9.86c0.67,1.04,1.93,2.13,0.06,3.29c-1.01,0.62-0.53,1.56-0.47,2.5
		c0.21,3.62,2.44,6.88,0.85,10.94c-0.85,2.18-1.64,5.19-0.04,7.86c1.54,2.58,3.05,5.28-0.31,7.72c-0.13,0.1-0.14,0.55-0.07,0.78
		c1.55,4.84-0.14,9.63-0.47,14.37c-0.5,7.18-0.08,14.36-0.95,21.57c-0.85,7.05-2.67,13.87-3.52,20.9
		c-0.99,8.2-2.15,16.42-4.82,24.29c-0.59,1.73-0.97,3.76-0.73,5.55c0.83,6.23,1.94,12.4-0.17,18.59c-0.09,0.26,0.21,0.76,0.44,1.03
		c1,1.18,1.38,2.24-0.16,3.31c-0.57,0.39-0.35,0.97,0.23,1.18c4.6,1.66,2.88,5.63,2.88,8.88c-0.01,7.74-2.08,15.03-4.38,22.32
		c-3.98,12.6-8.9,24.71-14.38,36.7c-3.25,7.11-10.23,11.43-11.75,19.28c-1.02,5.28-5.25,8.48-6.8,13.38
		c-2.79,8.82-7.6,16.66-11.38,25c-1.37,3.02-2.96,6.17-2.39,10.33c2.52-2.2,4.32-4.48,5.43-7.08c2.25-5.27,3.69-10.96,6.23-16.05
		c6.59-13.18,13.6-26.14,20.45-39.18c4.56-8.69,8.9-17.54,11.98-26.89c2.15-6.56,3.65-13.55,6.29-19.77
		c3.08-7.23,2.27-14.74,3.32-21.99c0.63-4.3-0.17-9.45-0.32-14.23c-0.16-4.81-0.28-9.4,0.53-14.31c0.91-5.52,3.38-10.78,3.05-16.5
		c-0.34-5.95,0.86-11.75,1.44-17.6c1.4-13.98,5.88-27.44,6.43-41.55c0.25-6.27,0.2-12.59-0.17-18.85c-0.13-2.19-0.63-3.17,1.72-4.76
		C836.72,342.87,832.22,342.35,832.13,339.26z"/>
	<path class="st0" d="M229.39,444.24c-0.69-5.97-0.04-10.97-0.23-16.41c-2.62,2.05-1.89,4.96-2.5,7.14
		c-1.02,3.63-1.46,7.7,0.45,11.33c0.42,0.8,0.58,1.52,0.55,2.16C228.24,447.05,228.81,445.64,229.39,444.24z"/>
	<path class="st0" d="M208.24,470c-1.98,8.32-2.26,16.95-3.2,25.65c1.83-4.45,3.73-8.8,5.5-13.04c-0.29,0.6-0.66,1.19-1.32,1.18
		c-1.02-0.01-0.89-1.12-1.06-1.85c-0.58-2.43,0.03-4.81,0.39-7.18C208.78,473.19,209.18,471.64,208.24,470z"/>
	<path class="st0" d="M787.4,227.73c1.44,1.18,2.84,2.37,4.09,3.71c0.24-0.49,0.48-0.97,0.75-1.45c-0.45-0.74-0.86-1.5-1.27-2.26
		c-0.75-1.14-1.36-2.32-1.89-3.53c-0.32-0.34-0.63-0.78-0.95-1.34c-3.28-5.81-7.24-11.02-12.05-15.52
		c-0.63-0.59-1.23-1.52-1.34-2.36c-0.42-3.14-2.47-4.85-4.68-6.52c-1.99-1.51-4.85-3.69-4.35-5.71c0.88-3.54-1.42-3.74-2.91-5.09
		c-1.16-1.05-2.1-2.34-3.2-3.46c-5.88-5.95-12.1-11.59-19.31-15.54c-8.56-4.69-18.34-6-27.29-9.77c-5.87-2.48-11.96-4.36-17.94-6.57
		c-1.15-0.43-1.84-1.21-1.57-2.78c0.3-1.78-0.84-2.68-2.32-2.1c-4.88,1.91-9.01-1.63-13.62-1.89c-4.35-0.25-8.55-2.79-13.08-0.77
		c-0.76,0.34-1.8,0.21-2.65,0.02c-9.19-2.04-18.58-1.89-27.86-2.98c-4.17-0.49-8.98,0.44-12.4-1.47c-3.68-2.05-7.33,2.1-10.61-1.44
		c-1.11-1.19-3.32,1.4-5.88,0.94c-2.35-0.43-5.78,0.57-8.6,0.87c-12.48,1.34-25.03,1.89-37.01,6.42c-0.75,0.29-1.83,0.1-2.59-0.26
		c-1.43-0.66-2.84,0.18-4.08-0.06c-3.08-0.58-2.58,3.23-4.63,3.7c-3.36,0.77-6.71,1.64-10.08,2.36c-3.26,0.69-6.17,3.36-9.47,2.84
		c-3.15-0.49-5.08,5.34-8.53,1.47c-0.04-0.05-0.62,0.23-0.62,0.37c-0.08,3.31-3.24,2.36-4.59,3.75c-2.16,2.24-4.26,3.17-7.19,1.83
		c-0.93-0.43-2.74-0.71-1.4,1.61c0.31,0.55-0.08,1.23-0.56,1.25c-3.19,0.11-5.97,1.53-8.79,2.86c-0.63,0.29-1.18-0.18-1.71-0.62
		c-3.01-2.52-4.42-0.53-5.07,2.29c-0.7,3.07-3.33,3.4-5.25,4.79c-1.45,1.05-2.05,0.36-2.66-1.07c-0.21-0.49-0.85-0.09-1.41,0.5
		c-2.94,3.09-5.58,7.07-11.34,4.99c1.33,1.67,1.13,2.73-0.22,3.35c-3.32,1.51-6.37,4.23-10.38,2.84c-1.1-0.38-1.48,0.19-2.15,0.98
		c-3.43,4.07-8.26,4.78-12.99,5.59c-1.1,0.19-2.16,0.14-3.3,0.61c-3.04,1.26-5.57,3.39-8.36,5.06c-4.73,2.84-9.85,4.96-13.97,8.96
		c-7.66,7.43-15.84,14.24-23.76,21.35c-8.05,7.22-18.02,11.5-27.05,17.25c-4.77,3.04-10.02,5.22-14.8,8.24
		c-4.54,2.87-8.78,6.17-15.29,3.39c2.81,4.7,0.25,6.37-2.58,7.48c-2.37,0.93-4.43,2.31-5.84,4.34c-5.76,8.28-11.3,16.65-18.16,24.1
		c-7.22,7.84-12.74,17.33-20.34,24.93c-4.25,4.24-8.09,8.92-12.27,13.24c-1.72,1.78-3.72,4.23-5.78,4.45
		c-4.31,0.45-6.56,3.6-9.6,5.86c-2.37,1.77-2.76,4.82-4.98,6.73c-4.04,3.47-7.81,7.32-11.43,11.28
		c-7.07,7.75-13.45,15.96-18.41,25.56c-6.4,12.39-13.01,24.72-17.96,37.77c-4.56,12.03-10.5,23.26-15.78,34.87
		c-3.17,6.98-6.3,14.07-8.5,21.43c-2.89,9.66-5.53,19.42-7.89,29.28c-2.96,12.34-3.99,25.04-7.57,37.28
		c-2.57,8.79-4.42,17.95-7.88,26.32c-2.97,7.16-7.03,13.92-10.28,21.05c-3.07,6.72-1.6,16.69,2.91,21.11c8,7.84,8.03,7.54,4.92,16.9
		c-2.97,8.96-1.34,13.64,6.16,19.15c3.13,2.3,5.43,5.32,4.76,9.82c-0.49,3.35,0.9,5.77,3.04,8.24c3.58,4.12,5.78,8.99,5.94,14.83
		c0.13,4.76,0.29,9.49,1.36,14.24c0.83,3.73,1.6,7.73,1.57,11.54c3.79,7.44,5.69,15.51,7.09,23.75c0-1.81,0.01-3.63,0.02-5.44
		c0.02-3.14,1.11-6.03,1.03-9.12c-0.02-0.56,0.16-1.12,0.75-1.26c0.74-0.17,1.27,0.25,1.42,0.98c0.27,1.3,0.21,2.75,2.08,3.38
		c0.54-2.69,0.37-5.18-0.93-7.53c-1.11-2.02-1.57-4.25-1.84-6.52c-0.11-0.9,0.26-1.6,1.17-1.78c1.01-0.2,1.22,0.43,1.4,1.36
		c0.3,1.57,0.7,3.13,1.28,4.6c0.34,0.85,1.26,1.6,2.17,1.27c1.14-0.42,0.88-1.79,0.43-2.41c-2.51-3.42-3.32-7.49-4.36-11.5
		c-0.29-1.12-0.68-2.55-2.33-1.76c-1.39,0.67-0.91,1.67-0.27,2.62c0.66,0.98,1.09,2.17-0.25,2.64c-1.56,0.55-1.5-1.08-1.59-2.03
		c-0.37-4.2-2.49-8.24-0.67-12.65c0.78-1.9-1.04-3.53-1.68-5.13c-1.83-4.54-1-9.38-2.16-13.98c-1.73-6.86-2.68-13.96-2.37-21.05
		c0.06-1.27,0.12-2.54,0.19-3.8c-1.65-2.51-3.3-5.04-4.39-7.87c-0.15-0.4-0.29-0.8-0.42-1.21c0.08,2.53,0.13,5.04-0.54,7.48
		c-0.41,1.5,1.28,5-2.85,4.09c-1.07-0.24,0.32,1.99-0.81,2.65c-3.92-3.2-8.95-6.16-8.36-12.03c0.48-4.71,3.02-9.2,4.64-13.76
		c-3.17-0.67-4.03-4.49-5.78-7.41c-1.23-2.06-1.12-4.95-3.52-6.3c1.86-3.24-2-4.2-2.36-6.55c-0.18-1.19,0.77-0.72,1.24-0.98
		c0.84-0.46,1.21-1.37,0.27-1.82c-3.08-1.47-1.55-3.04-0.2-4.59c0.53-0.61,0.97-1.14,0.95-2.06c-0.13-7.66,2.66-14.29,6.3-20.71
		c0.89-1.57,3.48-1.28,3.29-3.82c-0.03-0.36,0.9-0.27,1.32,0.07c0.62,0.49,0.72,1.5,0.26,1.76c-4.79,2.76-3.27,7.74-4.09,11.97
		c-1.17,5.97-3.08,11.77-1.8,18.04c0.8,3.93,2.51,6.66,7.09,7.42c-1.14-1.74-2.34-3.39,0.65-3.91c1.88-0.33,1.87-2.29,1.94-3.92
		c0.15-3.6-0.35-7.27,1.02-10.76c0.31-0.8,0.29-1.68-0.73-1.91c-0.91-0.21-1.52,0.43-1.66,1.27c-0.37,2.22-0.51,4.49-0.93,6.71
		c-0.22,1.16-0.76,2.67-2.1,2.49c-2.06-0.28-0.42-1.81-0.56-2.78c-1.48-10.16,2.47-18.8,6.92-27.28c1.3-2.48,1.49-2.84,1.6-6.16
		c-0.53,0.34-0.95,0.58-1.34,0.86c-1.03,0.74-1.52,2.98-3.32,1.62c-1.46-1.1-2.07-2.81-1.47-4.66c4.84-14.93,5.99-30.65,8.86-46
		c0.12-0.65,0.42-1.26,0.65-1.88c0.72-1.99,2.97-3.52,1.44-6.31c-0.16-0.3,0.03-3.22,1.6-4.87c1.82-1.92,3.59-4.55,3.41-7.83
		c-0.08-1.27,0.78-2.13,1.98-1.73c1.2,0.41,1.15,1.55,0.78,2.7c-0.91,2.81-4.43,4.97-1.92,8.68c0.29,0.43-0.54,0.73-0.95,1.01
		c-0.4,0.27-1.03,0.7-1.01,1.02c0.06,0.87,0.79,0.19,1.18,0.36c1.31,0.58,0.49,1.64,0.33,2.4c-0.99,4.57-2.31,9.08-3.08,13.69
		c-1.04,6.22-1.54,12.54-2.75,18.83c3.33-2.38,4.52-6,5-9.76c0.55-4.55,1.34-8.95,3.3-13.06c0.85-1.77,0.65-3.69,0.8-5.54
		c0.23-2.76,1.55-4.36,4.12-4.25c2.76,0.11,1.79,2.59,2.05,4.23c0.55-1.83,1.15-3.66,1.79-5.47c0.13-2.17,0.51-4.23,1.09-6.27
		c1.22-4.24,2.18-9.25,1.56-12.85c-0.68-3.94,1.06-6.79,1-10.19c-0.07-4.08,0.11-8.3,3.68-11.34c1.23-1.05,0.49-3.05,0.4-4.64
		c-0.05-0.92,0.33-1.64,1.27-1.64c1.1,0,1.12,0.91,0.97,1.73c-0.35,1.85-0.78,3.68,1.05,5.32c-0.29-3.26,0.75-6.32,0.74-9.53
		c-0.01-2.15-0.1-4.3,0.03-6.44c0.12-1.89-0.45-5.06,1.9-4.92c2.67,0.15,0.72,2.97,0.84,4.61c0.51,7.1,0.46,14.17-0.84,21.18
		c-0.31,1.64-0.34,3.5-2.03,4.73c-1.28-1.05-1.01-2.41-1.73-4.1c-0.69,2.69-0.45,4.85-0.15,7c0.14,1.02,0.37,2.04,0.09,3.03
		c4.42-10.61,9.33-20.83,15.52-30.23c0.12-0.29,0.23-0.58,0.35-0.86c-0.48,0.58-1.09,1.05-1.68,1.44c-2.05,1.36-1.82-1.84-3.37-2.82
		c-1.13,4.87,1.6,10.65-3.48,14.36c-1.33-1.44-1-3.38-0.66-4.83c1.38-5.89-0.3-11.66-0.24-17.49c0.03-3.77-0.06-7.49,1.89-10.94
		c0.92-1.63,1.54-2.14,2.63-0.33c0.39,0.64,0.45,1.81,1.45,1.48c1.1-0.37,0.77-1.52,0.7-2.44c-0.3-4-1.65-8.79,1.77-11.42
		c4.16-3.2,5.28-7.35,6.06-12.06c0.04-0.2,0.36-0.35,0.71-0.69c1.96,2.25,0.9,4.94,1.08,7.39c0.06,0.87-0.2,2.25,1.02,2.2
		c0.15-0.01,0.27-0.03,0.38-0.07c-0.19-0.96-0.08-1.98,0.45-2.93c0.01-4.42,0.49-8.81-0.07-13.29c-0.52-4.18,2.66-7.07,5.01-10.04
		c1.12-1.42,2.57-2.56,4.54-4.48c-0.4,4.24-1.99,7.91-0.34,11.52c1.39-0.01,1.31-1.24,1.15-1.99c-0.86-4.04,1.17-7.88,0.63-11.92
		c-0.21-1.57,0.99-2.73,2.31-3.42c2.63-1.37,4.42-3.55,5.85-6.16c0.25-0.47,0.48-1.08,0.88-1.3c6.07-3.41,9.28-10.31,15.1-13.88
		c2.86-1.76,4.52-4.29,6.39-6.87c1.51-2.08,5.01-2.38,4.69-7.14c-13.73,8.14-24.14,20.03-36.03,29.89
		c5.13-14.53,17.91-21.13,27.88-30.61c4.32-4.1,8.83-7.98,13.01-12.23c2.98-3.03,6.62-5.02,9.74-7.77c6.01-5.3,10.52-12,15.29-18.48
		c5.25-7.13,9.04-15.32,14.7-22.1c8.86-10.61,19.59-18.24,31.78-24.42c13.05-6.6,25.97-14.16,37.41-23.41
		c9.45-7.64,19.06-15.25,28.27-23.31c8.04-7.04,17.7-11.34,27.98-13.33c5.72-1.11,10.61-4.61,16.38-5.27
		c0.13-0.02,0.33-0.04,0.36-0.11c2.8-7.82,10.78-7.53,16.22-11.1c8.21-5.39,17.78-8.05,26.68-12.09c3.85-1.75,7.71-3.47,11.61-5.1
		c9.28-3.89,18.62-7.51,28.55-9.19c3.86-0.65,7.49-2.21,11.59-2.17c1.52,0.01,3.74-1.54,5.72-2.29c4.02-1.53,5.38,2.83,8.27,3.66
		c0.62-1.6-1.38-2.1-0.89-3.41c0.34-0.93,0.97-1.67,1.88-1.85c1.91-0.37,0.47,1.33,0.89,1.75c1.83,1.81,4.39,1.77,6.47,1.57
		c5.55-0.53,11.2-1.08,16.13-4.29c0.96-0.62,2.03-0.89,2.93-0.54c7.98,3.11,16.12,0.65,24.17,0.91c1.78,0.05,3.56,0.22,5.34,0.3
		c2.9,0.13,5.79,1.23,8.7-0.62c0.99-0.62,2.78-0.1,4.12,0.24c2.64,0.66,5.23,1.13,7.94,0.47c0.85-0.2,1.92-0.29,2.65,0.09
		c6.54,3.4,13.74,1.58,20.53,2.97c2.03,0.42,4.08,0.38,5.37,2.46c0.45,0.71,1.16,1.27,1.95,0.9c4.48-2.13,7.61,1.09,10.83,3.24
		c1.88,1.26,3.78,2.01,5.83,2.77c12.58,4.66,26.24,6.55,37.55,14.38c4.68,3.24,9.91,6.26,13.42,11.29c1.21,1.73,2.59,3.3,4.67,4.01
		c2.86,0.97,3.79,4.04,5.11,6.27c2.31,3.93,6.84,6.64,6.51,12.14c-0.02,0.28,0.32,0.72,0.6,0.87
		C777.59,213.19,781.99,220.99,787.4,227.73z M208.22,447.91c-1.24,1.44-0.18,3.22-0.99,4.87c-2.02,4.14-4.13,8.28-4.34,13.18
		c-0.11,2.53-2.64,3.47-4.34,4.73c-0.98,0.72-2-0.03-1.74-1.56c0.25-1.45,0.21-3.13,0.93-4.27c4.85-7.73,7.56-16.5,11.12-24.85
		c0.25-0.59,0.44-1.3,1.9-1.16C209.9,441.93,210.49,445.28,208.22,447.91z"/>
	<path class="st0" d="M601.56,440.91c0.23-10.22,0.01-20.41-2.26-30.44c-1.52-6.7-3.61-13.12-7.54-18.73
		c-0.23-0.33-0.5-0.62-0.76-0.91c-3.12-3.47-4.24-7.13-3.77-11.32c-1.55-2.17-3.47-4.09-5.47-5.96c-0.71,1.66-1.42,3.32-2.11,4.99
		c-4.54,10.94-6.46,22.81-9.86,34.17c-0.64,2.13-1.29,4.27-1.93,6.4c1.01,0.06,2.03,0.43,2.98,1.21c1.16,0.96,2.16,2.04,3.02,3.2
		c0.62,0.17,1.29,0.76,2.02,1.71c4.89,6.31,8.71,13.19,9.98,21.35c0.5,3.17,1.66,6.13,1.99,9.4c0.92,9.22-1.54,17.41-4.76,25.91
		c-4.84,12.76-13.34,22.72-20.83,33.43c-3.75,5.37-7.2,11.33-12.57,15.29c-2.11,1.55-4.29,2.99-6.48,4.41
		c-4.35,3.47-9.9,5.78-15.39,7.45c-0.69,0.3-1.38,0.59-2.07,0.89c-1,4.28-1.61,8.63-2.1,12.99c3.4-1.64,7.06-2.75,10.36-4.66
		c3.07-1.77,6.07-3.74,9-5.81c8.73-7.41,16-16.39,23.09-25.58c4.15-5.38,8.75-10.39,12.59-15.99c3.07-4.49,6.09-9.09,8.45-14.15
		c1.67-3.59,5.21-6.05,6.17-10.27c1.07-4.68,3.52-8.74,5.59-12.96c0.57-1.18,0.37-2.34,0.4-3.54c0.03-1.47-0.23-3.15,0.34-4.37
		C602.36,453.18,601.42,446.99,601.56,440.91z M592.04,417.15c-0.13,1.31-0.5,1.72-1.68,1.12c-3.64-1.86-7.43-3.28-11.34-4.39
		c-1.4-0.4-1.94-1.77-1.62-3.23c0.3-1.39,1.4-1.34,2.47-1.09c2.42,0.94,5.01,0.47,7.51,1.19
		C590.38,411.62,592.35,413.95,592.04,417.15z"/>
</g>
</svg>
