<?xml version="1.0" encoding="utf-8"?>
<!-- Generator: Adobe Illustrator 23.0.2, SVG Export Plug-In . SVG Version: 6.00 Build 0)  -->
<svg version="1.1" xmlns="http://www.w3.org/2000/svg" xmlns:xlink="http://www.w3.org/1999/xlink" x="0px" y="0px"
	 viewBox="0 0 30 30" style="enable-background:new 0 0 30 30;" xml:space="preserve">
<style type="text/css">
	.st0{fill:#7933B9;}
	.st1{fill:#3FD2EF;}
	.st2{fill:#2A1F43;}
	.st3{fill:#F4D451;}
	.st4{fill:#220E34;}
	.st5{fill:#EB6678;}
	.st6{opacity:0.3;fill:#FFFFFF;}
	.st7{fill:#656172;}
	.st8{fill:#BFB8C4;}
</style>
<g id="Capa_2">
</g>
<g id="Capa_4">
</g>
<g id="Capa_7">
</g>
<g id="Capa_5">
	<path class="st0" d="M29.3,10.4C27.38,4.51,21.76,0.25,15.57,0.01c-6.08-0.23-11.9,3.44-14.34,9c-2.55,5.79-1.02,12.86,3.64,17.12
		c4.89,4.46,12.5,5.16,18.11,1.64C28.69,24.18,31.38,16.82,29.3,10.4z M13.11,0.99C13.14,0.99,13.12,0.99,13.11,0.99
		C13.11,0.99,13.11,0.99,13.11,0.99z M1.94,9.53C1.93,9.56,1.94,9.55,1.94,9.53L1.94,9.53z M3.78,23.67
		C3.8,23.68,3.79,23.68,3.78,23.67L3.78,23.67z M29.1,16.19c-0.45,5.75-4.63,10.8-10.15,12.43c-5.53,1.63-11.73-0.45-15.22-5.02
		c-3.85-5.04-3.78-12.37,0.16-17.35C7.6,1.57,14.15-0.34,19.78,1.71C25.68,3.86,29.6,9.93,29.1,16.19z"/>
	<path class="st1" d="M16.41,25.57c0.25-0.03,0.5-0.07,0.75-0.12c2.11-0.43,4.07-1.53,5.55-3.08c1.48-1.56,2.49-3.56,2.82-5.69
		c0.01-0.09,0.02-0.17,0.04-0.26l1.93-1.93c0.17-0.17,0.17-0.45,0-0.62c-0.17-0.17-0.45-0.17-0.62,0c-0.41,0.41-0.81,0.81-1.22,1.22
		c0-0.03,0-0.05,0-0.08c0-2.19-0.68-4.37-1.96-6.15c-0.1-0.13-0.19-0.27-0.3-0.39l1.21-2.58c0.09-0.2,0.07-0.43-0.11-0.57
		c-0.17-0.13-0.42-0.12-0.58,0.03l-1.77,1.77c-1.02-0.93-2.22-1.65-3.52-2.13c-0.98-0.36-2.01-0.57-3.06-0.62l0.63-1.32
		c0.09-0.2,0.07-0.43-0.11-0.57c-0.17-0.13-0.42-0.12-0.58,0.03l-1.93,1.93c-0.51,0.07-1.02,0.17-1.52,0.31
		c-2.05,0.59-3.92,1.8-5.28,3.45c-1.27,1.55-2.09,3.41-2.36,5.39L2.5,15.52c-0.17,0.17-0.17,0.45,0,0.62c0.17,0.17,0.45,0.17,0.62,0
		c0.41-0.41,0.81-0.81,1.22-1.22c-0.02,1.96,0.52,3.92,1.53,5.59c0.19,0.32,0.4,0.62,0.63,0.92l-1.23,2.59
		c-0.09,0.2-0.07,0.43,0.11,0.57c0.17,0.13,0.42,0.12,0.58-0.03l1.76-1.76c0.84,0.79,1.81,1.44,2.86,1.92
		c1.22,0.55,2.52,0.86,3.84,0.94l-0.62,1.33c-0.09,0.2-0.07,0.43,0.11,0.57c0.17,0.13,0.42,0.12,0.58-0.03L16.41,25.57z M22.97,9.35
		C22.98,9.35,22.98,9.35,22.97,9.35c0.29,0.42,0.55,0.85,0.78,1.31c0.05,0.11,0.11,0.22,0.16,0.33c0.03,0.06,0.05,0.12,0.08,0.18
		c0,0,0.01,0.02,0.01,0.02c0.01,0.03,0.02,0.06,0.04,0.09c0.1,0.24,0.19,0.49,0.27,0.73c0.16,0.5,0.28,1,0.36,1.52
		c0.01,0.05,0.01,0.1,0.02,0.15c0,0.02,0.01,0.07,0.01,0.07c0,0.03,0.01,0.05,0.01,0.08c0.01,0.13,0.03,0.25,0.04,0.38
		c0.02,0.26,0.03,0.53,0.03,0.8c0,0.27-0.01,0.54-0.03,0.82c0,0.06-0.01,0.13-0.02,0.19l-8.73,8.73c-0.07,0.01-0.14,0.01-0.21,0.02
		L22.97,9.35z M18.01,12.47c0.01,0.01,0.01,0.01,0.02,0.02c0.03,0.03,0.06,0.07,0.08,0.1c0,0.01,0.01,0.01,0.01,0.02
		c0.02,0.03,0.05,0.06,0.07,0.09c0.12,0.17,0.23,0.36,0.33,0.54c0.02,0.05,0.05,0.09,0.07,0.14c0.01,0.02,0.02,0.05,0.03,0.07
		c0,0,0,0,0,0c0.04,0.1,0.08,0.21,0.11,0.31c0.07,0.21,0.12,0.42,0.15,0.63c0,0,0,0.02,0.01,0.04c0,0.02,0.01,0.04,0.01,0.05
		c0.01,0.05,0.01,0.11,0.02,0.16c0.01,0.12,0.01,0.23,0.01,0.35c0,0.11,0,0.22-0.01,0.33c0,0.05-0.01,0.11-0.01,0.16
		c0,0.02,0,0.03-0.01,0.05c0,0.01-0.01,0.07-0.01,0.08c-0.04,0.21-0.09,0.43-0.15,0.63c-0.03,0.09-0.06,0.18-0.1,0.27
		c0,0,0,0.01,0,0.01c-0.01,0.02-0.02,0.04-0.03,0.06c-0.03,0.06-0.05,0.12-0.08,0.17c-0.1,0.19-0.21,0.37-0.33,0.54
		c-0.01,0.02-0.03,0.04-0.04,0.06c0,0-0.02,0.02-0.02,0.03c-0.01,0.01-0.02,0.03-0.02,0.03c-0.02,0.02-0.03,0.04-0.05,0.06
		c-0.07,0.08-0.14,0.16-0.22,0.24c-0.07,0.07-0.14,0.14-0.22,0.21c-0.04,0.03-0.08,0.07-0.12,0.1c-0.02,0.02-0.04,0.03-0.06,0.05
		c0,0-0.04,0.03-0.06,0.04c-0.16,0.12-0.32,0.22-0.49,0.32c-0.09,0.05-0.18,0.1-0.28,0.14c-0.01,0.01-0.1,0.04-0.1,0.04
		c-0.05,0.02-0.1,0.04-0.16,0.06c-0.2,0.07-0.41,0.13-0.62,0.17c-0.05,0.01-0.1,0.02-0.16,0.03c0,0-0.02,0-0.04,0.01
		c-0.02,0-0.04,0.01-0.05,0.01c-0.11,0.01-0.23,0.02-0.34,0.03c-0.22,0.01-0.45,0-0.67-0.03c-0.01,0-0.03,0-0.05-0.01
		c-0.01,0-0.03,0-0.04-0.01c-0.05-0.01-0.1-0.02-0.16-0.03c-0.11-0.02-0.22-0.05-0.33-0.08c-0.1-0.03-0.2-0.06-0.3-0.1
		c-0.05-0.02-0.1-0.04-0.15-0.06c0,0-0.01,0-0.01,0c-0.03-0.01-0.07-0.03-0.1-0.05c-0.19-0.09-0.38-0.19-0.55-0.31
		c-0.07-0.05-0.14-0.1-0.21-0.15c0,0-0.07-0.05-0.08-0.07c-0.02-0.01-0.03-0.03-0.05-0.04L18.01,12.47z M13.45,18.64
		C13.41,18.62,13.43,18.63,13.45,18.64L13.45,18.64z M10.2,15.63c0.09,0.66,0.31,1.3,0.65,1.86c0.11,0.18,0.24,0.36,0.37,0.53
		L7.7,21.54c-0.07-0.08-0.14-0.15-0.2-0.23L10.2,15.63z M11.85,12.59C11.82,12.63,11.84,12.61,11.85,12.59L11.85,12.59z
		 M11.07,15.53C11.08,15.61,11.07,15.55,11.07,15.53L11.07,15.53z M11.85,17.4c-0.01-0.01-0.02-0.03-0.02-0.03
		c-0.01-0.02-0.03-0.04-0.04-0.06c-0.06-0.09-0.12-0.18-0.18-0.27c-0.05-0.09-0.1-0.18-0.15-0.27c-0.02-0.05-0.05-0.09-0.07-0.14
		c-0.01-0.02-0.02-0.05-0.03-0.07c0-0.01-0.01-0.01-0.01-0.02c0-0.01,0-0.01-0.01-0.02c-0.08-0.2-0.14-0.39-0.19-0.6
		c-0.02-0.1-0.05-0.21-0.06-0.31c0-0.03-0.01-0.05-0.01-0.08c0,0,0,0,0,0c-0.01-0.07-0.01-0.13-0.02-0.2
		c-0.02-0.22-0.02-0.45,0-0.67c0-0.05,0.01-0.11,0.02-0.16c0-0.01,0-0.03,0.01-0.05c0-0.01,0-0.03,0.01-0.04
		c0.02-0.11,0.04-0.22,0.07-0.33c0.05-0.21,0.12-0.41,0.2-0.61c0,0,0,0,0,0c0.01-0.02,0.02-0.05,0.03-0.07
		c0.02-0.05,0.04-0.09,0.07-0.14c0.05-0.1,0.1-0.19,0.16-0.29c0.05-0.09,0.11-0.17,0.17-0.26c0.03-0.04,0.06-0.08,0.09-0.12
		c0,0,0,0,0-0.01c0.02-0.03,0.05-0.06,0.07-0.09c0.14-0.16,0.28-0.31,0.44-0.45c0.04-0.03,0.08-0.07,0.12-0.1
		c0.02-0.02,0.04-0.03,0.06-0.05c0,0,0.02-0.02,0.03-0.02c0.02-0.01,0.07-0.05,0.08-0.06c0.05-0.04,0.1-0.07,0.16-0.11
		c0.18-0.12,0.36-0.22,0.56-0.31c0.02-0.01,0.05-0.02,0.07-0.03c0,0,0,0,0,0c0.05-0.02,0.1-0.04,0.14-0.06
		c0.1-0.04,0.21-0.07,0.32-0.1c0.1-0.03,0.2-0.05,0.31-0.07c0.05-0.01,0.1-0.02,0.16-0.03c0.02,0,0.04-0.01,0.06-0.01
		c-0.05,0.01,0.05-0.01,0.06-0.01c0.22-0.02,0.43-0.03,0.65-0.02c0.11,0,0.22,0.01,0.32,0.02c0.02,0,0.03,0,0.05,0.01
		c0.01,0,0.03,0,0.03,0c0.07,0.01,0.13,0.02,0.2,0.04c0.21,0.04,0.42,0.1,0.62,0.18c0.05,0.02,0.1,0.04,0.14,0.06c0,0,0,0,0,0
		c0.02,0.01,0.05,0.02,0.07,0.03c0.1,0.05,0.2,0.1,0.29,0.15c0.09,0.05,0.18,0.1,0.26,0.16c0.04,0.03,0.09,0.06,0.13,0.09
		c0.02,0.01,0.04,0.03,0.06,0.04c0,0,0.03,0.02,0.05,0.03L11.85,17.4z M22.15,8.34c0.07,0.08,0.15,0.16,0.22,0.24
		c-0.2,0.44-0.41,0.87-0.61,1.31c-0.44,0.95-0.88,1.89-1.32,2.84c-0.23,0.5-0.47,1-0.7,1.5c-0.15-0.88-0.54-1.69-1.11-2.36
		L22.15,8.34z M18.62,16.54C18.61,16.57,18.61,16.55,18.62,16.54L18.62,16.54z M15.15,5.21c0.09,0,0.19,0,0.28,0.01
		c0.26,0.01,0.53,0.03,0.79,0.06c0.03,0,0.05,0.01,0.08,0.01c0.01,0,0.02,0,0.02,0c0.07,0.01,0.13,0.02,0.2,0.03
		c0.13,0.02,0.26,0.05,0.39,0.07c0.51,0.1,1.02,0.25,1.51,0.43c0.11,0.04,0.22,0.08,0.33,0.13c0.01,0,0.11,0.05,0.06,0.02
		c0.02,0.01,0.03,0.01,0.05,0.02c0.07,0.03,0.13,0.06,0.19,0.09c0.23,0.11,0.45,0.22,0.67,0.34c0.22,0.12,0.44,0.26,0.66,0.4
		c0.11,0.07,0.21,0.14,0.32,0.22c0.04,0.03,0.08,0.06,0.12,0.09c0.03,0.02,0.06,0.05,0.09,0.07c0.01,0.01,0.04,0.03,0.05,0.04
		c0.19,0.15,0.38,0.31,0.56,0.47L18,11.25c-0.41-0.33-0.87-0.6-1.37-0.78c-1.38-0.51-2.94-0.32-4.18,0.43L15.15,5.21z M5.52,12.48
		c0.11-0.43,0.26-0.85,0.43-1.26c0-0.01,0.01-0.03,0.02-0.05c0.01-0.01,0.01-0.03,0.02-0.04c0.03-0.06,0.05-0.12,0.08-0.18
		c0.05-0.12,0.11-0.23,0.17-0.35c0.12-0.23,0.24-0.45,0.37-0.67C6.74,9.71,6.88,9.5,7.03,9.29C7.09,9.2,7.16,9.11,7.22,9.03
		c0,0,0.07-0.09,0.09-0.11C7.35,8.86,7.4,8.81,7.44,8.76c0.32-0.39,0.67-0.75,1.05-1.08c0.09-0.08,0.18-0.16,0.28-0.24
		C8.81,7.4,8.86,7.36,8.9,7.33C8.93,7.3,8.96,7.28,8.99,7.26C9,7.25,9,7.25,9.01,7.24c0,0,0.01-0.01,0.02-0.01
		c0.2-0.15,0.41-0.3,0.63-0.44c0.42-0.27,0.86-0.51,1.32-0.72c0.06-0.03,0.12-0.05,0.18-0.08c0.01,0,0.01,0,0.02-0.01
		c0.03-0.01,0.06-0.03,0.09-0.04c0.12-0.05,0.24-0.1,0.36-0.14c0.25-0.09,0.49-0.17,0.75-0.24c0.03-0.01,0.06-0.02,0.1-0.03
		L5.52,12.48z M6.91,20.53c-0.11-0.16-0.22-0.33-0.32-0.49c-0.13-0.22-0.26-0.45-0.37-0.67c-0.05-0.11-0.11-0.22-0.16-0.33
		c-0.02-0.05-0.05-0.11-0.07-0.16c0-0.01-0.02-0.05-0.03-0.07c-0.01-0.03-0.02-0.05-0.03-0.08c-0.19-0.47-0.35-0.96-0.47-1.45
		c-0.06-0.26-0.11-0.52-0.15-0.78c-0.01-0.06-0.02-0.13-0.03-0.19c0-0.01,0-0.01,0-0.01c0-0.04-0.01-0.08-0.01-0.12
		c-0.02-0.13-0.03-0.27-0.04-0.4c-0.04-0.54-0.04-1.08,0-1.61c0-0.06,0.01-0.11,0.02-0.17l8.73-8.73c0.06-0.01,0.13-0.01,0.19-0.02
		L6.91,20.53z M14.8,24.79c-0.35-0.01-0.69-0.03-1.03-0.07c-0.03,0-0.07-0.01-0.1-0.01c0,0,0,0-0.01,0c0,0-0.01,0-0.02,0
		c-0.07-0.01-0.13-0.02-0.2-0.03c-0.13-0.02-0.26-0.05-0.39-0.07c-0.26-0.05-0.51-0.11-0.77-0.19c-0.24-0.07-0.49-0.15-0.72-0.24
		c-0.12-0.04-0.23-0.09-0.34-0.13c-0.01-0.01-0.03-0.01-0.04-0.02c-0.01,0-0.06-0.03-0.07-0.03c-0.06-0.03-0.12-0.05-0.18-0.08
		c-0.47-0.21-0.92-0.46-1.34-0.75c-0.1-0.06-0.19-0.13-0.28-0.19c-0.05-0.04-0.1-0.07-0.16-0.11c-0.02-0.02-0.04-0.03-0.06-0.05
		c-0.01-0.01-0.05-0.04-0.08-0.06c-0.02-0.01-0.05-0.04-0.05-0.04c-0.02-0.02-0.04-0.03-0.06-0.05c-0.05-0.04-0.1-0.08-0.15-0.12
		c-0.1-0.08-0.19-0.16-0.29-0.25c-0.05-0.04-0.1-0.09-0.14-0.13l3.52-3.52c0.34,0.29,0.72,0.54,1.13,0.73
		c0.94,0.42,1.98,0.55,3,0.34c0.52-0.1,1.02-0.3,1.47-0.57L14.8,24.79z M22.74,20.97C22.76,20.95,22.75,20.96,22.74,20.97
		L22.74,20.97z M24.44,17.52c-0.05,0.17-0.1,0.34-0.15,0.51c-0.08,0.25-0.17,0.49-0.27,0.73c0,0-0.01,0.03-0.02,0.06
		c-0.01,0.02-0.02,0.06-0.02,0.05c-0.03,0.06-0.05,0.12-0.08,0.18c-0.05,0.12-0.11,0.23-0.17,0.35c-0.23,0.45-0.49,0.89-0.78,1.3
		c-0.07,0.1-0.14,0.19-0.21,0.29c0,0,0,0.01-0.01,0.01c-0.02,0.03-0.05,0.06-0.07,0.09c-0.04,0.05-0.08,0.1-0.12,0.15
		c-0.16,0.2-0.33,0.39-0.51,0.57c-0.18,0.18-0.36,0.36-0.55,0.53c-0.09,0.08-0.17,0.15-0.26,0.22c-0.05,0.04-0.1,0.08-0.15,0.12
		c-0.02,0.02-0.04,0.03-0.06,0.05c-0.01,0.01-0.03,0.02-0.04,0.03c0,0,0,0,0,0c-0.4,0.31-0.83,0.58-1.27,0.83
		c-0.23,0.12-0.46,0.24-0.69,0.35c-0.05,0.02-0.11,0.05-0.16,0.07c-0.01,0-0.03,0.02-0.05,0.02c-0.01,0.01-0.03,0.01-0.04,0.02
		c-0.13,0.05-0.25,0.1-0.38,0.15c-0.28,0.1-0.57,0.19-0.86,0.27L24.44,17.52z"/>
</g>
<g id="Capa_6">
</g>
</svg>
