<?xml version="1.0" encoding="utf-8"?>
<!-- Generator: Adobe Illustrator 23.0.2, SVG Export Plug-In . SVG Version: 6.00 Build 0)  -->
<svg version="1.1" id="Capa_1" xmlns="http://www.w3.org/2000/svg" xmlns:xlink="http://www.w3.org/1999/xlink" x="0px" y="0px"
	 viewBox="0 0 1080 1080" style="enable-background:new 0 0 1080 1080;" xml:space="preserve">
<style type="text/css">
	.st0{fill:#220E34;}
</style>
<g>
	<path class="st0" d="M665.13,93.35c0.63-0.65,1.29-1.89,1.87-1.85c5.14,0.35,10.48-1.03,15.34,1.83c0.86,0.5,1.71,0.33,2.6,0.29
		c1.39-0.06,2.86-0.27,4.17,0.1c4.53,1.27,9.05,2.39,13.66,3.31c4.24,0.85,8.46,1.98,12.82,2.36c9.97,0.87,19.41,3.97,28.86,7.21
		c12.33,4.23,24.85,7.92,36.79,13.27c7.45,3.34,14.86,6.83,22.07,10.85c6.69,3.73,13.49,7.16,19.82,11.59
		c4.27,2.99,8.25,6.32,11.96,9.99c4.73,4.68,10.15,8.47,15.01,12.93c5.92,5.42,11.15,11.67,16.78,17.46
		c2.15,2.21,4.39,4.45,7.36,5.43c1.71,0.57,2.81,1.91,3.86,3.2c4.45,5.5,9.22,10.68,14.13,15.73c1.83,1.88,4.57,2.61,5.57,5.74
		c0.48,1.5,3.02,0.07,4.66,0.59c-1.51-11.76-3.79-23.17-4.16-34.83c-0.05-1.63-0.5-3.43,1.85-4.24c1.49-0.52,1.36-0.94,1.75-5
		c1.87,0.91,2.36,2.6,1.74,4.26c-2.55,6.79,0.84,13.32,0.6,20c-0.17,4.8-0.01,9.63,0.39,14.42c0.41,4.9,1.22,9.78,2.01,14.64
		c0.16,0.97,0.83,2.28,1.6,2.64c6.66,3.11,8.16,10.72,12.51,15.85c5.38,6.36,9.06,14.11,13.41,21.3
		c7.34,12.12,14.06,24.63,19.65,37.69c4.22,9.87,8.25,19.88,11.66,30.19c2.37,7.14,3.41,14.83,7.02,21.56
		c0.63,1.18,0.42,2.87,0.58,4.33c0.83,7.65,3.97,14.68,5.48,22.15c0.55,2.74,1.49,5.45,1.64,8.21c0.29,5.31,1.68,10.25,3.56,15.11
		c0.28,0.74,0.79,1.63,0.61,2.28c-1.53,5.82,1.25,11.07,1.81,16.6c1.09,10.78,2.85,21.46,2.54,32.42c-0.1,3.71-0.87,7.82,0.78,11.58
		c0.79,1.79-3.25,0.59-1.61,1.52c4.5,2.56-0.44,5.33,0.73,7.64c1.46,2.88,1.13,5.99,1.38,9.03c0.11,1.38-0.5,2.29-1.72,2.82
		c-0.62,0.27-1,0.5-0.42,1.42c1.1,1.75,1,1.82-1.62,2.82c3.61,2.04,0.85,5.3,1.69,7.77c1.42,4.16-1.74,4.6-3.8,5.85
		c0.37,2.06,2.23,0.48,2.9,1.82c-0.09,0.22-0.14,0.64-0.36,0.88c-0.64,0.7-3.29,0.91-0.43,2.34c0.72,0.36,1.44,0.93,0.91,1.85
		c-0.57,0.98-1.33,0.34-1.98-0.07c-1.35-0.85-1.48,0.12-1.62,1.17c-0.42,3.04-1.31,6.05-0.54,9.16c0.3,1.19,0.68,2.35-0.59,3.24
		c-1.14,0.8-1.19,2.24-1.01,3.3c1.06,6.4-1.54,12.34-1.85,18.54c-0.17,3.44-1.77,6.38-2.51,9.61c-1.41,6.1-2.36,12.35-3.94,18.29
		c-2.5,9.43-5.65,18.73-8.05,28.22c-1.48,5.84-3.3,11.49-5.3,17.15c-1.01,2.85-0.4,6.36-0.39,9.57c0.01,1.43-0.02,2.82-1.38,3.47
		c-3.66,1.74-4.61,5.41-5.28,8.88c-1.77,9.06-6.02,17.06-9.13,25.55c-0.73,1.98-0.87,4.26-1.8,6.1c-3.4,6.74-7.03,13.35-11.66,19.27
		c-1.81,2.31-3.39,4.66-3.97,7.69c-0.4,2.14-1.4,3.87-3.27,5.21c-2.79,1.99-4.35,5.18-6.21,8.07c-0.84,1.3-0.62,1.88,0.72,2.28
		c0.82,0.25,1.35,0.84,1.14,1.79c-0.22,0.99-1.1,0.9-1.83,1.11c-4.76,1.37-7.13,4.76-6.92,9.96c0.04,1.04-0.31,1.82-0.91,2.55
		c-0.5,0.62-1.25,1.8-0.68,2.04c2.99,1.24,0.05,5.38,3.13,6.61c0.83,0.33-0.2,1.29-0.69,1.88c-1.15,1.37-3.87,1.42-3.78,3.53
		c0.15,3.63-0.99,7.52,1.01,10.88c1.34,2.26,0.75,4.38,0.33,6.6c-0.23,1.22-0.51,2.52-2.08,2.31c-1.26-0.16-1.79-1.11-2.32-2.33
		c-0.84-1.96,1.07-5.04-2.24-6.13c-0.3-0.1,0.62-2.13,1.28-3.11c1.28-1.9,2.04-3.81-0.08-5.58c-1.12-0.93-0.33-1.51,0.07-2.33
		c1.12-2.26,2.16-4.56,3.16-6.87c0.29-0.66,0.78-1.63-0.38-1.95c-0.93-0.25-1.8-0.16-1.72,1.32c0.13,2.55-1.46,3.77-3.5,3.98
		c-3.77,0.39-2.82,4.31-4.26,6.36c-3.81,5.42-8.21,10.39-11.65,16.17c-1.5,2.52-4.75,4.11-6.82,6.73
		c-5.63,7.11-10.65,14.68-15.9,22.09c-2.95,4.16-6.51,7.86-9.85,11.7c-5.39,6.19-10.81,12.36-16.25,18.5
		c-3.34,3.77-6.66,7.5-10.46,10.85c-3.56,3.14-7.25,6.33-9.82,10.72c-1.12,1.92-3.37,4.01-4.94,4.93
		c-4.89,2.86-8.45,7.24-12.69,10.75c-11.3,9.35-22.79,18.44-34.22,27.61c-4.33,3.47-8.2,8.04-12.64,10.52
		c-4.49,2.52-6.39,8.02-11.78,9.2c-1.85,0.41-4.83,2.24-5.21,5.57c-0.21,1.81-1.81,1.79-3.01,1.82c-2.71,0.05-4.62,1.35-6.74,3.12
		c-3.57,2.98-7.68,5.24-11.59,7.76c-0.94,0.61-1.99,0.13-3,0.04c-2.63-0.24-5.22,0.25-7.31,1.87c-6.5,5.03-13.87,8.52-20.95,12.27
		c-17,9-34.27,17.57-52.22,24.31c-6.38,2.4-13.16,3.84-19.5,6.55c-4.24,1.81-8.41,3.78-12.88,4.94
		c-16.45,4.28-33.19,7.23-49.64,11.45c-7.71,1.98-15.33,0.54-22.99,1.43c-11.37,1.32-22.93,1.8-34.37,1.37
		c-14.87-0.56-29.7-2.4-44.55-3.61c-15.12-1.23-29.94-4.58-44.89-7c-7.62-1.23-14.87-4.8-22.47-6.35
		c-10.95-2.22-21.44-6.19-32.32-8.66c-5.86-1.34-11.32-4.29-16.61-7.38c-2.38-1.39-4.93-1.76-7.73-1.26c-3.07,0.55-5.86-1.3-8.11-3
		c-7.9-5.97-16.29-11.34-25.22-14.86c-7.55-2.97-13.13-8.62-19.61-12.86c-5.81-3.8-11.66-8.53-16.13-14.46
		c-0.31-0.42-0.7-0.8-1.12-1.09c-5.48-3.77-10.22-8.65-15.05-13.11c-4.69-4.33-10.38-7.63-14.09-13.55
		c-2.57-4.09-7.56-6.54-11.56-9.58c-1.03-0.78-2.05-1.4-2.88-2.51c-5.83-7.86-12.31-15.1-18.83-22.33
		c-4.59-5.09-8.62-10.79-12.96-16.17c-2.3-2.85-4.97-5.29-7.08-8.4c-6.34-9.36-12.95-18.56-19.13-28.01
		c-7.63-11.65-14.18-24.1-19.73-37.08c-4.13-9.67-7.26-19.72-10.69-29.65c-2.21-6.38-2.76-13.37-4.93-19.86
		c-0.89-2.64-1.49-5.31-4.14-6.93c-1.79-1.1-1.79-3.09-0.63-4.95c1.28-2.04,0.84-3.92-0.12-6.05c-1.07-2.38-1.61-5.02-2.56-8.12
		c-1.61,2.66-1.18,5.11-0.73,7.23c1.11,5.26-0.45,11.05,2.85,15.86c-2.31,3.77,0.73,7.39,0.27,11.11c-0.1,0.8-0.01,1.81-1,1.86
		c-1.16,0.06-0.75-1.01-0.9-1.74c-3.25-15.56-3.55-31.35-3.54-47.18c0-1.28-0.19-2.37-0.78-3.45c-0.72-1.32-1.06-2.73-0.8-4.26
		c1.49-8.83,1.57-17.67-0.07-26.49c-0.92-4.92-0.49-9.92-0.38-14.84c0.17-7.4-1.9-14.47-1.65-21.98
		c0.44-13.21,0.15-26.49-0.48-39.73c-0.17-3.59,0.2-7.14-1.04-10.64c-0.31-0.88,0.14-2.1,0.34-3.14c0.15-0.79,0.44-1.66,1.32-1.77
		c0.97-0.13,1.16,0.88,1.55,1.53c0.63,1.06,0.77,2.2,0.71,3.47c-0.35,7.15,1.03,14.16,1.68,21.23c0.09,0.95-0.2,2.54,1.22,2.52
		c1.19-0.01,1.35-1.5,1.55-2.5c2.77-14.4,6.99-28.44,11.07-42.41c5.94-20.35,11.84-40.82,20.42-60.23
		c7.28-16.49,14.01-33.26,21.87-49.46c3.45-7.1,6.68-14.35,11.51-20.62c0.85-1.1,1.19-2.66,1.65-4.05
		c2.89-8.71,10.26-14.66,13.05-23.33c0.8-2.47,3.57-3.99,2.84-7.05c2.54-0.49,3.18-2.99,4.61-4.7c1.9-2.26,3.01-4.51,1-7.87
		c2.62,1.04,5.12,2.87,4.72-1.86c-0.14-1.66,1.98-0.42,2.93-1.69c2.04-2.74,3.65-5.79,5.64-8.48c4.29-5.8,6.47-13.19,12.36-17.82
		c1.87-1.47,2.62-4.23,4.34-6.12c1.31-1.44,2.17-3.23,4.15-3.96c1.33-0.49,1.82-2.11,1.79-3.32c-0.04-1.75,1.4-2.26,1.79-3.11
		c1.95-4.26,8.18-4.31,8.44-10.12c0.11-2.54,2.47-4.1,4.38-5.28c1.75-1.08,2.98-2.46,3.96-4.17c1.54-2.67,3.33-4.87,6.07-6.43
		c3.11-1.77,4.5-5.4,6.5-8.32c1.45-2.11,3.16-3.64,5.25-5.08c2.08-1.42,3.47-3.94,5.18-5.97c0.93-1.1,1.74-2.37,2.83-3.25
		c7.29-5.93,11.43-15.04,19-20.69c0.39-0.29,0.76-0.81,0.88-1.29c1.25-4.92,5.63-6.57,8.51-9.65c1.65,1.3-1.48,2.65,0.35,3.43
		c1.38,0.59,2.86,0.22,4.31-0.79c3.25-2.26,4.71-5.64,6.14-9.18c0.27-0.67-0.61-4.22,1.97-1.3c1.39-2.42,4.32-0.61,5.91-2.38
		c1.93-2.14,4.59-3.76,6.08-5.92c1.21-1.75,2.34-3.45,3.97-4.78c0.8-0.66,1.65-1.56,2.7-1.34c2.2,0.45,2.66-0.95,2.93-2.68
		c0.41-2.61,1.67-4.15,4.36-4.03c3.91,0.18,5.79-3.58,8.82-5.19c6.9-3.68,13.72-7.76,19.92-12.59c9.57-7.46,19.96-13.1,30.75-18.21
		c5.64-2.67,10.86-6.31,16.37-9.31c6.99-3.81,14.47-6.48,21.61-9.93c9.33-4.5,18.52-9.62,27.99-13.39
		c7.32-2.91,14.38-7.03,22.52-8.33c6.79-1.08,13.51-3.66,20.17-5.86c5.2-1.72,10.58-2.6,15.68-4.78
		c11.16-4.75,23.17-6.19,34.87-8.62c7.67-1.6,15.43-3.11,23.5-3.24c8.65-0.15,17.44-1.35,26.15-2.4
		c11.79-1.42,23.77-2.21,35.75-1.31c3.92,0.3,8.03,0.39,12.03-1.09c2.56-0.95,5.71-1.13,6.87,2.82c-2.1,0.21-4.1-1.26-6.63-0.56
		c2.66,4.03,7.16,3,10.88,5.22c-3.75,0.22-6.78,0.27-9.82-0.41c-7.76-1.74-15.59-2.79-23.55-2.6c-8.4,0.2-16.77,0.79-25.15,1.24
		c-17.03,0.93-33.69,5.04-50.69,5.58c-2.89,0.09-4.18,2.98-6.96,2.87c-2.14-0.09-4.31,0.37-6.45,0.73
		c-11.11,1.87-21.86,5.33-32.67,8.52c-9.18,2.71-18.66,4.72-27.5,8.09c-6.84,2.6-14.71,3.58-20.45,9.4c0.07,1.1,1.82-0.42,1.89,1.46
		c-3.89,0.79-7.75,2.51-11.53,3.54c-8.43,2.3-15.11,8.99-23.97,9.83c-0.17,0.02-0.44,0.4-0.43,0.59c0.13,2.54-1.71,1.66-2.93,1.98
		c-1.46,0.39-3.11,0.52-4.16,1.81c-2.81,3.45-6.67,5.4-10.52,6.59c-6.06,1.87-11.05,5.89-16.84,8.21c-2.27,0.91-4.15,3.19-6.15,3.82
		c-1.47,0.47-3.06,0.62-4.59,1.6c-5,3.2-9.62,6.95-14.3,10.62c-3.05,2.39-6.98,3.28-9.48,6.57c-2.66,3.5-6.78,5.08-9.93,7.95
		c-3.87,3.52-8.89,5.07-12.88,8.35c-7.49,6.16-14.85,12.52-22.43,18.55c-7.36,5.85-14.13,12.43-21.29,18.51
		c-2.87,2.43-4.49,6.55-6.99,8.29c-5.43,3.78-9.67,8.62-14.25,13.21c-13.28,13.31-26.35,26.83-37.81,41.95
		c-7.46,9.85-15.11,19.55-22.48,29.47c-6.22,8.37-10.65,18.01-16.61,26.55c-4.6,6.58-8.54,13.59-12.28,20.64
		c-2.89,5.46-5.82,10.97-8.93,16.26c-3.42,5.83-6.38,11.89-9.62,17.8c-0.51,0.92-0.69,2.2-1.8,2.44c-2.42,0.53-3.14,2.57-3.91,4.55
		c-5.15,13.24-10.26,26.5-15.42,39.73c-0.87,2.23-1.55,4.69-2.95,6.5c-4.3,5.55-6.08,12.3-8.39,18.74
		c-4.43,12.35-6.63,25.37-9.75,38.11c-1.77,7.24-4.32,14.25-5.79,21.62c-1.4,6.98-4.36,13.61-3.9,20.99c0.04,0.7-0.4,1.77-0.93,2.11
		c-2.66,1.66-2.84,4.59-2.84,7.1c0.01,5.66-1.73,11.01-1.93,16.67c-0.23,6.45-1.74,12.92-1.61,19.42
		c0.28,13.47,0.42,26.97,2.17,40.37c0.96,7.31,2.21,14.63,2.51,21.98c0.31,7.46,4.72,13.47,5.49,20.69
		c1.01,9.5,3.36,18.73,5.95,27.85c2.58,9.06,4.65,18.13,9.46,26.64c4.89,8.68,9.43,17.8,13.55,27.08
		c3.81,8.59,8.81,16.65,13.74,24.63c6.41,10.38,14.58,19.28,23.03,27.82c9.45,9.55,18.75,19.29,28.74,28.19
		c6.38,5.69,13.8,10.12,20.91,14.88c9.57,6.41,19.88,11.25,30.6,15.14c1.06,0.39,1.99,0.92,3.21,0.02c2.75-2.04,8.85-1.5,10.04,1.48
		c1.84,4.6,5.23,4.14,8.65,4.33c1.4,0.08,2.94-0.24,4.09,0.7c4.33,3.55,9.7,3.8,14.68,5.26c11.49,3.37,23.33,4.32,35.15,5.4
		c7.2,0.66,14.27,2.28,21.6,2.03c5.98-0.21,12.22-0.99,17.87,2.37c0.75,0.45,1.48,0.04,1.91-0.79c0.33-0.62,1.23-1.31,1.46-0.86
		c1.62,3.2,4.94,0.35,7.05,2.37c1.19,1.14,3.37,0.84,5.15,1.03c4.05,0.45,8.07-0.04,12.1-0.01c5.99,0.05,11.97,0.09,17.88-1
		c6.51-1.2,12.99-2.55,19.46-3.96c11.35-2.47,22.85-4.2,34.07-7.35c0.51-0.14,1.01,0.05,1.34,1.39c-5.82,2.39-10.59,7.92-17.84,6.54
		c-1.91-0.36-3.59-0.05-5.51,0.34c-9.05,1.87-17.9,4.79-27.09,5.91c-1.15,0.14-2.35,0.25-3.19,1.18c-3.68,4.08-8.93,4.04-13.66,6.55
		c0.5-2.01,2.29-1.65,2.65-3.6c-10.1-0.28-19.66,1.17-28.97,7.63c1.6-4.56,5.39-4.07,7.97-6.92c-6.87,0.04-13.01,0.36-18.97-1.05
		c-3.03-0.72-5.23,0.27-7.22,2.41c-1.28,1.38-2.53,2.75-4.73,3c0.36-2.21,2.5-3.17,2.28-5.13c-4.64-0.57-9.12-1.47-13.49,1.67
		c0.92-4.36-0.33-5.59-4.08-4.39c-2.06,0.66-4.1,3.03-4.72-1.44c-0.12-0.84-1.57-0.54-2.43-0.73c-3.37-0.72-6.28,1.02-10.52,2.76
		c4.22-4.4,1.47-4-0.81-4.59c-3.06-0.78-5.48-0.22-7.71,2.04c-0.95,0.96-2.03,1.86-3.78,1.43c0.38-0.58,0.56-0.92,0.81-1.2
		c0.76-0.87,2.32-1.58,2-2.74c-0.45-1.63-2.21-0.65-3.37-0.96c-4.04-1.11-8.24-0.98-12.31-2.47c-4.57-1.67-9.48-3.1-14.25,0.56
		c-4.01,3.08-8.45,5.52-12.67,8.31c-1.22,0.81-3.22,1.51-2.03,3.56c1.17,2.02,2.62,0.63,3.9-0.27c4.75-3.34,9.48-6.72,14.28-9.97
		c0.88-0.6,2.16-1.78,3.06-0.82c1.03,1.09-0.08,2.5-0.62,3.67c-0.34,0.76-1.02,1.25-1.81,1.34c-3.48,0.41-5.6,2.95-7.77,5.41
		c-0.71,0.81-1.36,1.71-2.56,1.28c-1.1-0.4-2.14-0.4-2.58,0.84c-0.55,1.52,0.89,2.41,1.48,3.5c0.65,1.21,1.51-0.05,2.22-0.45
		c4.79-2.78,9.57-5.59,14.37-8.36c1.27-0.73,2.55-1.74,4.62-0.17c-3.62,1.67-5.08,5.97-8.36,6.73c-3.24,0.75-4.95,3.72-7.99,4.42
		c-1.02,0.23-0.59,1.05,0.01,1.81c3.57,4.46,8.71,6.46,13.21,9.45c1.18,0.78,2.15-0.13,3.18-0.68c0.83-0.45,1.68-0.7,1.87,0.87
		c0.43,3.59,5.59,5.97,8.55,3.98c0.81-0.54,1.45-1.79,2.6-0.82c0.57,0.48,0.92,1.19,0.66,2.13c-1,3.55,1.07,2.76,2.84,2.09
		c1.77-0.66,2.77-2.8,4.92-3.03c0.42,1.9-2.01,3.83,0.11,5.59c2.13,1.77,8.35,2.38,10.57,1.04c1.21,5.46,2.76,5.99,7.61,2.88
		c1.96-1.26,3.9-2.73,7.09-3.44c-1.02,1.29-1.48,1.9-1.97,2.48c-1.26,1.52-4.36,1.43-4.33,3.52c0.04,2.62,3.12,1.48,4.65,2.49
		c0.11,0.07,0.32,0.1,0.33,0.18c0.64,3.7,2.13,1.09,3.34,0.5c2.17-1.06,3.37-3.24,5.06-4.86c0.66-0.64,1.01-2.04,2.41-1.29
		c0,0.29,0.1,0.61-0.02,0.78c-0.43,0.66-0.9,1.29-1.4,1.89c-4,4.72-3.86,4.69,1.4,6.99c2.63,1.15,4.06,0.89,5.81-1.46
		c1.68-2.25,3.89-4.11,7.77-4.81c-1.63,2.25-2.62,3.92-3.9,5.29c-1.27,1.36-1.75,4.08-1.28,4.42c1.34,0.97,3.3,1.59,5.05,0.69
		c1.01-0.52,1.83-1.44,2.73-2.2c2.43-2.04,4.86-4.1,7.3-6.14c0.25,0.26,0.5,0.53,0.75,0.79c-1.99,2.12-3.93,4.29-5.97,6.36
		c-2.24,2.27-1.69,3.57,1.13,4.4c3.07,0.9,6.05,2.29,9.17,2.81c3.69,0.62,7.81,1.74,10.57-2.34c2.74-4.05,5.84-7.75,9.09-11.33
		c0.76-0.83,1.46-2.43,2.7-1.5c1.14,0.85,0.29,2.36-0.35,3.26c-2.82,3.97-6.04,7.57-9.9,10.46c-0.8,0.6-2.14,0.83-1.06,2.29
		c1.22,1.65,7.84,1.66,8.99-0.07c4.48-6.71,11.07-11.05,16.57-16.61c0.7-0.71,1.7-1.85,2.61-0.86c1.21,1.33-0.33,2.26-1.1,2.87
		c-5.35,4.27-9.07,10.11-13.57,15.2c-1.43,1.62-1.6,2.73,0.87,3.17c4.01,0.71,8.01,1.55,12.03,2.22c4.78,0.8,9.67,1.83,12.39-4.26
		c0.29-0.64,1.16-1.03,1.81-1.46c1.22-0.82,2.68-2.9,3.85-1.5c1.15,1.37-0.98,2.69-1.92,3.77c-2.66,3.08-2.24,5.4,1.57,6.6
		c1.93,0.61,4.02,0.8,6.04,0.9c4.19,0.2,8.39,0.3,12.56,0.53c10.71,0.58,21.42,0.31,32.06-0.36c11-0.7,22.07-0.58,33.02-2.74
		c9.18-1.81,18.62-0.97,27.91-3.43c12.96-3.43,26.37-4.89,39.43-7.98c5.11-1.21,10.34-2.45,15.28-4.73
		c4.46-2.06,9.69-2.25,13.48-6.03c7.23,0.94,12.83-4.69,19.67-5.44c1.32-0.14,2.55-1.16,3.82-1.79c5.79-2.85,11.27-6.39,17.4-8.45
		c2.3-0.77,4.78-0.61,7.05-1.75c7.46-3.75,15.08-7.16,22.45-11.09c6.57-3.5,12.7-7.98,19.39-11.19c6.39-3.07,12.52-6.83,18.31-10.65
		c6.15-4.05,12.5-8.46,17.66-14.35c4.51-5.14,10.14-9.13,15.63-13.17c7.49-5.52,14.4-11.88,21.79-17.51
		c9.11-6.95,17.07-15.25,25.51-22.94c4.14-3.78,8.18-7.91,12.04-12.11c4.87-5.3,10.05-10.29,15.14-15.32
		c6.02-5.94,10.1-13.44,15.81-19.62c2.74-2.96,5.6-6.2,7.67-9.92c2.95-5.32,5.53-10.75,9.17-15.77
		c6.04-8.33,13.01-15.92,18.12-25.06c2.76-4.93,6.05-9.59,9.13-14.33c2.9-4.47,4.74-9.68,8.71-13.48c3.06-2.93,6.19-6.16,5.87-11.24
		c-0.05-0.8,0.58-1.56,1.35-1.81c2.07-0.68,2.85-2.59,3.79-4.32c3.04-5.6,5.29-11.55,8.68-17.06c9.92-16.12,17.33-33.65,23.48-51.74
		c3.34-9.82,6.68-19.66,9.02-29.81c2.55-11.04,3.83-22.39,6.82-33.33c1.11-4.06,0.31-8.48,1.41-12.3
		c3.18-11.05,4.12-22.45,6.08-33.69c0.96-5.52,1.69-11.28,1.58-16.58c-0.15-7.15,1.92-13.89,1.88-21.02
		c-0.03-4.97,1.76-10.39,1.71-15.74c-0.01-1.26,2.49-4.57-1.95-3.07c-0.87,0.3-0.73-1.4-0.3-1.86c2.59-2.79,2.13-5.9,1.85-9.47
		c-0.55-6.75-0.27-13.59-0.14-20.39c0.04-2.26-1.59-3.95-1.4-6.19c0.53-6.25-0.49-12.46-0.65-18.69c-0.24-9.78-2.19-19.49-4.9-28.88
		c-1.5-5.21-1.08-11.42-6-15.2c-0.18-0.13-0.06-0.69-0.08-1.05c-0.24-5.47-1.58-10.75-4.51-15.16c-2.71-4.08-2.65-9.14-5.15-13.19
		c-0.18-0.29,0.08-1.06,0.35-1.44c0.63-0.88,1.58-1.91,0.32-2.68c-1.36-0.82-2.74,0.36-3.12,1.52c-1.89,5.78-4.69,11.33-3.16,17.9
		c0.65,2.81,2.49,5.58,1.26,9.22c-0.92-1.71-1.61-3.06-2.36-4.38c-0.62-1.11-0.05-2.97-1.62-3.4c-1.52-0.41-1.22,2.25-3.03,2.19
		c0.62-3.49,0.9-7,1.92-10.24c1.18-3.75-2.72-6.55-1.48-10.46c3.1,3.91,4.88,4.24,5.55,1.17c1.3-5.9,3.23-11.84,0.89-18.03
		c-0.6-1.58-0.9-3.16-2.81-3.28c-1.71-0.11-2.43,1.11-2.92,2.64c-0.43,1.35-2.45,2.71-2.59,2.11c-0.7-3.15-6.08-2.02-4.63-6.44
		c-3.46,0.53-1.47,5.38-5.44,5.85c4.05-7.14,1.85-14.27,1.3-21.35c-0.07-0.92,0.31-1.97-1.04-2.16c-1.08-0.15-1.69,0.5-2.07,1.42
		c-1.19,2.85-2.06,5.84-2.12,8.95c-0.07,3.43-1.34,6.04-4.34,8.66c0.97-4.17,2.06-7.61,2.51-11.14c0.56-4.37,4.48-8.55,0.87-13.26
		c-0.43-0.56,0.19-0.94,0.67-1.11c2.66-0.97,2.35-3.45,2.73-5.68c0.73-4.22-3.1-6.96-3.11-10.93c0-0.04-1.14-0.07-1.75-0.11
		c0.84,3.12-3.04,4.06-2.93,6.31c0.14,2.65-1.33,4.11-2.22,6.08c-1.15,2.54-2.09,5.19-2,8.1c0.15,4.66,0.53,9.17,1.66,13.82
		c0.9,3.74,1.68,7.23,3.69,10.49c0.91,1.49,0.17,3.42-0.17,5.13c-0.14,0.69-0.39,1.36-1.2,1.25c-0.76-0.1-0.86-0.77-1.02-1.47
		c-1.32-5.82-2.69-11.64-4.06-17.45c-0.15-0.65-0.16-1.46-0.54-1.9c-3.09-3.59-2.85-8.02-2.71-12.33c0.06-1.84-0.29-2.71-2-2.24
		c-2.07,0.56-2.27-0.17-1.61-1.99c1.45-4.03,0.13-7.85-1-11.63c-0.35-1.17-1.37-2.02-2.67-1.91c-1.29,0.12-2.06,1.05-2.29,2.35
		c-0.26,1.42,0.35,2.31,1.68,2.69c0.89,0.26,1.65,0.71,1.72,1.82c-0.67,0.86-1.68-1.07-2.39,0.62c4.04,1.87,2.53,5.51,1.94,8.51
		c-0.57,2.94-0.61,5.04,1.97,7.01c2.16,1.65,1.98,2.57,0.13,4.8c-0.55,0.67,0.05,1.23,0.03,1.82c-0.14,5.13,2.22,10.01,1.89,15.02
		c-0.71,10.89,1.53,21.46,2.32,32.18c0.47,6.38,0.93,12.76,1.3,19.15c0.47,8.15-0.55,16.24-0.35,24.38c0.12,4.59,0.1,9.11-0.91,13.8
		c-1.33,6.15-1.49,12.72-1.25,19.07c0.19,4.95-0.31,9.91-1.07,14.54c-1.38,8.5-4.2,16.77-6.82,25c-2.13,6.69-1.99,13.43-1.53,20.27
		c0.08,1.23,0.52,2.3,1.19,3.35c0.49,0.75,2.7,0.88,1.03,2.59c-0.51,0.53-1.15,1.75-1.71,0.95c-0.75-1.06-2.89-1.5-2.14-3.25
		c0.76-1.77-0.02-2.69-0.95-4.07c-2.95,4.71-1.21,11.21-6.01,14.84c1.83-4.65,1.24-9.75,2.7-14.46c0.71-2.29,0.97-4.55-1.99-5.51
		c-1.28-0.41-1.2-1.49-0.87-2.65c0.55-1.96,1.02-3.95,1.53-5.98c1.31,0.4,0.84,2.68,2.64,1.92c1.66-0.7,2.26-2.19,2.6-3.74
		c0.81-3.66,1.4-7.37,2.17-11.04c0.52-2.46,1.5-4.86-0.26-7.27c-0.59-0.81-0.59-1.91,0.62-2.24c2.35-0.65,1.75-2.58,1.81-4.26
		c0.18-5.64,0.64-11.27,0.93-16.88c0.14-2.71,2.23-5.04,1.2-7.63c-1-2.48-0.2-4.53,0.5-6.75c0.4-1.26,1.07-2.51,0.75-3.9
		c-1.44-6.14-1.69-12.45-0.8-18.56c0.42-2.91-1.13-6.33,1.84-9.1c1.17-1.1,1.91-4.73-0.18-6.22c-1.83-1.3-2.38,1.69-3.59,2.64
		c-0.15,0.12-0.46,0.02-0.88,0.02c-1.34-4.09,4.77-5.78,1.73-10.83c2.33,1.5,2.03,3.39,3.74,3.89c0.21-3.13-0.31-5.86-0.91-8.96
		c-0.97,1.42,0.12,3.56-2.1,3.7c-1.31-4.4-2-8.79-1.94-13.4c0.07-5.73,0.39-11.5-1.3-17.17c-0.38-1.27-1.53-2.84-0.61-4.53
		c2-3.66-0.01-7.37,0.1-11.03c0.12-4.03-2.21-7.36-2.3-11.08c-0.11-4.09-1.83-7.71-2.1-11.69c-0.09-1.32,0.02-3.19-0.72-3.82
		c-3.19-2.74-2.15-6.89-2.77-10.13c-0.81-4.28-0.34-8.62-3.24-12.47c-1.37-1.81-1.79-4.6-2.16-7.03c-1.18-7.57-3.01-14.79-6.4-21.74
		c-2.16-4.44-4.33-8.94-6.3-13.49c-1.74-4.01-4.97-7.02-6.4-11.07c-1.21-3.42-3.1-6.51-4.97-9.3c-3.63-5.44-7.35-10.89-10.8-16.41
		c-4.76-7.61-10.96-13.71-16.83-20.09c-5.81-6.3-12.63-11.71-20-15.95c-2.49-1.43-3.09-4.31-5.6-5.46c-5.26-2.4-9.44-6.79-14.93-8.9
		c-1.83-0.7-2.8-3.38-5.32-3.3c-0.69,0.02-1.15-0.63-0.58-1.42c0.66-0.94,0.24-1.89-0.58-1.73c-3.66,0.73-6.6-1.83-9.89-2.21
		c-5.39-0.63-10.04-2.89-14.54-5.69c-3.64-2.27-7.59-3.74-11.42-5.54c-6.96-3.27-14.99-3.41-21.4-8.27
		c-1.16-0.88-2.69-1.05-4.08-0.75c-3.72,0.81-7.05-0.47-10.35-1.91c-1.18-0.51-2.29-1.18-3.65-0.99c-4.95,0.67-9.33-2.22-14.13-2.54
		c-1.76-0.12-3.83-0.06-5.19-0.99c-8.6-5.92-18.62-4.22-27.98-5.59C669.62,95.55,667.64,94,665.13,93.35z M898.05,233.39
		c-2.12-0.14-3.1-1.2-3.86-2.69c-0.49-0.95-1.29-1.44-2.14-0.49c-0.76,0.86-0.41,1.83,0.34,2.45c0.68,0.57,1.68,0.74,2.29,1.36
		c0.87,0.88,5.11,1.07,0.83,3.45c-0.64,0.36,0.03,1.18,0.12,1.8c0.47,3.24,2.75,5.3,4.37,7.81c0.93,1.45,2.85,2.64,1.32,5.02
		c-0.68,1.06,0.41,1.97,1.25,2.59c0.72,0.53,1.93,0.38,1.91-0.36c-0.05-2.23,3.33-4.68-0.33-6.7c-3.56-1.97-4.26-4.89-2.54-8.65
		c0.65-1.42,0.18-3.01-0.26-4.33c-0.91-2.75-1.27-5.35-0.18-8.13c0.75-1.91-0.56-2.66-2.01-3.11c-1.58-0.49-2.16,0.3-2.66,1.88
		C895.56,228.25,896.98,230.68,898.05,233.39z M923.88,264.23c-4.69,0.54-5.75,4.13-6.11,7.94c-0.37,3.9,1.36,7.45,2.11,11.6
		c1.34-1.18,1.59-2.35,1.97-3.46c1.76-5.15,1.94-10.7,3.92-15.84c0.92-2.38-1.7-4.53-1.99-7.07c-0.11-0.93-1.49-0.98-1.84-0.28
		c-0.93,1.84-2.26,3.91-2.13,5.79C919.98,265.43,922.35,262.4,923.88,264.23z M914.77,242.92c-5.8,10.1-5.66,12.59,0.34,14.01
		c-2.46-0.21-3.12,2.08-4.38,3.4c-3.06,3.22,2.1,2.07,2.07,3.93c-0.02,0.84,0.72,1.68,1.05,2.55c0.26,0.68-0.14,1.86,0.93,1.91
		c1.11,0.05,1.43-1.06,1.56-1.97c0.49-3.45,1.07-6.91,1.21-10.39c0.06-1.48-1.09-3.02,0.45-4.35
		C913.41,250.93,914.91,247.01,914.77,242.92z M891.3,217.9c-0.4-0.95-1.12-1.9-1.12-2.86c-0.01-1.84,0.15-3.8-2.23-3.6
		c-2.7,0.22-1.16,2.67-1.59,4.11c-0.06,0.19-0.38,0.28-0.58,0.43c-1.15-0.54-0.59-1.62-0.72-2.48c-0.3-1.98-0.48-3.98-0.93-5.92
		c-0.25-1.05-1.1-2.08-2.26-1.59c-1.13,0.48-0.46,1.65-0.23,2.48c0.58,2.01,1.92,3.77,1.56,6.1c-0.21,1.41,0.38,2.56,1.73,3.25
		c1.4,0.72,1.65,2.13,1.96,3.65c0.25,1.26,0.63,2.84,2.4,3.5c0.22-0.85,0.4-1.47,0.52-2.09c0.24-1.24,0.6-2.73,2.09-2.14
		c2.09,0.83,0.39,1.69-0.23,2.56c-0.91,1.27,0.81,2.13,0.61,3.34c-0.01,0.06,0.64,0.4,0.9,0.32c1.16-0.32,1.5-1.24,1.55-2.45
		c0.08-2,0.61-3.99,0.05-5.99c-0.28-0.98-0.03-2.3-1.33-2.64C891.97,215.5,892.48,217.51,891.3,217.9z M265.62,911.92
		c3.31-2.18,7.19-4.64,10.95-7.29c0.99-0.7,2.16-1.99,1.38-3.37c-0.81-1.43-2.44-0.84-3.44-0.21c-3.78,2.4-7.45,5-11.15,7.55
		c-0.59,0.41-0.79,0.98-0.51,1.72C263.22,911.29,263.9,911.8,265.62,911.92z M260.1,905.11c3.83,0.27,6.2-2.74,9.09-4.53
		c1.01-0.62,3.35-0.53,2.44-2.63c-0.66-1.52-2.5-1.67-4.07-1.16c-3.33,1.07-6.14,3.1-8.74,5.47c-0.53,0.48-1.36,1.08-1.02,1.95
		C258.19,905.24,259.26,905.06,260.1,905.11z"/>
	<path class="st0" d="M607.19,849.6c3.68-5.56,9.24-7.79,14.99-10.25c-0.59-0.38-0.85-0.67-1.16-0.73c-1.38-0.3-3.57,1.54-4.02-0.53
		c-0.46-2.14,2.1-2.25,3.56-2.77c9.32-3.29,18.1-7.65,25.98-13.92c0.3-0.24,0.63-0.48,0.97-0.64c10.9-4.75,20.25-12.27,29.85-19.21
		c4.79-3.46,9.44-7.53,13.37-12.28c1.91-2.32,4.03-4.4,6.44-6.25c5.59-4.3,10.94-8.95,16.39-13.45c1.11-0.92,2.12-2.66,2.96,0.42
		c0.74,2.71,2.61-1.32,4.07,1.16c-1.48,1.43-3.12,3.18-4.93,4.71c-0.94,0.79-2.18,1.69-3.24-0.07c-1-1.66-1.95-0.82-2.69,0.22
		c-1.24,1.73,0.32,1.52,1.2,1.82c1.77,0.6,0.89,1.72,0.24,2.43c-1.94,2.09-3.84,4.3-6.06,6.02c-9.05,7.03-18.13,14.04-27.38,20.77
		c-6.07,4.42-12.45,8.38-18.72,12.48c-7.09,4.63-14.8,8.46-21.17,14c-5.12,4.45-11.12,6.32-16.61,9.57
		c-1.21,0.72-2.48,1.5-3.39,2.57C614.91,849.12,610.75,848.37,607.19,849.6z"/>
	<path class="st0" d="M824.8,671.3c-2.8-2.94-3.22-7.25-6.26-9.78c-0.9-0.75-0.92-1.92,0.27-2.68c1.44-0.92,1.43-2.3,1.44-3.8
		c-2.82-0.28-3.22,3.18-5.97,3.44c2.94-5.57,4.78-11.35,8.91-15.84c3.99-4.35,5.92-10.2,9.25-14.97c2.94-4.21,4.46-9.23,7.66-13.15
		c0.63-0.77,1.23-3.66,3.31-1.11c0.52,0.64,0.85-0.55,1.15-1.09c3.1-5.53,5.79-11.38,9.45-16.46c2.62-3.64,5.73-6.92,8.09-10.92
		c-0.29,3.9-1.74,7.22-4.16,10.01c-0.98,1.13-1.19,1.62-0.5,3.27c1.78,4.31-0.32,8.54-1.29,12.72c-0.31,1.33-1.86,0.75-2.71,0.39
		c-3.12-1.33-4.18,0.36-4.59,3.2c-0.65,4.47-2.49,8.77-1.5,13.49c0.29,1.36,0.01,2.91-1.37,4.33c-1.38-2.44-1.58-4.85-1.22-7.4
		c0.11-0.78,0.33-1.74-0.57-2.12c-0.94-0.39-1.45,0.47-1.7,1.19c-0.94,2.77-4.02,5.02-1.35,9.11c-4.68-2.4-6.51,1.19-7.39,3.74
		c-0.92,2.68-5.21,6.22,0.03,9.13c0.09,0.05,0.2,0.29,0.16,0.34c-3.27,4.85,0.23,10.7-2.05,16.66c-1.73-3.89-3.33-6.67-1.87-10.41
		c1.1-2.81-2.52-4.91-1.28-8.04c-3.33,2.18-4.65,4.31-0.54,6.46c-1.15,1.87-2.96-1.11-3.69,0.9c-0.54,1.47,0.96,2.37,1.34,3.62
		c0.55,1.8,0.9,3.46,0.34,5.45c-0.7,2.46-2.08,5.01-0.3,7.74C826.32,669.37,825.82,670.55,824.8,671.3z"/>
	<path class="st0" d="M92.57,347.07c1.36,3.74,1.12,7.64,1.35,11.54c0.45,7.61-1.12,15.1-0.8,22.68
		c0.85,20.59,1.66,41.17,2.39,61.77c0.15,4.35-0.41,8.72,0.01,13.09c0.08,0.81,0.69,2.22-0.63,2.37c-1.57,0.17-1.13-1.52-1.31-2.42
		c-0.63-3.03-0.54-6.07-0.19-9.16c0.63-5.5-0.4-10.96-0.9-16.41c-0.79-8.69-0.81-17.38-0.68-26.07c0.13-9.26-1.32-18.43-1.16-27.66
		c0.11-6.87-1.97-13.68,0.81-20.73C92.33,353.85,91.47,350.09,92.57,347.07z"/>
	<path class="st0" d="M103.23,475.54c-1.54,2.01-0.78,5.49-4.4,5.72c-0.63,0.04-0.56,1.1-0.53,1.76c0.26,4.67-0.1,9.3,0.3,14.05
		c0.8,9.47,3.33,18.86,1.89,28.61c-0.54,3.66,1.72,7.51,1.21,11.47c-0.14,1.06-0.08,2.16-0.35,3.18c-0.24,0.91-1.3,1.42-1.58,0.36
		c-0.66-2.45-2.87-4.73-1.06-7.58c0.67-1.05,1.03-2.14,0.34-3.38c-4.22-7.53-3.35-15.73-2.85-23.9c0.35-5.67-0.13-11.21-2.3-16.57
		c-0.74-1.83-3.55-4.46,0.64-5.92c-1.12-5.55,2.33-4.13,5.2-3.91c0.9,0.07,0.89-1.11,0.98-1.91
		C100.86,476.22,101.24,475.15,103.23,475.54z"/>
	<path class="st0" d="M109.66,744.42c1.9,4.95,2.11,9.95,1.92,15.18c-0.21,5.84,0.65,11.72,1.17,17.58c0.1,1.11,0.58,2.32-0.75,2.66
		c-1.5,0.39-0.74-1.32-1.24-1.98c-1.8-2.39-0.99-5.34-1.14-8.06c-0.33-6.27-1.8-12.46-1.2-18.81
		C108.63,748.78,108.35,746.51,109.66,744.42z"/>
	<path class="st0" d="M749.56,910.44c0.02,0.78-0.23,1.56-1.01,2.25c-2.62,2.29-5.09,4.77-7.77,6.96c-0.75,0.61-1.34,0.88-1.34,2.05
		c0,1.74-1.01,3.18-2.37,3.9c-2.46,1.3-4.43,3.1-6.22,5.25c-0.84,1-2.03,2.18-3.24,0.83c-1.14-1.27,0.29-2.25,1.05-2.95
		c5.32-4.9,9.58-11.06,15.78-14.91c1.49-0.93,1.44-2.4,1.41-3.88c-0.02-1.13,0.26-2.09,1.49-1.47
		C748.13,908.87,750.03,908.05,749.56,910.44z"/>
	<path class="st0" d="M111.17,794.11c0.4-3.29,0.15-7.37-0.82-11.41c-0.17-0.72-0.15-1.39,0.71-1.52c0.84-0.13,1.59,0.21,1.83,1.08
		c0.86,3.1,2.77,5.67,2.13,9.48c-0.68,4.07-0.96,8.51,0.79,12.64c0.4,0.96,0.43,2.33-0.99,2.52c-1.21,0.16-1.34-0.96-1.34-1.95
		C113.46,801.41,110.94,798.54,111.17,794.11z"/>
	<path class="st0" d="M898.19,172.63c-0.5-6.4-0.94-11.82-1.34-17.23c-0.06-0.75,0.66-1.53-0.05-2.27c-0.53-0.55-1.38-1.09-0.45-1.9
		c0.67-0.59,1.43-0.15,2.11,0.27c0.81,0.5,1.57,1.68,2.6,0.35c0.44-0.57,0.77-1.71,1.64-0.72c0.84,0.94,0.45,2.02-0.34,2.87
		c-0.72,0.77-3.3,1.26-0.23,2.42c0.08,0.03,0.09,0.66,0.01,0.69c-5.27,2.32-1.34,7.08-2.51,10.48
		C899.19,168.9,899.73,170.48,898.19,172.63z"/>
	<path class="st0" d="M113.06,736.37c-2.73,0-2.86,1.32-2.63,3.32c0.11,0.98,0.84,3.18-1.38,2.86c-1.67-0.24-2.67-1.66-2.06-3.57
		c1.42-4.52,1.03-8.92-0.62-13.26c-0.44-1.16-0.44-2.17,0.9-2.52c1.43-0.38,1.73,0.8,1.88,1.88c0.3,2.11,0.54,4.23,0.73,6.35
		C110.05,733.5,110.37,735.44,113.06,736.37z"/>
	<path class="st0" d="M118.75,649.02c1.89-11.48,5.34-22.47,9.67-33.17C127.7,627.72,122.31,638.06,118.75,649.02z"/>
	<path class="st0" d="M139.75,684.56c-1.61,8.78-2.65,17.76-7.2,25.53c-0.37-0.13-0.75-0.25-1.12-0.38
		c2.22-8.57,4.44-17.14,6.65-25.71C138.65,684.19,139.2,684.37,139.75,684.56z"/>
	<path class="st0" d="M958.85,386.04c-2.82-8.57-4.38-17.45-6.23-26.75c3.33,0.65,3.8,2.08,3.6,4.63
		c-0.46,5.72,2.67,10.81,3.06,16.44c0.13,1.81,0.6,3.6,0.91,5.4C959.74,385.87,959.29,385.96,958.85,386.04z"/>
	<path class="st0" d="M553.98,372.85c-7.37,2.37-14.49-2.32-21.22,1.47c-0.92,0.52-2.25,0.3-3.39,0.31c-0.27,0-0.72-0.4-0.78-0.68
		c-0.06-0.28,0.23-0.91,0.43-0.95c2.53-0.44,3.93-3.14,6.85-3.2c4.65-0.09,9.29-0.92,13.91-1.61c5.94-0.88,11.01,2.87,16.7,3.34
		c2.04,0.17,3.95,1.19,4.99-1.77c0.37-1.06,1.63-1.36,2.66-0.83c1.3,0.67,0.82,1.93,0.35,2.79c-1.56,2.87-1.87,6.16-3.69,9.09
		c-2.08,3.33-3.64,7.35-4.03,11.6c-0.09,1.02-0.68,2.31-1.99,1.83c-1.04-0.38-0.7-1.58-0.45-2.47c0.37-1.28,0.91-2.5,1.22-3.79
		c1.5-6.38,1.52-6.54-4.5-7.91c-2.56-0.58-4.76-1.8-7.09-2.86C551.53,376.11,550.56,375.06,553.98,372.85z"/>
	<path class="st0" d="M433.9,483.26c-5.57,2.12-9.82-0.81-14.2-2.05c-2.28-0.64-4.52-1.65-6.88-2.19c-0.64-0.15-1.33-0.45-1.3-1.22
		c0.03-0.81,0.78-1.01,1.42-0.99c1.64,0.05,3.57-0.36,4.88,0.38c4.56,2.6,9.55,3.53,14.43,4.94
		C432.68,482.25,433.04,482.66,433.9,483.26z"/>
	<path class="st0" d="M513.99,550.1c-2.16,2.54-4.92,4.45-7.79,6.12c-0.63,0.85-1.47,1.47-2.61,1.9c-9.67,3.62-19,8.45-29.35,9.7
		c-4.53,0.55-9.14,0.56-13.71,0.59c-0.3,0-0.6-0.01-0.88-0.03c-3.47,0.86-7.07,1.35-10.48,2.49c-0.56,1.02-1.6,1.63-3.4,1.55
		c-2.99-0.13-5.68-3.41-4.82-6.45c0.41-1.45,0.71-2.93,0.98-4.42c-0.37-4.2-2.07-7.97-3.32-11.94c-1.68-0.73-2.38-2.33-2.83-4.03
		c-1.21-4.54-1.56-9.23-1.85-11.81c0.14-15.41,2.87-28.02,8.54-40.1c3.38-7.18,6.82-14.34,10.23-21.5c0.55-1.15,0.78-3.31,2.84-2.22
		c1.19,0.63,2.65,1.33,3.11,2.58c1.6-3.45,3.79-6.68,6.33-9.78c0.33-2.03,0.65-4.06,0.98-6.1c0.61-3.83,2.72-6.78,5.02-9.68
		c-0.01-0.02-0.02-0.04-0.03-0.06c-1.81,1.29-4.19,1.66-6.39,0.99c-0.77-0.23-1.49-0.59-2.17-1c-0.22,0.06-0.48,0.03-0.83-0.12
		c-3.15-1.37-6.35,0.58-9.52-0.46c1.96,2.43,4.81,2.21,7.34,2.93c0.87,0.25,1.82,0.41,2.08,1.49c0.3,1.23-0.82,1.41-1.44,2.03
		c-3,2.96-6.03,5.92-7.71,10.02c-3.09,7.54-6.18,9.32-13.96,6c-5.11-2.17-10.86-2.7-16.33-3.94c-0.52-0.11-1.11,0.02-1.13,0.71
		c-0.02,0.81,0.62,1.13,1.27,1.23c6.58,0.99,12.52,4.5,19.17,5.34c4.37,0.55,5.01,1.89,1.97,5.44c-4.21,4.92-6.22,11.09-8.55,16.82
		c-1.57,3.85-3.14,7.82-4.62,11.77c-1.65,4.41-3.67,8.9-3.43,13.96c0.13,2.75-1.31,2.88-3.52,1.96c-6.31-2.63-12.27-5.94-17.99-9.76
		c-1.22-0.82-2.56-1.73-2.42-3.34c0.17-1.97,1.77-0.75,2.75-0.95c0.69-0.15,1.12-0.73,1.14-1.45c0.02-1.01-0.94-1.08-1.51-1.56
		c-1.06-0.88-3.87,0.02-3.2-2.26c0.67-2.29,3.03-1.34,4.71-0.84c4.55,1.36,8.99,3.03,13.26,5.21c1.89,0.97,3.84,2.03,7.24,0.58
		c-6.44-1.02-10.69-4.51-15.52-6.7c-2.01-0.92-4.03-1.69-6.25-1.78c-1.02-0.04-2.1-0.13-2.57-1.34c-0.27-0.69-0.02-1.36,0.5-1.81
		c1-0.86,1.92-0.24,2.81,0.3c3.23,1.95,6.63,2.59,10.52,0.95c-3.67-1.37-7.32-2.8-11.02-4.07c-0.94-0.32-2.38-0.02-2.12-1.55
		c0.26-1.54,1.61-0.81,2.55-0.69c4.71,0.62,9.35,1.57,13.67,3.72c1.07,0.53,3.01,0.39,2.92,2.06c-0.11,1.97-2.22,1.19-3.47,1.7
		c2.76,3.46,3.16,3.5,4.56,0.06c1.13-2.79,3.27-0.94,5.29-1.29c-1.36-3.35-4.47-3.25-6.69-4.21c-6.83-2.96-13.9-5.1-21.45-4.51
		c-0.47,0.04-0.94-0.05-1.41-0.08c-0.16,4.05-4.6,5.55-4.47,10.5c0.46,17.01,4.35,32.79,11.93,47.77c1.58,3.11,4.5,5.14,5.41,8.66
		c0.46,1.76,1.5,3.26,0.75,5.37c-0.62,1.74,0.79,2.86,2.14,3.8c3.45,2.42,8.46,2.58,10.08,7.76c0.18,0.58,1.51,0.94,2.35,1.08
		c0.25,0.04,0.48,0.09,0.71,0.15c0.98,0.12,1.96,0.2,2.96,0.24c2.2-0.84,4.54-1.3,6.84-0.53c0.88,0.29,1.5,0.69,2.04,1.15
		c0.56,0.22,1.08,0.76,1.49,1.43c0.17,0.28,0.35,0.53,0.53,0.76c0.25,0.27,0.52,0.55,0.83,0.82c0.03,0.03,0.06,0.05,0.09,0.08
		c0.54,0.39,1.17,0.61,1.95,0.64c0.22-0.1,0.48-0.23,0.83-0.4c2.39-1.13,4.15-2.73,6.93-2.94c3.13-0.23,5.39,0.56,6.95,1.98
		c0.68,0.41,1.4,0.92,2.17,1.57c2.14,1.81,4.49,0.32,6.52-0.51c4.64-1.9,9.13-3.18,14.33-2.62c2.6,0.29,5.64-1.91,8.56-2.84
		c3.34-1.06,6.72-2.42,9.72-4.64c0.32-0.23,0.61-0.37,0.88-0.43c3.13-2.22,6.38-4.29,9.3-6.81c0.53-2.04,1.08-4.07,1.7-6.08
		c0.48-1.56,0.9-3.13,1.31-4.71C514.18,549.86,514.09,549.98,513.99,550.1z M426.19,531.27c-0.5,0.87-1.36,0.56-2.06,0.3
		c-6.39-2.35-13.2-3.47-19.11-7.23c-1.28-0.81-2.84-1.56-2.19-3.69c0.3-0.99,0.87-1.61,1.87-1.57c5.17,1.67,10.25,3.44,15.42,4.9
		c2.75,0.79,4.3,2.7,5.61,5.06C426.11,529.74,426.65,530.47,426.19,531.27z"/>
	<path class="st0" d="M557.47,407.32c-0.38,0.01-0.76-0.01-1.13-0.06c-2.12-0.28-4.24-0.53-6.49-0.09c0.48-1.92,2.59-0.91,3.01-2.52
		c-1.29-1.2-2.7-0.22-3.97-0.1c-6.07,0.56-12.14,1.3-18.2,1.99c-0.49,0.06-1.29,0.06-1.43,0.36c-3.07,6.44-9.71,6.28-14.82,8.85
		c-7.61,3.82-15.61,6.86-22.71,11.7c-0.88,0.98-1.82,1.91-2.94,2.7c-3.17,2.23-6.91,3.33-10.21,5.32c-0.04,3.28,0.06,6.57,0.1,9.86
		c3.29-3.4,7.43-6.2,11.74-8.58c7.26-5.42,14.39-11.05,22.95-14.27c10.88-4.08,21.85-7.43,33.41-7.44c2.32-0.36,4.48-0.31,6.53,0.07
		c0.67-0.08,1.33,0.03,1.85,0.44c1.75,0.51,3.44,1.26,5.1,2.2c0.45-0.82,0.95-1.61,1.52-2.37c0.77-1.02,0.62-2.81,0.89-4.25
		c0.2-1.07,0.38-2.14,0.58-3.2C561.35,408.29,559.34,407.99,557.47,407.32z"/>
	<path class="st0" d="M601.56,440.91c0.23-10.22,0.01-20.41-2.26-30.44c-1.52-6.7-3.61-13.12-7.54-18.73
		c-0.23-0.33-0.5-0.62-0.76-0.91c-3.12-3.47-4.24-7.13-3.77-11.32c-1.55-2.17-3.47-4.09-5.47-5.96c-0.71,1.66-1.42,3.32-2.11,4.99
		c-4.54,10.94-6.46,22.81-9.86,34.17c-0.64,2.13-1.29,4.27-1.93,6.4c1.01,0.06,2.03,0.43,2.98,1.21c1.16,0.96,2.16,2.04,3.02,3.2
		c0.62,0.17,1.29,0.76,2.02,1.71c4.89,6.31,8.71,13.19,9.98,21.35c0.5,3.17,1.66,6.13,1.99,9.4c0.92,9.22-1.54,17.41-4.76,25.91
		c-4.84,12.76-13.34,22.72-20.83,33.43c-3.75,5.37-7.2,11.33-12.57,15.29c-2.11,1.55-4.29,2.99-6.48,4.41
		c-4.35,3.47-9.9,5.78-15.39,7.45c-0.69,0.3-1.38,0.59-2.07,0.89c-1,4.28-1.61,8.63-2.1,12.99c3.4-1.64,7.06-2.75,10.36-4.66
		c3.07-1.77,6.07-3.74,9-5.81c8.73-7.41,16-16.39,23.09-25.58c4.15-5.38,8.75-10.39,12.59-15.99c3.07-4.49,6.09-9.09,8.45-14.15
		c1.67-3.59,5.21-6.05,6.17-10.27c1.07-4.68,3.52-8.74,5.59-12.96c0.57-1.18,0.37-2.34,0.4-3.54c0.03-1.47-0.23-3.15,0.34-4.37
		C602.36,453.18,601.42,446.99,601.56,440.91z M592.04,417.15c-0.13,1.31-0.5,1.72-1.68,1.12c-3.64-1.86-7.43-3.28-11.34-4.39
		c-1.4-0.4-1.94-1.77-1.62-3.23c0.3-1.39,1.4-1.34,2.47-1.09c2.42,0.94,5.01,0.47,7.51,1.19
		C590.38,411.62,592.35,413.95,592.04,417.15z"/>
</g>
</svg>
